#N canvas 91 94 917 480 10;
#X obj 332 245 soundfiler;
#X floatatom 332 276 25 0 0 0 - - -, f 25;
#X floatatom 332 385 10 0 0 0 - - -, f 10;
#X obj 332 354 / 44.1;
#X text 388 354 sample rate / 1000;
#X obj 332 416 s \$1-duration;
#X obj 332 47 bng 15 250 50 0 empty empty empty 17 7 0 10 -262144 -1
-1;
#X obj 332 159 list prepend -resize;
#X obj 332 187 list prepend read;
#X obj 332 215 list trim;
#X obj 332 20 loadbang;
#X obj 332 95 list;
#X text 408 384 milliseconds;
#X obj 205 21 table \$1-2array;
#X obj 332 73 symbol \$1-2array;
#X obj 352 322 outlet;
#X obj 102 138 cnv 10 10 10 empty empty sample_length 0 13 0 8 -262144
-66577 0;
#X obj 102 128 cnv 10 10 10 empty empty reload 0 0 0 8 -262144 -66577
0;
#X obj 440 16 inlet;
#X obj 567 122 r \$1start;
#X obj 567 225 r \$1end;
#N canvas 136 147 1213 574 save-value-textfile 0;
#X obj 190 67 bng 15 250 50 0 empty empty empty 17 7 0 10 -262144 -1
-1;
#X msg 336 372 set;
#X obj 197 437 list trim;
#X obj 190 475 textfile;
#X obj 190 87 t b b b;
#X obj 321 223 v \$1start;
#X obj 392 223 v \$1end;
#X obj 47 228 list trim;
#X obj 190 42 inlet;
#X obj 47 200 list prepend write;
#X obj 47 170 list prepend ./media/\$2;
#X obj 395 107 t b b b b b b b;
#X obj 285 -15 r sample-reload;
#X obj 285 30 sel \$3;
#X obj 301 7 bng 15 250 50 0 empty empty empty 17 7 0 10 -262144 -1
-1;
#X msg 285 67 1;
#X text 388 -16 after recording a new sample this rewrites the txt-file
;
#X msg 318 67 0;
#X obj 376 37 r \$1sample-length;
#X obj 361 75 f;
#X obj 361 16 del 100;
#X obj 234 60 del 200;
#X obj 336 400 pack s 0 0 0 0 0 0 0;
#X connect 0 0 4 0;
#X connect 1 0 22 0;
#X connect 2 0 3 0;
#X connect 4 0 10 0;
#X connect 4 1 1 0;
#X connect 4 2 11 0;
#X connect 5 0 22 2;
#X connect 6 0 22 3;
#X connect 7 0 3 0;
#X connect 8 0 0 0;
#X connect 9 0 7 0;
#X connect 10 0 9 0;
#X connect 11 1 5 0;
#X connect 11 2 6 0;
#X connect 12 0 13 0;
#X connect 12 0 14 0;
#X connect 13 0 15 0;
#X connect 13 0 17 0;
#X connect 13 0 20 0;
#X connect 13 0 21 0;
#X connect 17 0 5 0;
#X connect 18 0 19 1;
#X connect 19 0 6 0;
#X connect 20 0 19 0;
#X connect 21 0 0 0;
#X connect 22 0 2 0;
#X restore 606 42 pd save-value-textfile;
#N canvas 0 94 1366 674 read-value-textfile 0;
#X obj -4 63 textfile;
#X msg 26 6 rewind;
#X obj -11 -52 bng 15 250 50 0 empty empty empty 17 7 0 10 -262144
-1 -1;
#X obj -11 -30 t b b b;
#X obj 250 117 t b f;
#X obj 180 117 t b f;
#X obj 180 148 v \$1start;
#X obj 250 148 v \$1end;
#X obj 152 46 list trim;
#X obj 152 3 list;
#X obj 152 -19 symbol \$2;
#X obj 152 24 list prepend read;
#X obj -11 -102 loadbang;
#X obj -11 -75 del 500;
#X obj 180 173 s \$1start;
#X obj 250 173 s \$1end;
#X obj 159 75 unpack 0 0 0 0 0 0 0, f 22;
#X obj 428 -130 r sample-reload;
#X obj 428 -85 sel \$3;
#X obj 444 -108 bng 15 250 50 0 empty empty empty 17 7 0 10 -262144
-1 -1;
#X text 537 -129 reload txt file;
#X obj 377 -55 del 300;
#X connect 0 0 16 0;
#X connect 1 0 0 0;
#X connect 2 0 3 0;
#X connect 3 0 0 0;
#X connect 3 1 1 0;
#X connect 3 2 10 0;
#X connect 4 0 7 0;
#X connect 4 1 7 0;
#X connect 5 0 6 0;
#X connect 5 1 6 0;
#X connect 6 0 14 0;
#X connect 7 0 15 0;
#X connect 8 0 0 0;
#X connect 9 0 11 0;
#X connect 10 0 9 0;
#X connect 11 0 8 0;
#X connect 12 0 13 0;
#X connect 13 0 2 0;
#X connect 16 1 5 0;
#X connect 16 2 4 0;
#X connect 17 0 18 0;
#X connect 17 0 19 0;
#X connect 18 0 21 0;
#X connect 21 0 2 0;
#X restore 606 64 pd read-value-textfile;
#X text 669 17 save value to textfile;
#X obj 606 18 r \$1save;
#X obj 526 18 r save1;
#X obj 526 48 s \$1save;
#X obj 332 126 list prepend \$1;
#X obj 205 41 table \$2-2array;
#X obj 567 174 tabwrite \$2-2array;
#X msg 672 142 1;
#X obj 567 286 tabwrite \$2-2array;
#X obj 735 110 loadbang;
#X msg 672 244 2;
#X obj 138 121 bng 15 250 50 0 empty empty empty 17 7 0 10 -262144
-1 -1;
#X obj 735 133 del 500;
#X obj 567 257 f;
#X obj 567 147 f;
#X obj 735 155 t b b;
#X msg 168 349 \; \$1 normalize;
#X connect 0 0 1 0;
#X connect 1 0 3 0;
#X connect 1 0 15 0;
#X connect 2 0 5 0;
#X connect 3 0 2 0;
#X connect 6 0 14 0;
#X connect 7 0 8 0;
#X connect 8 0 9 0;
#X connect 9 0 0 0;
#X connect 10 0 6 0;
#X connect 11 0 27 0;
#X connect 14 0 11 0;
#X connect 18 0 6 0;
#X connect 19 0 37 0;
#X connect 20 0 36 0;
#X connect 24 0 21 0;
#X connect 25 0 26 0;
#X connect 27 0 7 0;
#X connect 30 0 29 1;
#X connect 32 0 35 0;
#X connect 33 0 31 1;
#X connect 34 0 6 0;
#X connect 34 0 35 0;
#X connect 35 0 38 0;
#X connect 36 0 31 0;
#X connect 37 0 29 0;
#X connect 38 0 37 0;
#X connect 38 0 36 0;
#X connect 38 1 33 0;
#X connect 38 1 30 0;
#X coords 0 -1 1 1 120 60 1 100 100;
