#N canvas 0 94 1366 674 10;
#X declare -path media;
#X declare -path modules;
#X declare -path modules/rj;
#X declare -path fx;
#X declare -path sequencer;
#X obj 50 -169 s c-p;
#X text 94 -169 sets current pad status;
#N canvas 0 94 1351 674 midi-gui-translator 0;
#X obj 115 16 ctlin;
#X floatatom 115 81 5 0 0 0 - - -, f 5;
#X floatatom 131 61 5 0 0 0 - - -, f 5;
#X floatatom 147 44 5 0 0 0 - - -, f 5;
#X obj 16 68 unpack f f;
#X obj 16 255 s c-p;
#X obj 16 128 - 47;
#X obj 16 46 stripnote;
#X obj 38 151 r button-stage;
#X obj 16 234 spigot;
#X msg 38 193 1;
#X msg 86 196 0;
#X obj 38 172 sel 1 2;
#N canvas 76 138 976 566 tranlate-buttons2notes 0;
#X obj 65 -29 r button1;
#X obj 65 97 sel 1;
#X obj 65 207 s notes2;
#X obj 175 97 sel 1;
#X obj 175 207 s notes2;
#X obj 175 -29 r button2;
#X msg 65 134 48 100;
#X msg 97 159 48 0;
#X msg 175 134 49 100;
#X msg 208 159 49 0;
#X obj 285 97 sel 1;
#X obj 285 207 s notes2;
#X obj 395 97 sel 1;
#X obj 395 207 s notes2;
#X obj 285 -29 r button3;
#X obj 395 -29 r button4;
#X msg 285 134 50 100;
#X msg 317 159 50 0;
#X msg 395 134 51 100;
#X msg 428 159 51 0;
#X obj 505 97 sel 1;
#X obj 505 207 s notes2;
#X obj 615 97 sel 1;
#X obj 615 207 s notes2;
#X obj 725 97 sel 1;
#X obj 725 207 s notes2;
#X obj 835 97 sel 1;
#X obj 835 207 s notes2;
#X obj 505 -29 r button5;
#X obj 615 -29 r button6;
#X obj 725 -29 r button7;
#X obj 835 -29 r button8;
#X msg 505 134 52 100;
#X msg 537 159 52 0;
#X msg 615 134 53 100;
#X msg 648 159 53 0;
#X msg 725 134 54 100;
#X msg 757 159 54 0;
#X msg 835 134 55 100;
#X msg 868 159 55 0;
#X obj 65 427 sel 1;
#X obj 65 537 s notes2;
#X obj 175 427 sel 1;
#X obj 175 537 s notes2;
#X obj 295 427 sel 1;
#X obj 295 537 s notes2;
#X obj 415 427 sel 1;
#X obj 415 537 s notes2;
#X obj 525 427 sel 1;
#X obj 525 537 s notes2;
#X obj 645 427 sel 1;
#X obj 645 537 s notes2;
#X obj 755 427 sel 1;
#X obj 755 537 s notes2;
#X obj 865 427 sel 1;
#X obj 865 537 s notes2;
#X obj 65 261 r button9;
#X obj 175 261 r button10;
#X obj 295 261 r button11;
#X obj 415 261 r button12;
#X obj 525 261 r button13;
#X obj 645 261 r button14;
#X obj 755 261 r button15;
#X obj 865 261 r button16;
#X msg 65 464 56 100;
#X msg 97 489 56 0;
#X msg 175 464 57 100;
#X msg 208 489 57 0;
#X msg 295 464 58 100;
#X msg 327 489 58 0;
#X msg 415 464 59 100;
#X msg 448 489 59 0;
#X msg 525 464 60 100;
#X msg 557 489 60 0;
#X msg 645 464 61 100;
#X msg 678 489 61 0;
#X msg 755 464 62 100;
#X msg 787 489 62 0;
#X msg 865 464 63 100;
#X msg 898 489 63 0;
#X obj 65 627 sel 1;
#X obj 65 737 s notes2;
#X obj 155 627 sel 1;
#X obj 155 737 s notes2;
#X obj 245 627 sel 1;
#X obj 245 737 s notes2;
#X obj 335 627 sel 1;
#X obj 335 737 s notes2;
#X obj 425 627 sel 1;
#X obj 425 737 s notes2;
#X obj 515 627 sel 1;
#X obj 515 737 s notes2;
#X obj 605 627 sel 1;
#X obj 605 737 s notes2;
#X obj 695 627 sel 1;
#X obj 695 737 s notes2;
#X obj 65 591 r button17;
#X obj 155 591 r button18;
#X obj 245 591 r button19;
#X obj 335 591 r button20;
#X obj 425 591 r button21;
#X obj 515 591 r button22;
#X obj 605 591 r button23;
#X obj 695 591 r button24;
#X obj 795 627 sel 1;
#X obj 795 737 s notes2;
#X obj 795 591 r button25;
#X msg 65 664 64 100;
#X msg 97 689 64 0;
#X msg 155 664 65 100;
#X msg 188 689 65 0;
#X msg 245 664 66 100;
#X msg 277 689 66 0;
#X msg 335 664 67 100;
#X msg 368 689 67 0;
#X msg 425 664 68 100;
#X msg 457 689 68 0;
#X msg 515 664 69 100;
#X msg 548 689 69 0;
#X msg 605 664 70 100;
#X msg 637 689 70 0;
#X msg 695 664 71 100;
#X msg 728 689 71 0;
#X msg 795 664 72 100;
#X msg 828 689 72 0;
#X obj 73 -1 r option-button;
#X obj 65 68 spigot;
#X obj 73 22 sel 1 0;
#X msg 73 45 0;
#X msg 103 45 1;
#X obj 183 -1 r option-button;
#X obj 175 68 spigot;
#X obj 183 22 sel 1 0;
#X msg 183 45 0;
#X msg 213 45 1;
#X obj 293 -1 r option-button;
#X obj 285 68 spigot;
#X obj 293 22 sel 1 0;
#X msg 293 45 0;
#X msg 323 45 1;
#X obj 403 -1 r option-button;
#X obj 395 68 spigot;
#X obj 403 22 sel 1 0;
#X msg 403 45 0;
#X msg 433 45 1;
#X obj 513 -1 r option-button;
#X obj 505 68 spigot;
#X obj 513 22 sel 1 0;
#X msg 513 45 0;
#X msg 543 45 1;
#X obj 623 -1 r option-button;
#X obj 615 68 spigot;
#X obj 623 22 sel 1 0;
#X msg 623 45 0;
#X msg 653 45 1;
#X obj 733 -1 r option-button;
#X obj 725 68 spigot;
#X obj 733 22 sel 1 0;
#X msg 733 45 0;
#X msg 763 45 1;
#X obj 843 -1 r option-button;
#X obj 835 68 spigot;
#X obj 843 22 sel 1 0;
#X msg 843 45 0;
#X msg 873 45 1;
#X obj 73 319 r option-button;
#X obj 65 388 spigot;
#X obj 73 342 sel 1 0;
#X msg 73 365 0;
#X msg 103 365 1;
#X obj 183 319 r option-button;
#X obj 175 388 spigot;
#X obj 183 342 sel 1 0;
#X msg 183 365 0;
#X msg 213 365 1;
#X obj 303 319 r option-button;
#X obj 295 388 spigot;
#X obj 303 342 sel 1 0;
#X msg 303 365 0;
#X msg 333 365 1;
#X obj 423 319 r option-button;
#X obj 415 388 spigot;
#X obj 423 342 sel 1 0;
#X msg 423 365 0;
#X msg 453 365 1;
#X obj 533 319 r option-button;
#X obj 525 388 spigot;
#X obj 533 342 sel 1 0;
#X msg 533 365 0;
#X msg 563 365 1;
#X obj 653 319 r option-button;
#X obj 645 388 spigot;
#X obj 653 342 sel 1 0;
#X msg 653 365 0;
#X msg 683 365 1;
#X obj 763 319 r option-button;
#X obj 755 388 spigot;
#X obj 763 342 sel 1 0;
#X msg 763 365 0;
#X msg 793 365 1;
#X obj 873 319 r option-button;
#X obj 865 388 spigot;
#X obj 873 342 sel 1 0;
#X msg 873 365 0;
#X msg 903 365 1;
#X connect 0 0 126 0;
#X connect 1 0 6 0;
#X connect 1 1 7 0;
#X connect 3 0 8 0;
#X connect 3 1 9 0;
#X connect 5 0 131 0;
#X connect 6 0 2 0;
#X connect 7 0 2 0;
#X connect 8 0 4 0;
#X connect 9 0 4 0;
#X connect 10 0 16 0;
#X connect 10 1 17 0;
#X connect 12 0 18 0;
#X connect 12 1 19 0;
#X connect 14 0 136 0;
#X connect 15 0 141 0;
#X connect 16 0 11 0;
#X connect 17 0 11 0;
#X connect 18 0 13 0;
#X connect 19 0 13 0;
#X connect 20 0 32 0;
#X connect 20 1 33 0;
#X connect 22 0 34 0;
#X connect 22 1 35 0;
#X connect 24 0 36 0;
#X connect 24 1 37 0;
#X connect 26 0 38 0;
#X connect 26 1 39 0;
#X connect 28 0 146 0;
#X connect 29 0 151 0;
#X connect 30 0 156 0;
#X connect 31 0 161 0;
#X connect 32 0 21 0;
#X connect 33 0 21 0;
#X connect 34 0 23 0;
#X connect 35 0 23 0;
#X connect 36 0 25 0;
#X connect 37 0 25 0;
#X connect 38 0 27 0;
#X connect 39 0 27 0;
#X connect 40 0 64 0;
#X connect 40 1 65 0;
#X connect 42 0 66 0;
#X connect 42 1 67 0;
#X connect 44 0 68 0;
#X connect 44 1 69 0;
#X connect 46 0 70 0;
#X connect 46 1 71 0;
#X connect 48 0 72 0;
#X connect 48 1 73 0;
#X connect 50 0 74 0;
#X connect 50 1 75 0;
#X connect 52 0 76 0;
#X connect 52 1 77 0;
#X connect 54 0 78 0;
#X connect 54 1 79 0;
#X connect 56 0 166 0;
#X connect 57 0 171 0;
#X connect 58 0 176 0;
#X connect 59 0 181 0;
#X connect 60 0 186 0;
#X connect 61 0 191 0;
#X connect 62 0 196 0;
#X connect 63 0 201 0;
#X connect 64 0 41 0;
#X connect 65 0 41 0;
#X connect 66 0 43 0;
#X connect 67 0 43 0;
#X connect 68 0 45 0;
#X connect 69 0 45 0;
#X connect 70 0 47 0;
#X connect 71 0 47 0;
#X connect 72 0 49 0;
#X connect 73 0 49 0;
#X connect 74 0 51 0;
#X connect 75 0 51 0;
#X connect 76 0 53 0;
#X connect 77 0 53 0;
#X connect 78 0 55 0;
#X connect 79 0 55 0;
#X connect 80 0 107 0;
#X connect 80 1 108 0;
#X connect 82 0 109 0;
#X connect 82 1 110 0;
#X connect 84 0 111 0;
#X connect 84 1 112 0;
#X connect 86 0 113 0;
#X connect 86 1 114 0;
#X connect 88 0 115 0;
#X connect 88 1 116 0;
#X connect 90 0 117 0;
#X connect 90 1 118 0;
#X connect 92 0 119 0;
#X connect 92 1 120 0;
#X connect 94 0 121 0;
#X connect 94 1 122 0;
#X connect 96 0 80 0;
#X connect 97 0 82 0;
#X connect 98 0 84 0;
#X connect 99 0 86 0;
#X connect 100 0 88 0;
#X connect 101 0 90 0;
#X connect 102 0 92 0;
#X connect 103 0 94 0;
#X connect 104 0 123 0;
#X connect 104 1 124 0;
#X connect 106 0 104 0;
#X connect 107 0 81 0;
#X connect 108 0 81 0;
#X connect 109 0 83 0;
#X connect 110 0 83 0;
#X connect 111 0 85 0;
#X connect 112 0 85 0;
#X connect 113 0 87 0;
#X connect 114 0 87 0;
#X connect 115 0 89 0;
#X connect 116 0 89 0;
#X connect 117 0 91 0;
#X connect 118 0 91 0;
#X connect 119 0 93 0;
#X connect 120 0 93 0;
#X connect 121 0 95 0;
#X connect 122 0 95 0;
#X connect 123 0 105 0;
#X connect 124 0 105 0;
#X connect 125 0 127 0;
#X connect 126 0 1 0;
#X connect 127 0 128 0;
#X connect 127 1 129 0;
#X connect 128 0 126 1;
#X connect 129 0 126 1;
#X connect 130 0 132 0;
#X connect 131 0 3 0;
#X connect 132 0 133 0;
#X connect 132 1 134 0;
#X connect 133 0 131 1;
#X connect 134 0 131 1;
#X connect 135 0 137 0;
#X connect 136 0 10 0;
#X connect 137 0 138 0;
#X connect 137 1 139 0;
#X connect 138 0 136 1;
#X connect 139 0 136 1;
#X connect 140 0 142 0;
#X connect 141 0 12 0;
#X connect 142 0 143 0;
#X connect 142 1 144 0;
#X connect 143 0 141 1;
#X connect 144 0 141 1;
#X connect 145 0 147 0;
#X connect 146 0 20 0;
#X connect 147 0 148 0;
#X connect 147 1 149 0;
#X connect 148 0 146 1;
#X connect 149 0 146 1;
#X connect 150 0 152 0;
#X connect 151 0 22 0;
#X connect 152 0 153 0;
#X connect 152 1 154 0;
#X connect 153 0 151 1;
#X connect 154 0 151 1;
#X connect 155 0 157 0;
#X connect 156 0 24 0;
#X connect 157 0 158 0;
#X connect 157 1 159 0;
#X connect 158 0 156 1;
#X connect 159 0 156 1;
#X connect 160 0 162 0;
#X connect 161 0 26 0;
#X connect 162 0 163 0;
#X connect 162 1 164 0;
#X connect 163 0 161 1;
#X connect 164 0 161 1;
#X connect 165 0 167 0;
#X connect 166 0 40 0;
#X connect 167 0 168 0;
#X connect 167 1 169 0;
#X connect 168 0 166 1;
#X connect 169 0 166 1;
#X connect 170 0 172 0;
#X connect 171 0 42 0;
#X connect 172 0 173 0;
#X connect 172 1 174 0;
#X connect 173 0 171 1;
#X connect 174 0 171 1;
#X connect 175 0 177 0;
#X connect 176 0 44 0;
#X connect 177 0 178 0;
#X connect 177 1 179 0;
#X connect 178 0 176 1;
#X connect 179 0 176 1;
#X connect 180 0 182 0;
#X connect 181 0 46 0;
#X connect 182 0 183 0;
#X connect 182 1 184 0;
#X connect 183 0 181 1;
#X connect 184 0 181 1;
#X connect 185 0 187 0;
#X connect 186 0 48 0;
#X connect 187 0 188 0;
#X connect 187 1 189 0;
#X connect 188 0 186 1;
#X connect 189 0 186 1;
#X connect 190 0 192 0;
#X connect 191 0 50 0;
#X connect 192 0 193 0;
#X connect 192 1 194 0;
#X connect 193 0 191 1;
#X connect 194 0 191 1;
#X connect 195 0 197 0;
#X connect 196 0 52 0;
#X connect 197 0 198 0;
#X connect 197 1 199 0;
#X connect 198 0 196 1;
#X connect 199 0 196 1;
#X connect 200 0 202 0;
#X connect 201 0 54 0;
#X connect 202 0 203 0;
#X connect 202 1 204 0;
#X connect 203 0 201 1;
#X connect 204 0 201 1;
#X restore 200 13 pd tranlate-buttons2notes;
#X obj 16 8 r notes2;
#N canvas 27 146 1107 523 option-menu 0;
#X obj 29 28 r button1;
#X obj 29 99 sel 1;
#X obj 62 48 r option-button;
#X obj 29 70 spigot;
#X msg 29 122 1;
#X msg 56 122 0;
#X obj 29 156 s menu-button;
#X obj 199 99 sel 1;
#X obj 232 48 r option-button;
#X obj 199 70 spigot;
#X msg 199 122 1;
#X msg 226 122 0;
#X obj 199 28 r button2;
#X obj 199 156 s kill-button;
#X obj 359 99 sel 1;
#X obj 392 48 r option-button;
#X obj 359 70 spigot;
#X msg 359 122 1;
#X msg 386 122 0;
#X obj 359 28 r button3;
#X obj 359 156 s save1;
#X obj 840 13 loadbang;
#X msg 840 36 0;
#X obj 840 59 s option-button;
#X obj 509 99 sel 1;
#X obj 542 48 r option-button;
#X obj 509 70 spigot;
#X msg 509 122 1;
#X msg 536 122 0;
#X obj 509 156 s save1;
#X obj 509 28 r button4;
#X obj 29 319 sel 1;
#X obj 62 268 r option-button;
#X obj 29 290 spigot;
#X obj 199 319 sel 1;
#X obj 232 268 r option-button;
#X obj 199 290 spigot;
#X obj 359 319 sel 1;
#X obj 392 268 r option-button;
#X obj 359 290 spigot;
#X msg 359 342 1;
#X msg 386 342 0;
#X obj 359 376 s save1;
#X obj 509 319 sel 1;
#X obj 542 268 r option-button;
#X obj 509 290 spigot;
#X msg 509 342 1;
#X msg 536 342 0;
#X obj 509 376 s save1;
#X obj 29 248 r button9;
#X obj 199 248 r button10;
#X obj 359 248 r button11;
#X obj 509 248 r button12;
#X obj 29 378 s display-status;
#X msg 29 342 2;
#X obj 199 378 s display-status;
#X msg 199 342 3;
#X connect 0 0 3 0;
#X connect 1 0 4 0;
#X connect 1 1 5 0;
#X connect 2 0 3 1;
#X connect 3 0 1 0;
#X connect 4 0 6 0;
#X connect 5 0 6 0;
#X connect 7 0 10 0;
#X connect 7 1 11 0;
#X connect 8 0 9 1;
#X connect 9 0 7 0;
#X connect 10 0 13 0;
#X connect 11 0 13 0;
#X connect 12 0 9 0;
#X connect 14 0 17 0;
#X connect 14 1 18 0;
#X connect 15 0 16 1;
#X connect 16 0 14 0;
#X connect 17 0 20 0;
#X connect 18 0 20 0;
#X connect 19 0 16 0;
#X connect 21 0 22 0;
#X connect 22 0 23 0;
#X connect 24 0 27 0;
#X connect 24 1 28 0;
#X connect 25 0 26 1;
#X connect 26 0 24 0;
#X connect 27 0 29 0;
#X connect 28 0 29 0;
#X connect 30 0 26 0;
#X connect 31 0 54 0;
#X connect 32 0 33 1;
#X connect 33 0 31 0;
#X connect 34 0 56 0;
#X connect 35 0 36 1;
#X connect 36 0 34 0;
#X connect 37 0 40 0;
#X connect 37 1 41 0;
#X connect 38 0 39 1;
#X connect 39 0 37 0;
#X connect 40 0 42 0;
#X connect 41 0 42 0;
#X connect 43 0 46 0;
#X connect 43 1 47 0;
#X connect 44 0 45 1;
#X connect 45 0 43 0;
#X connect 46 0 48 0;
#X connect 47 0 48 0;
#X connect 49 0 33 0;
#X connect 50 0 36 0;
#X connect 51 0 39 0;
#X connect 52 0 45 0;
#X connect 54 0 53 0;
#X connect 56 0 55 0;
#X restore 200 35 pd option-menu;
#N canvas 0 94 1287 554 midi2pd 0;
#X obj 654 354 sel 127;
#X msg 654 376 1;
#X msg 700 375 0;
#X obj 927 354 sel 127;
#X obj 1037 353 sel 127;
#X obj 927 444 s gate-button;
#X obj 1037 444 s loop-button;
#X obj 159 247 s st-en-lv-button;
#X obj 159 156 sel 127;
#X msg 159 178 1;
#X obj 927 389 bng 15 250 50 0 empty empty empty 17 7 0 10 -262144
-1 -1;
#X obj 1037 386 bng 15 250 50 0 empty empty empty 17 7 0 10 -262144
-1 -1;
#X obj 544 424 sel 127;
#X obj 544 445 s rec-button;
#X obj 398 418 sel 127;
#X obj 398 445 s cancel-button;
#X obj 654 445 s marker-button;
#X obj 787 354 sel 127;
#X obj 787 389 bng 15 250 50 0 empty empty empty 17 7 0 10 -262144
-1 -1;
#X obj 787 444 s lofi-button;
#X obj 946 45 / 127;
#X obj 946 24 ctlin 23;
#X obj 946 136 s volume-r;
#X obj 848 46 / 127;
#X obj 748 46 / 127;
#X obj 648 46 / 127;
#X obj 848 25 ctlin 22;
#X obj 748 25 ctlin 21;
#X obj 648 25 ctlin 20;
#X obj 648 137 s ctlr1-r;
#X obj 748 137 s ctlr2-r;
#X obj 848 137 s ctlr3-r;
#X obj 320 160 sel 127;
#X msg 320 182 1;
#X obj 320 251 s save1;
#X obj 153 437 s synth-r;
#X obj 153 347 sel 127;
#X obj 163 417 s synth;
#X obj 1037 320 ctlin 71;
#X obj 927 320 ctlin 70;
#X obj 787 320 ctlin 69;
#X obj 654 321 ctlin 68;
#X obj 544 402 ctlin 67;
#X obj 398 395 ctlin 66;
#X obj 159 123 ctlin 48;
#X obj 320 127 ctlin 49;
#X obj 153 325 ctlin 64 1;
#X obj 1035 208 sel 127;
#X msg 1035 230 1;
#X msg 1081 229 0;
#X obj 927 203 sel 127;
#X msg 927 225 1;
#X msg 973 224 0;
#X obj 787 203 sel 127;
#X msg 787 225 1;
#X msg 833 224 0;
#X obj 787 170 ctlin 53;
#X obj 927 170 ctlin 54;
#X obj 1035 175 ctlin 55;
#X obj 787 294 s filter-button;
#X obj 927 294 s dly-button;
#X obj 1035 299 s dust-button;
#X obj 273 347 sel 127;
#X obj 273 325 ctlin 65 1;
#X obj 283 417 s kill-button;
#X obj 273 437 s kill-button-r;
#X connect 0 0 1 0;
#X connect 0 1 2 0;
#X connect 1 0 16 0;
#X connect 2 0 16 0;
#X connect 3 0 10 0;
#X connect 4 0 11 0;
#X connect 8 0 9 0;
#X connect 9 0 7 0;
#X connect 10 0 5 0;
#X connect 11 0 6 0;
#X connect 12 0 13 0;
#X connect 14 0 15 0;
#X connect 17 0 18 0;
#X connect 18 0 19 0;
#X connect 20 0 22 0;
#X connect 21 0 20 0;
#X connect 23 0 31 0;
#X connect 24 0 30 0;
#X connect 25 0 29 0;
#X connect 26 0 23 0;
#X connect 27 0 24 0;
#X connect 28 0 25 0;
#X connect 32 0 33 0;
#X connect 33 0 34 0;
#X connect 36 0 35 0;
#X connect 36 0 37 0;
#X connect 38 0 4 0;
#X connect 39 0 3 0;
#X connect 40 0 17 0;
#X connect 41 0 0 0;
#X connect 42 0 12 0;
#X connect 43 0 14 0;
#X connect 44 0 8 0;
#X connect 45 0 32 0;
#X connect 46 0 36 0;
#X connect 47 0 48 0;
#X connect 47 1 49 0;
#X connect 48 0 61 0;
#X connect 49 0 61 0;
#X connect 50 0 51 0;
#X connect 50 1 52 0;
#X connect 51 0 60 0;
#X connect 52 0 60 0;
#X connect 53 0 54 0;
#X connect 53 1 55 0;
#X connect 54 0 59 0;
#X connect 55 0 59 0;
#X connect 56 0 53 0;
#X connect 57 0 50 0;
#X connect 58 0 47 0;
#X connect 62 0 64 0;
#X connect 62 0 65 0;
#X connect 63 0 62 0;
#X restore 200 58 pd midi2pd;
#N canvas 0 94 1213 613 organelle-midi 0;
#X obj 46 157 spigot 1;
#X obj 134 113 r midiInGate;
#X obj 46 187 t f b;
#X obj 46 225 / 127;
#X obj 98 220 s knob1Override;
#X obj 46 118 change;
#X obj 245 153 spigot 1;
#X obj 333 109 r midiInGate;
#X obj 245 183 t f b;
#X obj 245 221 / 127;
#X obj 245 114 change;
#X obj 439 149 spigot 1;
#X obj 527 105 r midiInGate;
#X obj 439 179 t f b;
#X obj 439 217 / 127;
#X obj 439 110 change;
#X obj 637 148 spigot 1;
#X obj 725 104 r midiInGate;
#X obj 637 178 t f b;
#X obj 637 213 / 127;
#X obj 297 216 s knob2Override;
#X obj 492 212 s knob3Override;
#X obj 689 210 s knob4Override;
#X obj 877 85 notein;
#X obj 877 214 spigot 1;
#X obj 961 443 s notes;
#X obj 1087 140 spigot 1;
#X obj 1140 87 r midiInGate;
#X obj 1087 228 s aux;
#X obj 1280 134 spigot 1;
#X obj 1368 90 r midiInGate;
#X obj 1280 231 s fs;
#X obj 1280 164 >= 64;
#X obj 1280 196 change;
#X obj 1087 184 change;
#X obj 1473 144 spigot 1;
#X obj 1561 100 r midiInGate;
#X obj 1473 174 t f b;
#X obj 1473 212 / 127;
#X obj 1473 118 change;
#X obj 1525 207 s expOverride;
#X obj 1473 234 s exp;
#X text 704 482 the 'raw' stuff comes directly from built in controls
;
#X obj 46 90 ctlin 16 1;
#X obj 245 86 ctlin 17 1;
#X obj 439 83 ctlin 18 1;
#X obj 637 82 ctlin 19 1;
#X obj 930 182 r midiInGate;
#X obj 877 147 pack;
#X obj 1039 447 s notesRaw;
#X obj 729 301 s notestoarp;
#N canvas 2 95 450 300 arp-status 0;
#X obj 114 25 inlet;
#X obj 114 247 outlet;
#X obj 283 235 outlet;
#X obj 283 134 spigot 1;
#X obj 338 25 r arp-status;
#X obj 176 126 sel 0 1;
#X msg 176 152 1;
#X msg 217 152 0;
#X obj 114 206 spigot 0;
#X connect 0 0 3 0;
#X connect 0 0 8 0;
#X connect 3 0 2 0;
#X connect 4 0 3 1;
#X connect 4 0 5 0;
#X connect 5 0 6 0;
#X connect 5 1 7 0;
#X connect 6 0 8 1;
#X connect 7 0 8 1;
#X connect 8 0 1 0;
#X restore 873 265 pd arp-status;
#N canvas 2 113 450 300 checkstate 0;
#X obj 91 56 inlet;
#X obj 94 225 outlet;
#X obj 137 89 r korg-menu-state;
#X msg 136 142 1;
#X msg 176 142 0;
#X obj 90 175 spigot 0;
#X obj 137 119 sel 2;
#X connect 0 0 5 0;
#X connect 2 0 6 0;
#X connect 3 0 5 1;
#X connect 4 0 5 1;
#X connect 5 0 1 0;
#X connect 6 0 3 0;
#X connect 6 1 4 0;
#X restore 1087 111 pd checkstate;
#X obj 1087 65 r korg-button17;
#X obj 1042 202 bng 15 250 50 0 empty empty empty 17 7 0 10 -262144
-1 -1;
#X obj 961 351 spigot;
#X obj 1063 272 r button-stage;
#X obj 1063 294 sel 6;
#X msg 1063 316 1;
#X msg 1095 316 0;
#X obj 831 378 spigot;
#X obj 827 291 r button-stage;
#X msg 827 335 1;
#X msg 859 335 0;
#X obj 782 441 print;
#X text 30 52 Organelle Midi---------------------------------------------
;
#X obj 831 440 s notes2;
#X obj 981 300 r notes2;
#X obj 827 313 sel 1 2;
#X obj 46 247 s knob1-r;
#X obj 245 243 s knob2-r;
#X obj 439 239 s knob3-r;
#X obj 637 238 s knob4-r;
#X connect 0 0 2 0;
#X connect 1 0 0 1;
#X connect 2 0 3 0;
#X connect 2 1 4 0;
#X connect 3 0 69 0;
#X connect 5 0 0 0;
#X connect 6 0 8 0;
#X connect 7 0 6 1;
#X connect 8 0 9 0;
#X connect 8 1 20 0;
#X connect 9 0 70 0;
#X connect 10 0 6 0;
#X connect 11 0 13 0;
#X connect 12 0 11 1;
#X connect 13 0 14 0;
#X connect 13 1 21 0;
#X connect 14 0 71 0;
#X connect 15 0 11 0;
#X connect 16 0 18 0;
#X connect 17 0 16 1;
#X connect 18 0 19 0;
#X connect 18 1 22 0;
#X connect 19 0 72 0;
#X connect 23 0 48 0;
#X connect 23 1 48 1;
#X connect 24 0 51 0;
#X connect 26 0 54 0;
#X connect 26 0 34 0;
#X connect 27 0 26 1;
#X connect 29 0 32 0;
#X connect 30 0 29 1;
#X connect 32 0 33 0;
#X connect 33 0 31 0;
#X connect 34 0 28 0;
#X connect 35 0 37 0;
#X connect 36 0 35 1;
#X connect 37 0 38 0;
#X connect 37 1 40 0;
#X connect 38 0 41 0;
#X connect 39 0 35 0;
#X connect 43 0 5 0;
#X connect 44 0 10 0;
#X connect 45 0 15 0;
#X connect 46 0 16 0;
#X connect 47 0 24 1;
#X connect 48 0 24 0;
#X connect 51 0 50 0;
#X connect 51 1 55 0;
#X connect 51 1 60 0;
#X connect 52 0 26 0;
#X connect 53 0 52 0;
#X connect 55 0 25 0;
#X connect 55 0 49 0;
#X connect 56 0 57 0;
#X connect 57 0 58 0;
#X connect 57 1 59 0;
#X connect 58 0 55 1;
#X connect 59 0 55 1;
#X connect 60 0 64 0;
#X connect 60 0 66 0;
#X connect 61 0 68 0;
#X connect 62 0 60 1;
#X connect 63 0 60 1;
#X connect 67 0 55 0;
#X connect 68 0 62 0;
#X connect 68 1 62 0;
#X connect 68 2 63 0;
#X restore 200 81 pd organelle-midi;
#X connect 0 0 1 0;
#X connect 0 1 2 0;
#X connect 0 2 3 0;
#X connect 4 0 6 0;
#X connect 6 0 9 0;
#X connect 7 0 4 0;
#X connect 8 0 12 0;
#X connect 9 0 5 0;
#X connect 10 0 9 1;
#X connect 11 0 9 1;
#X connect 12 0 10 0;
#X connect 12 1 10 0;
#X connect 12 2 11 0;
#X connect 14 0 7 0;
#X restore 397 -146 pd midi-gui-translator;
#X obj 50 -149 r c-p;
#X floatatom 50 -105 5 0 0 0 - - -, f 5;
#X obj 91 -149 loadbang;
#X msg 91 -128 1;
#N canvas 0 94 1351 674 audio 0;
#X obj 238 675 dac~;
#X obj 402 424 r volume;
#X obj 41 -19 loadbang;
#X msg 41 2 0;
#X obj 41 29 s volume;
#X obj 130 -19 loadbang;
#X msg 130 3 \; pd dsp 1;
#X obj 239 632 clip~ -1 1;
#X obj 325 631 clip~ -1 1;
#X obj 48 102 catch~ fx2master;
#X obj 403 480 *;
#X obj 402 456 t f f;
#X obj 402 511 sig~;
#X obj 402 537 lop~ 2;
#X obj 372 179 catch~ outR;
#X obj 48 508 s~ 2record;
#X obj 372 213 *~ 1;
#X obj 47 476 clip~ -1 1;
#X obj 47 451 hip~ 3;
#X obj 239 123 *~ 0.9;
#X obj 48 124 *~ 0.9;
#X obj 460 369 throw~ samp_fx_out;
#N canvas 749 299 611 399 fx-routing 0;
#X obj 31 10 inlet~;
#X obj 31 260 outlet~;
#X obj 128 141 vline~;
#X obj 113 168 *~;
#X obj 68 141 vline~;
#X obj 53 168 *~;
#X obj 74 59 bng 15 250 50 0 empty empty empty 17 7 0 10 -262144 -1
-1;
#X obj 139 77 bng 15 250 50 0 empty empty empty 17 7 0 10 -262144 -1
-1;
#X msg 68 109 1 5;
#X msg 96 109 0 5;
#X msg 128 109 1 5;
#X msg 156 109 0 5;
#X obj 121 260 outlet~;
#X obj 79 10 loadbang;
#X obj 160 12 inlet;
#X obj 160 33 sel 0;
#X connect 0 0 5 0;
#X connect 0 0 3 0;
#X connect 2 0 3 1;
#X connect 3 0 12 0;
#X connect 4 0 5 1;
#X connect 5 0 1 0;
#X connect 6 0 8 0;
#X connect 6 0 9 0;
#X connect 7 0 10 0;
#X connect 7 0 11 0;
#X connect 8 0 4 0;
#X connect 9 0 2 0;
#X connect 10 0 2 0;
#X connect 11 0 4 0;
#X connect 13 0 6 0;
#X connect 14 0 15 0;
#X connect 15 0 6 0;
#X connect 15 1 7 0;
#X restore 373 343 pd fx-routing;
#X obj 527 140 r fx-status;
#X floatatom 527 164 5 0 0 0 - - -, f 5;
#X floatatom 527 254 5 0 0 0 - - -, f 5;
#X obj 527 185 == 30;
#X obj 239 101 catch~ samp-sp_voice_out;
#N canvas 26 101 1048 612 compressor 0;
#X msg 403 134 threshold \$1;
#X msg 404 182 ratio \$1;
#X msg 405 229 attack \$1;
#X msg 406 273 release \$1;
#X msg 408 360 makeup \$1;
#X floatatom 403 116 5 -100 0 0 - - -, f 5;
#X floatatom 404 163 5 1 100 0 - - -, f 5;
#X floatatom 405 211 5 0.001 1000 0 - - -, f 5;
#X floatatom 406 253 5 0.001 1000 0 - - -, f 5;
#X floatatom 408 340 5 0 0 0 - - -, f 5;
#X msg 408 313 knee \$1;
#X floatatom 408 295 5 0 1 0 - - -, f 5;
#X text 494 135 Threshold in dBFS (0 to -infinity);
#X text 493 229 Attack in ms. Default = 0.001 ms;
#X text 493 182 Ratio. Default = 1:1;
#X text 493 274 Release in ms. Default = 0.001 ms;
#X text 493 303 Knee smoothening \, from 0 to 1;
#X text 493 317 0 = hard. 1 = smooth. Default = 0;
#X text 493 360 Makeup gain \, in dB. Default = 0 dB.;
#X text 447 415 Optional arguments: threshold \, ratio \, attack \,
release \, makeup gain;
#X obj 105 120 inlet~;
#X obj 225 120 inlet~;
#X obj 232 499 outlet~;
#X obj 312 499 outlet~;
#X obj 794 209 * -1;
#X floatatom 628 7 5 0 0 0 - - -, f 5;
#X floatatom 787 274 5 0 0 0 - - -, f 5;
#X obj 794 232 / 2;
#X obj 628 45 * -1;
#X obj 229 432 tb_peakcomp~ -30 3 15 92 25;
#X obj 659 180 * 5;
#X obj 708 206 * 2;
#X obj 831 79 loadbang;
#X msg 832 107 -15;
#X obj 623 70 / 2;
#X connect 0 0 29 0;
#X connect 1 0 29 0;
#X connect 2 0 29 0;
#X connect 3 0 29 0;
#X connect 4 0 29 0;
#X connect 5 0 0 0;
#X connect 6 0 1 0;
#X connect 7 0 2 0;
#X connect 8 0 3 0;
#X connect 9 0 4 0;
#X connect 10 0 29 0;
#X connect 11 0 10 0;
#X connect 20 0 29 0;
#X connect 21 0 29 1;
#X connect 24 0 27 0;
#X connect 25 0 24 0;
#X connect 25 0 5 0;
#X connect 25 0 28 0;
#X connect 26 0 9 0;
#X connect 27 0 26 0;
#X connect 28 0 30 0;
#X connect 28 0 31 0;
#X connect 28 0 34 0;
#X connect 29 0 22 0;
#X connect 29 1 23 0;
#X connect 30 0 7 0;
#X connect 31 0 8 0;
#X connect 32 0 33 0;
#X connect 33 0 25 0;
#X connect 34 0 6 0;
#X restore 237 466 pd compressor;
#X obj 238 432 *~ 1;
#X obj 238 578 *~;
#X obj 326 573 *~;
#X text 31 56 -----------------------------------------------------------
\;;
#X obj 239 607 hip~ 30;
#X obj 325 605 hip~ 30;
#X obj 47 421 *~ 1;
#X connect 1 0 11 0;
#X connect 2 0 3 0;
#X connect 3 0 4 0;
#X connect 5 0 6 0;
#X connect 7 0 0 0;
#X connect 8 0 0 1;
#X connect 9 0 20 0;
#X connect 10 0 12 0;
#X connect 11 0 10 0;
#X connect 11 1 10 1;
#X connect 12 0 13 0;
#X connect 13 0 30 1;
#X connect 13 0 31 1;
#X connect 14 0 16 0;
#X connect 16 0 22 0;
#X connect 16 0 35 0;
#X connect 17 0 15 0;
#X connect 18 0 17 0;
#X connect 19 0 29 0;
#X connect 19 0 35 0;
#X connect 20 0 29 0;
#X connect 20 0 35 0;
#X connect 22 0 29 0;
#X connect 22 0 35 0;
#X connect 22 1 21 0;
#X connect 23 0 24 0;
#X connect 24 0 26 0;
#X connect 26 0 22 1;
#X connect 26 0 25 0;
#X connect 27 0 19 0;
#X connect 28 0 30 0;
#X connect 28 1 31 0;
#X connect 29 0 28 0;
#X connect 29 0 28 1;
#X connect 30 0 33 0;
#X connect 31 0 34 0;
#X connect 33 0 7 0;
#X connect 34 0 8 0;
#X connect 35 0 18 0;
#X restore 397 -167 pd audio /O;
#X obj 542 -114 s button-stage;
#X obj 542 -167 loadbang;
#X msg 542 -145 1;
#X text 25 -22 ----------------------------------------------------------
\;;
#X obj 247 -167 sample-recorder 1;
#N canvas 0 94 1351 674 lep-output 0;
#X obj 333 112 tgl 15 0 empty empty empty 17 7 0 10 -262144 -1 -1 0
1;
#X obj 609 105 tgl 15 0 empty empty empty 17 7 0 10 -262144 -1 -1 0
1;
#X msg 636 154 14 0 2;
#X msg 696 154 0 0 2;
#X obj 609 126 sel 1;
#X msg 832 148 14 0 2;
#X msg 892 148 0 0 2;
#X obj 832 127 sel 1;
#X obj 333 133 sel 1;
#X msg 1046 393 14 0 2;
#X msg 1106 393 0 0 2;
#X obj 1046 371 sel 1;
#X msg 333 157 14 2 2;
#X msg 393 157 0 2 2;
#X msg 333 182 \; mark-button-r color \$1 \$2 \$3;
#X msg 636 177 \; gate-button-r color \$1 \$2 \$3;
#X msg 832 172 \; loop-button-r color \$1 \$2 \$3;
#X msg 1046 416 \; st-en-lv-button-r color \$1 \$2 \$3;
#X obj 1046 339 tgl 15 0 empty empty empty 17 7 0 10 -262144 -1 -1
0 1;
#X obj 1046 312 r st-en-lv-button;
#X obj 832 106 tgl 15 0 empty empty empty 17 7 0 10 -262144 -1 -1 0
1;
#X msg 828 391 14 0 2;
#X msg 888 391 0 0 2;
#X obj 828 370 sel 1;
#X obj 828 349 tgl 15 0 empty empty empty 17 7 0 10 -262144 -1 -1 0
1;
#X msg 828 415 \; rec-button-r color \$1 \$2 \$3;
#X obj 828 309 r led-rec;
#X msg 1052 148 14 0 2;
#X msg 1112 148 0 0 2;
#X obj 1052 127 sel 1;
#X obj 1052 106 tgl 15 0 empty empty empty 17 7 0 10 -262144 -1 -1
0 1;
#X msg 1052 172 \; lofi-button-r color \$1 \$2 \$3;
#X obj 42 604 r c-p;
#X text 27 575 Display current pad in play stage:;
#X obj 42 637 spigot;
#X obj 107 595 r button-stage;
#X obj 107 616 sel 1;
#X msg 107 637 1;
#X msg 135 637 0;
#X msg 297 608 \; button\$1-r color \$2 \$3 \$4;
#X msg 41 724 1 14 2 2;
#X msg 50 745 1 0 2 2;
#X obj 41 699 sel 1;
#X obj 42 660 s 2button-sel;
#X obj 41 678 r 2button-sel;
#X obj 41 772 s 2button-led;
#X obj 297 588 r 2button-led;
#X obj 131 678 r 2button-sel;
#X obj 131 772 s 2button-led;
#X obj 218 678 r 2button-sel;
#X obj 218 772 s 2button-led;
#X obj 308 678 r 2button-sel;
#X obj 308 772 s 2button-led;
#X obj 394 679 r 2button-sel;
#X obj 394 772 s 2button-led;
#X obj 484 679 r 2button-sel;
#X obj 484 772 s 2button-led;
#X obj 571 679 r 2button-sel;
#X obj 571 772 s 2button-led;
#X obj 661 679 r 2button-sel;
#X obj 661 772 s 2button-led;
#X obj 131 699 sel 2;
#X obj 218 699 sel 3;
#X obj 308 699 sel 4;
#X obj 394 700 sel 5;
#X obj 484 700 sel 6;
#X obj 571 700 sel 7;
#X obj 661 700 sel 8;
#X msg 131 724 2 14 2 2;
#X msg 140 745 2 0 2 2;
#X msg 218 724 3 14 2 2;
#X msg 227 745 3 0 2 2;
#X msg 308 724 4 14 2 2;
#X msg 317 745 4 0 2 2;
#X msg 394 725 5 14 2 2;
#X msg 403 745 5 0 2 2;
#X msg 484 725 6 14 2 2;
#X msg 493 745 6 0 2 2;
#X msg 571 725 7 14 2 2;
#X msg 580 745 7 0 2 2;
#X msg 661 725 8 14 2 2;
#X msg 670 745 8 0 2 2;
#X obj 333 265 ctlout;
#X obj 610 265 ctlout;
#X obj 830 265 ctlout;
#X obj 1050 265 ctlout;
#X obj 829 496 ctlout;
#X obj 1040 480 ctlout;
#X obj 333 64 r mark-led;
#X obj 333 85 button-led mark;
#X obj 609 64 r gate-led;
#X obj 832 65 r loop-led;
#X obj 1052 63 r lofi-led;
#X obj 609 85 button-led gate;
#X obj 832 85 button-led loop;
#X obj 1052 85 button-led lofi;
#X msg 892 237 0 71 1;
#X msg 830 237 127 71 1;
#X msg 671 237 0 70 1;
#X msg 610 237 127 70 1;
#X msg 1112 237 0 69 1;
#X msg 1050 237 127 69 1;
#X msg 393 237 0 68 1;
#X msg 333 237 127 68 1;
#X msg 829 468 127 67 1;
#X msg 891 468 0 67 1;
#X msg 1040 452 127 48 1;
#X msg 1102 452 0 48 1;
#X obj 93 113 tgl 15 0 empty empty empty 17 7 0 10 -262144 -1 -1 0
1;
#X obj 93 134 sel 1;
#X msg 93 158 14 2 2;
#X msg 153 158 0 2 2;
#X obj 93 266 ctlout;
#X obj 93 69 r synth-led;
#X msg 93 183 \; synth-button-r color \$1 \$2 \$3;
#X msg 93 238 127 64 1;
#X msg 153 238 0 64 1;
#X obj 41 807 r 2button-sel;
#X obj 41 901 s 2button-led;
#X obj 131 807 r 2button-sel;
#X obj 131 901 s 2button-led;
#X obj 218 807 r 2button-sel;
#X obj 218 901 s 2button-led;
#X obj 308 807 r 2button-sel;
#X obj 308 901 s 2button-led;
#X obj 394 808 r 2button-sel;
#X obj 394 901 s 2button-led;
#X obj 484 808 r 2button-sel;
#X obj 484 901 s 2button-led;
#X obj 571 808 r 2button-sel;
#X obj 571 901 s 2button-led;
#X obj 661 808 r 2button-sel;
#X obj 661 901 s 2button-led;
#X obj 41 828 sel 9;
#X obj 131 828 sel 10;
#X obj 218 828 sel 11;
#X obj 308 828 sel 12;
#X obj 394 829 sel 13;
#X obj 484 829 sel 14;
#X obj 571 829 sel 15;
#X obj 661 829 sel 16;
#X msg 41 853 9 14 2 2;
#X msg 50 874 9 0 2 2;
#X msg 131 853 10 14 2 2;
#X msg 140 874 10 0 2 2;
#X msg 218 853 11 14 2 2;
#X msg 227 874 11 0 2 2;
#X msg 308 853 12 14 2 2;
#X msg 317 874 12 0 2 2;
#X msg 394 854 13 14 2 2;
#X msg 403 874 13 0 2 2;
#X msg 484 854 14 14 2 2;
#X msg 493 874 14 0 2 2;
#X msg 571 854 15 14 2 2;
#X msg 580 874 15 0 2 2;
#X msg 661 854 16 14 2 2;
#X msg 670 874 16 0 2 2;
#X obj 91 295 r fx-stage;
#X obj 91 316 sel 0;
#X msg 91 341 0 53 1;
#X msg 101 361 0 54 1;
#X obj 93 406 ctlout;
#X obj 171 295 r fx-stage;
#X msg 181 361 0 54 1;
#X obj 173 406 ctlout;
#X obj 251 295 r fx-stage;
#X msg 251 341 0 53 1;
#X obj 253 406 ctlout;
#X obj 331 295 r fx-stage;
#X msg 331 341 0 53 1;
#X msg 341 361 0 54 1;
#X obj 333 406 ctlout;
#X obj 171 316 sel 1;
#X obj 251 316 sel 2;
#X obj 329 315 sel 3;
#X msg 171 341 127 53 1;
#X msg 276 359 127 54 1;
#X msg 109 381 0 55 1;
#X msg 189 381 0 55 1;
#X msg 274 384 0 55 1;
#X msg 349 381 127 55 1;
#X obj 41 937 r 2button-sel;
#X obj 41 1031 s 2button-led;
#X obj 131 937 r 2button-sel;
#X obj 131 1031 s 2button-led;
#X obj 218 937 r 2button-sel;
#X obj 218 1031 s 2button-led;
#X obj 308 937 r 2button-sel;
#X obj 308 1031 s 2button-led;
#X obj 394 938 r 2button-sel;
#X obj 394 1031 s 2button-led;
#X obj 484 938 r 2button-sel;
#X obj 484 1031 s 2button-led;
#X obj 571 938 r 2button-sel;
#X obj 571 1031 s 2button-led;
#X obj 661 938 r 2button-sel;
#X obj 661 1031 s 2button-led;
#X obj 41 958 sel 17;
#X obj 131 958 sel 18;
#X obj 218 958 sel 19;
#X obj 308 958 sel 20;
#X obj 394 959 sel 21;
#X obj 484 959 sel 22;
#X obj 571 959 sel 23;
#X obj 661 959 sel 24;
#X msg 41 983 17 14 2 2;
#X msg 50 1004 17 0 2 2;
#X msg 131 983 18 14 2 2;
#X msg 140 1004 18 0 2 2;
#X msg 218 983 19 14 2 2;
#X msg 227 1004 19 0 2 2;
#X msg 308 983 20 14 2 2;
#X msg 317 1004 20 0 2 2;
#X msg 394 984 21 14 2 2;
#X msg 403 1004 21 0 2 2;
#X msg 484 984 22 14 2 2;
#X msg 493 1004 22 0 2 2;
#X msg 571 984 23 14 2 2;
#X msg 580 1004 23 0 2 2;
#X msg 661 984 24 14 2 2;
#X msg 670 1004 24 0 2 2;
#X obj 761 938 r 2button-sel;
#X obj 761 1031 s 2button-led;
#X obj 761 959 sel 25;
#X msg 761 984 25 14 2 2;
#X msg 770 1004 25 0 2 2;
#X msg 1272 148 14 0 2;
#X msg 1332 148 0 0 2;
#X obj 1272 127 sel 1;
#X obj 1272 106 tgl 15 0 empty empty empty 17 7 0 10 -262144 -1 -1
0 1;
#X obj 1270 265 ctlout;
#X msg 1332 237 0 69 1;
#X msg 1270 237 127 69 1;
#X obj 1272 63 r sync-led;
#X obj 1272 85 button-led sync;
#X msg 1272 172 \; sync-button-r color \$1 \$2 \$3;
#X connect 0 0 8 0;
#X connect 1 0 4 0;
#X connect 2 0 15 0;
#X connect 3 0 15 0;
#X connect 4 0 2 0;
#X connect 4 0 99 0;
#X connect 4 1 3 0;
#X connect 4 1 98 0;
#X connect 5 0 16 0;
#X connect 6 0 16 0;
#X connect 7 0 5 0;
#X connect 7 0 97 0;
#X connect 7 1 6 0;
#X connect 7 1 96 0;
#X connect 8 0 12 0;
#X connect 8 0 103 0;
#X connect 8 1 13 0;
#X connect 8 1 102 0;
#X connect 9 0 17 0;
#X connect 10 0 17 0;
#X connect 11 0 9 0;
#X connect 11 0 106 0;
#X connect 11 1 10 0;
#X connect 11 1 107 0;
#X connect 12 0 14 0;
#X connect 13 0 14 0;
#X connect 18 0 11 0;
#X connect 19 0 18 0;
#X connect 20 0 7 0;
#X connect 21 0 25 0;
#X connect 22 0 25 0;
#X connect 23 0 21 0;
#X connect 23 0 104 0;
#X connect 23 1 22 0;
#X connect 23 1 105 0;
#X connect 24 0 23 0;
#X connect 26 0 24 0;
#X connect 27 0 31 0;
#X connect 28 0 31 0;
#X connect 29 0 27 0;
#X connect 29 0 101 0;
#X connect 29 1 28 0;
#X connect 29 1 100 0;
#X connect 30 0 29 0;
#X connect 32 0 34 0;
#X connect 34 0 43 0;
#X connect 35 0 36 0;
#X connect 36 0 37 0;
#X connect 36 1 38 0;
#X connect 37 0 34 1;
#X connect 38 0 34 1;
#X connect 40 0 45 0;
#X connect 41 0 45 0;
#X connect 42 0 40 0;
#X connect 42 1 41 0;
#X connect 44 0 42 0;
#X connect 46 0 39 0;
#X connect 47 0 61 0;
#X connect 49 0 62 0;
#X connect 51 0 63 0;
#X connect 53 0 64 0;
#X connect 55 0 65 0;
#X connect 57 0 66 0;
#X connect 59 0 67 0;
#X connect 61 0 68 0;
#X connect 61 1 69 0;
#X connect 62 0 70 0;
#X connect 62 1 71 0;
#X connect 63 0 72 0;
#X connect 63 1 73 0;
#X connect 64 0 74 0;
#X connect 64 1 75 0;
#X connect 65 0 76 0;
#X connect 65 1 77 0;
#X connect 66 0 78 0;
#X connect 66 1 79 0;
#X connect 67 0 80 0;
#X connect 67 1 81 0;
#X connect 68 0 48 0;
#X connect 69 0 48 0;
#X connect 70 0 50 0;
#X connect 71 0 50 0;
#X connect 72 0 52 0;
#X connect 73 0 52 0;
#X connect 74 0 54 0;
#X connect 75 0 54 0;
#X connect 76 0 56 0;
#X connect 77 0 56 0;
#X connect 78 0 58 0;
#X connect 79 0 58 0;
#X connect 80 0 60 0;
#X connect 81 0 60 0;
#X connect 88 0 89 0;
#X connect 89 0 0 0;
#X connect 90 0 93 0;
#X connect 91 0 94 0;
#X connect 92 0 95 0;
#X connect 93 0 1 0;
#X connect 94 0 20 0;
#X connect 95 0 30 0;
#X connect 96 0 84 0;
#X connect 97 0 84 0;
#X connect 98 0 83 0;
#X connect 99 0 83 0;
#X connect 100 0 85 0;
#X connect 101 0 85 0;
#X connect 102 0 82 0;
#X connect 103 0 82 0;
#X connect 104 0 86 0;
#X connect 105 0 86 0;
#X connect 106 0 87 0;
#X connect 107 0 87 0;
#X connect 108 0 109 0;
#X connect 109 0 110 0;
#X connect 109 0 115 0;
#X connect 109 1 111 0;
#X connect 109 1 116 0;
#X connect 110 0 114 0;
#X connect 111 0 114 0;
#X connect 113 0 108 0;
#X connect 115 0 112 0;
#X connect 116 0 112 0;
#X connect 117 0 133 0;
#X connect 119 0 134 0;
#X connect 121 0 135 0;
#X connect 123 0 136 0;
#X connect 125 0 137 0;
#X connect 127 0 138 0;
#X connect 129 0 139 0;
#X connect 131 0 140 0;
#X connect 133 0 141 0;
#X connect 133 1 142 0;
#X connect 134 0 143 0;
#X connect 134 1 144 0;
#X connect 135 0 145 0;
#X connect 135 1 146 0;
#X connect 136 0 147 0;
#X connect 136 1 148 0;
#X connect 137 0 149 0;
#X connect 137 1 150 0;
#X connect 138 0 151 0;
#X connect 138 1 152 0;
#X connect 139 0 153 0;
#X connect 139 1 154 0;
#X connect 140 0 155 0;
#X connect 140 1 156 0;
#X connect 141 0 118 0;
#X connect 142 0 118 0;
#X connect 143 0 120 0;
#X connect 144 0 120 0;
#X connect 145 0 122 0;
#X connect 146 0 122 0;
#X connect 147 0 124 0;
#X connect 148 0 124 0;
#X connect 149 0 126 0;
#X connect 150 0 126 0;
#X connect 151 0 128 0;
#X connect 152 0 128 0;
#X connect 153 0 130 0;
#X connect 154 0 130 0;
#X connect 155 0 132 0;
#X connect 156 0 132 0;
#X connect 157 0 158 0;
#X connect 158 0 159 0;
#X connect 158 0 160 0;
#X connect 158 0 177 0;
#X connect 159 0 161 0;
#X connect 160 0 161 0;
#X connect 162 0 172 0;
#X connect 163 0 164 0;
#X connect 165 0 173 0;
#X connect 166 0 167 0;
#X connect 168 0 174 0;
#X connect 169 0 171 0;
#X connect 170 0 171 0;
#X connect 172 0 175 0;
#X connect 172 0 163 0;
#X connect 172 0 178 0;
#X connect 173 0 166 0;
#X connect 173 0 176 0;
#X connect 173 0 179 0;
#X connect 174 0 169 0;
#X connect 174 0 170 0;
#X connect 174 0 180 0;
#X connect 175 0 164 0;
#X connect 176 0 167 0;
#X connect 177 0 161 0;
#X connect 178 0 164 0;
#X connect 179 0 167 0;
#X connect 180 0 171 0;
#X connect 181 0 197 0;
#X connect 183 0 198 0;
#X connect 185 0 199 0;
#X connect 187 0 200 0;
#X connect 189 0 201 0;
#X connect 191 0 202 0;
#X connect 193 0 203 0;
#X connect 195 0 204 0;
#X connect 197 0 205 0;
#X connect 197 1 206 0;
#X connect 198 0 207 0;
#X connect 198 1 208 0;
#X connect 199 0 209 0;
#X connect 199 1 210 0;
#X connect 200 0 211 0;
#X connect 200 1 212 0;
#X connect 201 0 213 0;
#X connect 201 1 214 0;
#X connect 202 0 215 0;
#X connect 202 1 216 0;
#X connect 203 0 217 0;
#X connect 203 1 218 0;
#X connect 204 0 219 0;
#X connect 204 1 220 0;
#X connect 205 0 182 0;
#X connect 206 0 182 0;
#X connect 207 0 184 0;
#X connect 208 0 184 0;
#X connect 209 0 186 0;
#X connect 210 0 186 0;
#X connect 211 0 188 0;
#X connect 212 0 188 0;
#X connect 213 0 190 0;
#X connect 214 0 190 0;
#X connect 215 0 192 0;
#X connect 216 0 192 0;
#X connect 217 0 194 0;
#X connect 218 0 194 0;
#X connect 219 0 196 0;
#X connect 220 0 196 0;
#X connect 221 0 223 0;
#X connect 223 0 224 0;
#X connect 223 1 225 0;
#X connect 224 0 222 0;
#X connect 225 0 222 0;
#X connect 226 0 235 0;
#X connect 227 0 235 0;
#X connect 228 0 226 0;
#X connect 228 0 232 0;
#X connect 228 1 227 0;
#X connect 228 1 231 0;
#X connect 229 0 228 0;
#X connect 231 0 230 0;
#X connect 232 0 230 0;
#X connect 233 0 234 0;
#X connect 234 0 229 0;
#X restore 397 -124 pd lep-output;
#X text 27 302 ----------------------------------------------------------
\;;
#N canvas 0 94 1334 674 fx-manager 0;
#X obj 49 125 catch~ samp_fx_out;
#X obj 273 334 throw~ fx2master;
#X obj 179 13 dust-fx ----------;
#N canvas 0 155 1305 578 manage-fx-buttons 0;
#X obj 281 -7 r c-p;
#X floatatom 172 90 5 0 0 0 - - -, f 5;
#X obj 30 226 r filter-button;
#X obj 30 248 tgl 15 0 empty empty empty 17 7 0 10 -262144 -1 -1 0
1;
#X obj 560 31 s gl-fx-status;
#X obj 560 -7 loadbang;
#X msg 560 12 0;
#X obj 917 91 s gl-fx-status;
#X obj 560 51 r gl-fx-status;
#X floatatom 560 72 5 0 0 0 - - -, f 5;
#X obj 172 -8 r gl-fx-status;
#X obj 172 13 sel 0;
#X obj 204 49 bng 15 250 50 0 empty empty empty 17 7 0 10 -262144 -1
-1;
#X obj 281 110 v c-p-4fx;
#X obj 204 67 v c-p-4fx;
#X msg 172 34 0;
#X obj 172 108 s fx-status;
#X obj 917 35 sel 0;
#X msg 917 59 0;
#X msg 948 59 1;
#X obj 300 226 r dly-button;
#X text 31 2 FX-Stages \; 1 Filter \; 2 Delay \; 3 Bitreduction \;
;
#X obj 30 452 s fx-stage;
#X obj 30 271 sel 1;
#X obj 917 -7 r fx-stage;
#X obj 815 -7 r fx-stage;
#X floatatom 815 23 5 0 0 0 - - -, f 5;
#X obj 150 363 spigot;
#X obj 189 294 r fx-stage;
#X msg 189 338 1;
#X msg 222 338 0;
#X obj 189 316 sel 1;
#X text 34 132 -----------------------------------------------------------
;
#X text 667 2 FX-Mode: \; 1 Regular \; 2 Effect grab \;;
#X text 27 193 Regular Mode:;
#X text 27 493 Effect grab mode:;
#X obj 30 516 r filter-button;
#X obj 220 516 r dly-button;
#X obj 30 661 s fx-stage;
#X obj 30 561 sel 1;
#X msg 30 583 1;
#X msg 64 583 0;
#X obj 219 562 sel 1;
#X msg 253 584 0;
#X msg 219 584 2;
#X obj 219 661 s fx-stage;
#X obj 264 623 spigot;
#X obj 303 554 r fx-stage;
#X obj 303 576 sel 2;
#X msg 303 598 1;
#X msg 336 598 0;
#X obj 74 623 spigot;
#X obj 113 554 r fx-stage;
#X msg 113 598 1;
#X msg 146 598 0;
#X obj 113 576 sel 1;
#X msg 150 385 0;
#X obj 30 373 spigot;
#X obj 69 304 r fx-stage;
#X obj 69 326 sel 1;
#X msg 69 348 0;
#X msg 102 348 1;
#X msg 30 416 1;
#X obj 30 395 del 1;
#X obj 300 248 tgl 15 0 empty empty empty 17 7 0 10 -262144 -1 -1 0
1;
#X obj 300 452 s fx-stage;
#X obj 300 271 sel 1;
#X obj 420 363 spigot;
#X obj 459 294 r fx-stage;
#X msg 459 338 1;
#X msg 492 338 0;
#X msg 420 385 0;
#X obj 300 373 spigot;
#X obj 339 304 r fx-stage;
#X msg 339 348 0;
#X msg 372 348 1;
#X obj 300 395 del 1;
#X obj 339 326 sel 2;
#X obj 459 316 sel 2;
#X msg 300 416 2;
#X obj 570 248 tgl 15 0 empty empty empty 17 7 0 10 -262144 -1 -1 0
1;
#X obj 570 452 s fx-stage;
#X obj 570 271 sel 1;
#X obj 690 363 spigot;
#X obj 729 294 r fx-stage;
#X msg 729 338 1;
#X msg 762 338 0;
#X msg 690 385 0;
#X obj 570 373 spigot;
#X obj 609 304 r fx-stage;
#X msg 609 348 0;
#X msg 642 348 1;
#X obj 570 395 del 1;
#X obj 570 226 r dust-button;
#X obj 609 326 sel 3;
#X obj 729 316 sel 3;
#X msg 570 416 3;
#X obj 815 51 loadbang;
#X msg 815 70 0;
#X obj 815 91 s fx-stage;
#X obj 281 58 spigot;
#X obj 325 -10 r button-stage;
#X obj 325 12 sel 6;
#X msg 325 34 0;
#X msg 359 34 1;
#X msg 346 75 30;
#X text 378 75 number indicates \; synth for fx \;;
#X connect 0 0 100 0;
#X connect 1 0 16 0;
#X connect 2 0 3 0;
#X connect 3 0 23 0;
#X connect 5 0 6 0;
#X connect 6 0 4 0;
#X connect 8 0 9 0;
#X connect 10 0 11 0;
#X connect 11 0 15 0;
#X connect 11 1 12 0;
#X connect 12 0 14 0;
#X connect 14 0 1 0;
#X connect 15 0 1 0;
#X connect 17 0 18 0;
#X connect 17 1 19 0;
#X connect 18 0 7 0;
#X connect 19 0 7 0;
#X connect 20 0 64 0;
#X connect 23 0 57 0;
#X connect 23 0 27 0;
#X connect 24 0 17 0;
#X connect 25 0 26 0;
#X connect 27 0 56 0;
#X connect 28 0 31 0;
#X connect 29 0 27 1;
#X connect 30 0 27 1;
#X connect 31 0 29 0;
#X connect 31 1 30 0;
#X connect 39 0 40 0;
#X connect 39 1 41 0;
#X connect 40 0 38 0;
#X connect 41 0 51 0;
#X connect 42 0 44 0;
#X connect 42 1 43 0;
#X connect 43 0 46 0;
#X connect 44 0 45 0;
#X connect 46 0 45 0;
#X connect 47 0 48 0;
#X connect 48 0 49 0;
#X connect 48 1 50 0;
#X connect 49 0 46 1;
#X connect 50 0 46 1;
#X connect 51 0 38 0;
#X connect 52 0 55 0;
#X connect 53 0 51 1;
#X connect 54 0 51 1;
#X connect 55 0 53 0;
#X connect 55 1 54 0;
#X connect 56 0 22 0;
#X connect 57 0 63 0;
#X connect 58 0 59 0;
#X connect 59 0 60 0;
#X connect 59 1 61 0;
#X connect 60 0 57 1;
#X connect 61 0 57 1;
#X connect 62 0 22 0;
#X connect 63 0 62 0;
#X connect 64 0 66 0;
#X connect 66 0 72 0;
#X connect 66 0 67 0;
#X connect 67 0 71 0;
#X connect 68 0 78 0;
#X connect 69 0 67 1;
#X connect 70 0 67 1;
#X connect 71 0 65 0;
#X connect 72 0 76 0;
#X connect 73 0 77 0;
#X connect 74 0 72 1;
#X connect 75 0 72 1;
#X connect 76 0 79 0;
#X connect 77 0 74 0;
#X connect 77 1 75 0;
#X connect 78 0 69 0;
#X connect 78 1 70 0;
#X connect 79 0 65 0;
#X connect 80 0 82 0;
#X connect 82 0 88 0;
#X connect 82 0 83 0;
#X connect 83 0 87 0;
#X connect 84 0 95 0;
#X connect 85 0 83 1;
#X connect 86 0 83 1;
#X connect 87 0 81 0;
#X connect 88 0 92 0;
#X connect 89 0 94 0;
#X connect 90 0 88 1;
#X connect 91 0 88 1;
#X connect 92 0 96 0;
#X connect 93 0 80 0;
#X connect 94 0 90 0;
#X connect 94 1 91 0;
#X connect 95 0 85 0;
#X connect 95 1 86 0;
#X connect 96 0 81 0;
#X connect 97 0 98 0;
#X connect 98 0 99 0;
#X connect 100 0 13 0;
#X connect 101 0 102 0;
#X connect 102 0 103 0;
#X connect 102 0 105 0;
#X connect 102 1 104 0;
#X connect 103 0 100 1;
#X connect 104 0 100 1;
#X connect 105 0 13 0;
#X restore 13 13 pd manage-fx-buttons;
#X text 12 95 ------------------------------------------------------------
;
#X obj 173 145 r fx-stage;
#X obj 173 180 sel 1;
#X msg 173 202 1;
#X msg 206 201 0;
#X obj 173 145 r fx-stage;
#X obj 173 180 sel 1;
#X msg 173 202 1;
#X msg 206 201 0;
#X obj 334 150 r fx-stage;
#X msg 334 207 1;
#X msg 366 207 0;
#X obj 334 185 sel 2;
#X obj 274 244 delay5sec;
#N canvas 0 92 1351 676 pitchshifter 0;
#X floatatom 424 236 0 0 0 0 - - -;
#X obj 487 507 *~;
#X obj 672 444 line~;
#X text 473 158 PITCH SHIFTER;
#X obj 672 418 pack 0 200;
#X obj 424 292 exp;
#X floatatom 424 318 6 0 0 0 - - -, f 6;
#X obj 424 408 /;
#X obj 551 338 * 0.001;
#X obj 781 514 line~;
#X obj 781 489 pack 0 200;
#X floatatom 781 438 0 0 0 0 - - -;
#X obj 487 533 +~;
#X obj 424 559 cos~;
#X obj 424 586 *~;
#X obj 424 615 +~;
#X obj 511 466 wrap~;
#X obj 718 509 *~;
#X obj 718 542 +~;
#X obj 655 569 cos~;
#X obj 655 596 *~;
#X obj 551 365 t b f;
#X floatatom 424 434 6 0 0 0 - - -, f 6;
#X obj 511 439 +~ 0.5;
#X obj 424 507 -~ 0.5;
#X obj 424 533 *~ 0.5;
#X obj 655 508 -~ 0.5;
#X obj 655 541 *~ 0.5;
#X obj 424 345 - 1;
#X obj 424 266 * 0.05776;
#X obj 424 371 * -1;
#X text 458 235 <-- transposition;
#X text 357 197 (halftones);
#X text 493 309 speed;
#X text 486 326 change;
#X text 686 260 <--window (msec);
#X text 459 401 tape head;
#X obj 424 465 phasor~;
#X obj 781 465 max 1.5;
#X obj 642 288 max 1;
#X text 460 414 rotation freq;
#X obj 68 3 inlet~;
#X obj 424 722 outlet~;
#X obj 324 175 * 48;
#X obj 324 197 - 24;
#X floatatom 642 310 5 0 0 0 - - -, f 5;
#X obj 324 219 i;
#X floatatom 324 241 5 0 0 0 - - -, f 5;
#X obj 641 238 loadbang;
#X obj 781 392 loadbang;
#X msg 781 414 0;
#X obj 90 46 delwrite~ \$0-pitchshifter-INPUT 5000;
#X obj 487 559 vd~ \$0-pitchshifter-INPUT;
#X obj 718 571 vd~ \$0-pitchshifter-INPUT;
#X obj 137 415 r \$0-pitchshifter-dry/wet-s;
#X obj 424 637 *~;
#X obj 137 437 / 127;
#X obj 87 479 t f f;
#X obj 152 507 pack 0 50;
#X obj 152 529 line~;
#X obj 68 627 *~;
#X msg 87 501 1 \$1;
#X obj 87 523 -;
#X obj 87 545 pack 0 50;
#X obj 87 567 line~;
#X obj 324 111 r ctlr1;
#X obj 87 381 r ctlr2;
#X obj 1133 48 inlet;
#X obj 424 701 *~;
#N canvas 11 92 526 600 switcher 0;
#X obj 113 261 t b b;
#X obj 113 295 delay 5;
#X obj 263 387 line~;
#X msg 176 296 0 4;
#X obj 133 476 *~;
#X msg 113 327 0;
#X obj 113 220 bang;
#X msg 406 229 1;
#X msg 359 193 1 4;
#X obj 352 143 t b b b;
#X obj 139 506 outlet~;
#X obj 371 507 outlet;
#X obj 112 48 inlet;
#X obj 353 50 inlet;
#X connect 0 0 1 0;
#X connect 0 1 3 0;
#X connect 1 0 5 0;
#X connect 2 0 4 0;
#X connect 2 0 4 1;
#X connect 3 0 2 0;
#X connect 4 0 10 0;
#X connect 5 0 11 0;
#X connect 6 0 0 0;
#X connect 7 0 11 0;
#X connect 8 0 2 0;
#X connect 9 1 8 0;
#X connect 9 2 7 0;
#X connect 12 0 6 0;
#X connect 13 0 9 0;
#X restore 1133 132 pd switcher;
#X obj 1133 103 sel 0 1;
#X obj 1133 80 tgl 15 0 empty empty empty 17 7 0 10 -262144 -1 -1 0
1;
#X obj 1208 156 switch~;
#X obj 744 111 r ctlr3;
#X msg 641 260 100;
#X obj 755 186 + 100;
#X obj 763 141 * 300;
#X connect 0 0 29 0;
#X connect 1 0 12 0;
#X connect 2 0 1 1;
#X connect 2 0 17 1;
#X connect 4 0 2 0;
#X connect 5 0 6 0;
#X connect 6 0 28 0;
#X connect 7 0 22 0;
#X connect 8 0 21 0;
#X connect 9 0 12 1;
#X connect 9 0 18 1;
#X connect 10 0 9 0;
#X connect 11 0 38 0;
#X connect 12 0 52 0;
#X connect 13 0 14 0;
#X connect 14 0 15 0;
#X connect 15 0 55 0;
#X connect 16 0 17 0;
#X connect 16 0 26 0;
#X connect 17 0 18 0;
#X connect 18 0 53 0;
#X connect 19 0 20 0;
#X connect 20 0 15 1;
#X connect 21 0 7 0;
#X connect 21 1 7 1;
#X connect 22 0 37 0;
#X connect 23 0 16 0;
#X connect 24 0 25 0;
#X connect 25 0 13 0;
#X connect 26 0 27 0;
#X connect 27 0 19 0;
#X connect 28 0 30 0;
#X connect 29 0 5 0;
#X connect 30 0 7 0;
#X connect 37 0 1 0;
#X connect 37 0 24 0;
#X connect 37 0 23 0;
#X connect 38 0 10 0;
#X connect 39 0 8 0;
#X connect 39 0 4 0;
#X connect 39 0 45 0;
#X connect 41 0 51 0;
#X connect 41 0 60 0;
#X connect 43 0 44 0;
#X connect 44 0 46 0;
#X connect 46 0 47 0;
#X connect 46 0 0 0;
#X connect 48 0 74 0;
#X connect 49 0 50 0;
#X connect 50 0 11 0;
#X connect 52 0 14 1;
#X connect 53 0 20 1;
#X connect 54 0 56 0;
#X connect 55 0 68 0;
#X connect 56 0 57 0;
#X connect 57 0 61 0;
#X connect 57 1 58 0;
#X connect 58 0 59 0;
#X connect 59 0 55 1;
#X connect 60 0 68 0;
#X connect 61 0 62 0;
#X connect 62 0 63 0;
#X connect 63 0 64 0;
#X connect 64 0 60 1;
#X connect 65 0 43 0;
#X connect 66 0 57 0;
#X connect 67 0 71 0;
#X connect 68 0 42 0;
#X connect 69 0 68 1;
#X connect 69 1 72 0;
#X connect 70 0 69 0;
#X connect 70 1 69 1;
#X connect 71 0 70 0;
#X connect 73 0 76 0;
#X connect 74 0 39 0;
#X connect 75 0 39 0;
#X connect 76 0 75 0;
#X restore 462 250 pd pitchshifter;
#X obj 564 158 r fx-stage;
#X msg 564 215 1;
#X msg 597 214 0;
#X obj 564 193 sel 3;
#N canvas 0 182 1107 549 analog-filter 0;
#N canvas 0 119 660 577 filter-vcf 0;
#X obj 186 106 inlet~;
#X obj 252 473 outlet~;
#X obj 34 159 *~;
#X obj 430 19 inlet;
#X obj 430 120 pack 0 50;
#X obj 430 142 line~;
#X obj 252 449 clip~ -1 1;
#X obj 252 323 *~ 2;
#X obj 337 362 *~ 2;
#X obj 252 421 *~ 0.5;
#X obj 74 438 *~ -1;
#X obj 270 299 vcf~ 1;
#X obj 304 333 vcf~ 1;
#X obj 524 236 pack 0 50;
#X obj 524 258 line;
#X obj 524 192 * 5;
#X obj 524 280 t f f;
#X obj 430 63 t f f f;
#X obj 186 269 vcf~ 1;
#X obj 391 225 pack 0 50;
#X obj 391 247 line;
#X obj 391 269 t f f;
#X obj 219 298 vcf~ 1;
#X obj 391 181 * 3;
#X obj 285 110 inlet~;
#X obj 290 243 +~ 10;
#X obj 74 469 delwrite~ \$0-feedfeed2 1;
#X obj 34 92 delread~ \$0-feedfeed2 1;
#X obj 186 78 block~ 64;
#X obj 33 128 lop~ 10000, f 12;
#X obj 430 96 * 0.99;
#X obj 391 203 + 1.5;
#X obj 524 214 + 1.5;
#X connect 0 0 11 0;
#X connect 0 0 18 0;
#X connect 2 0 18 0;
#X connect 3 0 17 0;
#X connect 4 0 5 0;
#X connect 5 0 2 1;
#X connect 6 0 1 0;
#X connect 7 0 9 0;
#X connect 7 0 10 0;
#X connect 8 0 9 0;
#X connect 8 0 26 0;
#X connect 9 0 6 0;
#X connect 10 0 26 0;
#X connect 11 1 12 0;
#X connect 12 1 8 0;
#X connect 13 0 14 0;
#X connect 14 0 16 0;
#X connect 15 0 32 0;
#X connect 16 0 11 2;
#X connect 16 1 12 2;
#X connect 17 0 30 0;
#X connect 17 1 15 0;
#X connect 17 2 23 0;
#X connect 18 1 22 0;
#X connect 19 0 20 0;
#X connect 20 0 21 0;
#X connect 21 0 18 2;
#X connect 22 1 7 0;
#X connect 23 0 31 0;
#X connect 24 0 18 1;
#X connect 24 0 22 1;
#X connect 24 0 25 0;
#X connect 25 0 11 1;
#X connect 25 0 12 1;
#X connect 27 0 29 0;
#X connect 29 0 2 0;
#X connect 30 0 4 0;
#X connect 31 0 19 0;
#X connect 32 0 13 0;
#X restore 310 399 pd filter-vcf;
#X obj 309 31 inlet~;
#X obj 310 564 outlet~;
#X obj 354 180 line~;
#X obj 309 53 *~ 0.5;
#X obj 310 537 clip~ -1 1;
#X obj 310 430 *~ 2;
#X obj 543 39 r ctlr2;
#X obj 713 43 inlet;
#X obj 310 464 *~;
#N canvas 11 92 526 600 switcher 0;
#X obj 113 261 t b b;
#X obj 113 295 delay 5;
#X obj 263 387 line~;
#X msg 176 296 0 4;
#X obj 133 476 *~;
#X msg 113 327 0;
#X obj 113 220 bang;
#X msg 406 229 1;
#X msg 359 193 1 4;
#X obj 352 143 t b b b;
#X obj 139 506 outlet~;
#X obj 371 507 outlet;
#X obj 112 48 inlet;
#X obj 353 50 inlet;
#X connect 0 0 1 0;
#X connect 0 1 3 0;
#X connect 1 0 5 0;
#X connect 2 0 4 0;
#X connect 2 0 4 1;
#X connect 3 0 2 0;
#X connect 4 0 10 0;
#X connect 5 0 11 0;
#X connect 6 0 0 0;
#X connect 7 0 11 0;
#X connect 8 0 2 0;
#X connect 9 1 8 0;
#X connect 9 2 7 0;
#X connect 12 0 6 0;
#X connect 13 0 9 0;
#X restore 713 127 pd switcher;
#X obj 713 98 sel 0 1;
#X obj 713 75 tgl 15 0 empty empty empty 17 7 0 10 -262144 -1 -1 0
1;
#X obj 787 151 switch~;
#X obj 353 152 pack 0 50;
#X obj 309 505 saturate~ 0.3;
#X obj 355 221 *~ 5000;
#X obj 355 243 +~ 10;
#X obj 400 64 exp;
#X obj 400 88 - 1;
#X obj 400 110 / 1.75;
#X obj 449 436 * 5;
#X obj 400 33 r ctlr3;
#X obj 449 414 r ctlr1;
#X connect 0 0 6 0;
#X connect 1 0 4 0;
#X connect 3 0 16 0;
#X connect 4 0 0 0;
#X connect 5 0 2 0;
#X connect 6 0 9 0;
#X connect 7 0 0 2;
#X connect 8 0 12 0;
#X connect 9 0 15 0;
#X connect 10 0 9 1;
#X connect 10 1 13 0;
#X connect 11 0 10 0;
#X connect 11 1 10 1;
#X connect 12 0 11 0;
#X connect 14 0 3 0;
#X connect 15 0 5 0;
#X connect 16 0 17 0;
#X connect 17 0 0 1;
#X connect 18 0 19 0;
#X connect 19 0 20 0;
#X connect 20 0 14 0;
#X connect 21 0 15 1;
#X connect 22 0 18 0;
#X connect 23 0 21 0;
#X restore 50 244 pd analog-filter 1;
#X text 252 114 \; \; \; \; \; \; \; \; \; \; \;;
#X text 432 114 \; \; \; \; \; \; \; \; \; \; \;;
#X connect 0 0 23 0;
#X connect 0 0 17 0;
#X connect 0 0 18 0;
#X connect 5 0 6 0;
#X connect 6 0 7 0;
#X connect 6 1 8 0;
#X connect 7 0 23 1;
#X connect 8 0 23 1;
#X connect 9 0 10 0;
#X connect 10 0 11 0;
#X connect 10 1 12 0;
#X connect 13 0 16 0;
#X connect 14 0 17 1;
#X connect 15 0 17 1;
#X connect 16 0 14 0;
#X connect 16 1 15 0;
#X connect 17 0 1 0;
#X connect 18 0 1 0;
#X connect 19 0 22 0;
#X connect 20 0 18 1;
#X connect 21 0 18 1;
#X connect 22 0 20 0;
#X connect 22 1 21 0;
#X connect 23 0 1 0;
#X restore 247 -147 pd fx-manager;
#X text 855 -170 Order of agruments \; 1 Note-number(pitch) \; 2 Velocity
(0=off) \; 3 Lofi-Status \; 4 Sample name \; 5 Sample start point \;
6 Sample length;
#N canvas 397 101 966 561 reset-st-en-lv-mode 0;
#X obj 100 229 s st-en-lv-button;
#X obj 100 31 r c-p;
#X msg 100 84 0;
#X obj 100 58 change;
#X obj 200 57 r st-en-lv-button;
#X obj 157 132 spigot;
#X connect 1 0 3 0;
#X connect 2 0 0 0;
#X connect 3 0 2 0;
#X connect 5 0 0 0;
#X restore 247 -127 pd reset-st-en-lv-mode;
#N canvas 0 154 1333 541 organelle 0;
#N canvas 3 182 1351 586 patchloader 0;
#X msg 225 233 \; pd-main.pd menuclose;
#X obj 185 153 t b i b b;
#X msg 245 193 \; pd dsp 0, f 10;
#X msg 173 341 \; pd dsp 1, f 10;
#X obj 173 315 del 1500;
#X obj 185 121 r b-t-p;
#X msg 67 107 1;
#X obj 65 29 loadbang;
#X text 92 71 disabled because it causes problems to load the directory
\; only works on patchbox os.;
#X obj 125 389 s send-all-vals;
#X obj 79 275 bng 15 250 50 0 empty empty empty 17 7 0 10 -262144 -1
-1;
#X msg 205 269 \; pd open main.pd /media/patch/INTENSO2/patches/\$1
;
#X connect 1 0 9 0;
#X connect 1 1 4 0;
#X connect 1 1 11 0;
#X connect 1 2 0 0;
#X connect 1 3 2 0;
#X connect 4 0 3 0;
#X connect 5 0 1 0;
#X connect 6 0 11 0;
#X connect 10 0 9 0;
#X restore 26 -140 pd patchloader;
#X obj 37 65 r synth;
#X obj 37 94 tgl 15 0 empty empty empty 17 7 0 10 -262144 -1 -1 0 1
;
#X obj 37 157 sel 1;
#X msg 37 179 6;
#X msg 69 179 1;
#X obj 37 212 s button-stage;
#X obj 55 126 s synth-led;
#X obj 606 391 s b-t-p;
#X obj 284 69 r st-en-lv-button;
#X obj 323 92 r button-stage;
#X obj 323 113 sel 6;
#X msg 323 134 1;
#X msg 354 134 0;
#X obj 284 163 spigot;
#X msg 284 233 5;
#X obj 284 282 s button-stage;
#X obj 606 109 unpack f f;
#X obj 606 139 - 47;
#X obj 606 88 stripnote;
#X obj 606 65 notein;
#X obj 645 162 r button-stage;
#X obj 606 245 spigot;
#X msg 645 211 1;
#X msg 682 210 0;
#X obj 645 183 sel 5;
#X obj 652 282 sel 0;
#X msg 684 369 6;
#X obj 684 392 s button-stage;
#X obj 730 369 s st-en-lv-button;
#X msg 730 346 0;
#X obj 284 184 sel 1;
#X obj 606 330 t b f;
#X obj 606 349 f;
#X floatatom 606 372 5 0 0 0 - - -, f 5;
#X obj 684 315 del 1;
#X text 24 -10 -----------------------------------------------------------
;
#X text 19 40 Activating Synth Mode;
#X text 269 40 Activating Patch load mode:;
#X text 564 39 Loading new patch:;
#X obj 172 -139 r send-all-vals;
#X obj 246 -34 s exp;
#X obj 172 -33 s knob1-r;
#X obj 182 -60 s knob2-r;
#X obj 193 -84 s knob3-r;
#X obj 198 -106 s knob4-r;
#X connect 1 0 2 0;
#X connect 2 0 3 0;
#X connect 2 0 7 0;
#X connect 3 0 4 0;
#X connect 3 1 5 0;
#X connect 4 0 6 0;
#X connect 5 0 6 0;
#X connect 9 0 14 0;
#X connect 10 0 11 0;
#X connect 11 0 12 0;
#X connect 11 1 13 0;
#X connect 12 0 14 1;
#X connect 13 0 14 1;
#X connect 14 0 31 0;
#X connect 15 0 16 0;
#X connect 17 0 18 0;
#X connect 18 0 22 0;
#X connect 19 0 17 0;
#X connect 20 0 19 0;
#X connect 20 1 19 1;
#X connect 21 0 25 0;
#X connect 22 0 26 0;
#X connect 22 0 32 0;
#X connect 23 0 22 1;
#X connect 24 0 22 1;
#X connect 25 0 23 0;
#X connect 25 1 24 0;
#X connect 26 1 35 0;
#X connect 27 0 28 0;
#X connect 30 0 29 0;
#X connect 31 0 15 0;
#X connect 32 0 33 0;
#X connect 32 1 33 1;
#X connect 33 0 34 0;
#X connect 34 0 8 0;
#X connect 35 0 27 0;
#X connect 35 0 30 0;
#X connect 40 0 41 0;
#X connect 40 0 42 0;
#X connect 40 0 43 0;
#X connect 40 0 44 0;
#X connect 40 0 45 0;
#X restore 397 -103 pd organelle;
#X obj 50 -71 r button-stage;
#X floatatom 50 -49 5 0 0 0 - - -, f 5;
#X text 667 -168 KEY/BUTTON Stages \; 1 Playing \, editing etc. \;
2 Recording \; 3 Routing FX \; (4.Sequencer ???) \; 5.load Organelle
patches \; 6.play organelle \;;
#N canvas 339 94 450 300 declare-path 0;
#X obj 17 70 declare -path media;
#X obj 17 30 declare -path modules;
#X obj 17 50 declare -path modules/rj;
#X obj 17 10 declare -path fx;
#X obj 17 90 declare -path sequencer;
#X restore 247 -107 pd declare-path;
#N canvas 0 128 1332 606 synth 0;
#N canvas 0 182 1351 586 patchloader 0;
#X obj 185 153 t b i b b;
#X msg 245 193 \; pd dsp 0, f 10;
#X msg 205 341 \; pd dsp 1, f 10;
#X obj 205 315 del 1500;
#X obj 185 121 r b-t-p;
#X msg 67 107 1;
#X obj 65 29 loadbang;
#X text 92 71 disabled because it causes problems to load the directory
\; only works on patchbox os.;
#X obj 185 379 s send-all-vals;
#X msg 522 110 1;
#X msg 555 109 0;
#X obj 522 53 r synth-stage;
#X obj 225 272 s synth-stage;
#X msg 712 110 1;
#X msg 745 109 0;
#X obj 712 53 r synth-stage;
#X msg 912 110 1;
#X msg 945 109 0;
#X obj 912 88 sel 3;
#X obj 912 53 r synth-stage;
#X obj 522 88 sel 1;
#N canvas 0 219 1107 549 brds 0;
#X obj 51 29 inlet~;
#X obj 528 496 clip~ -1 1;
#X obj 713 43 inlet;
#X obj 529 471 *~;
#N canvas 11 92 526 600 switcher 0;
#X obj 113 261 t b b;
#X obj 113 295 delay 5;
#X obj 263 387 line~;
#X msg 176 296 0 4;
#X obj 133 476 *~;
#X msg 113 327 0;
#X obj 113 220 bang;
#X msg 406 229 1;
#X msg 359 193 1 4;
#X obj 352 143 t b b b;
#X obj 139 506 outlet~;
#X obj 371 507 outlet;
#X obj 112 48 inlet;
#X obj 353 50 inlet;
#X connect 0 0 1 0;
#X connect 0 1 3 0;
#X connect 1 0 5 0;
#X connect 2 0 4 0;
#X connect 2 0 4 1;
#X connect 3 0 2 0;
#X connect 4 0 10 0;
#X connect 5 0 11 0;
#X connect 6 0 0 0;
#X connect 7 0 11 0;
#X connect 8 0 2 0;
#X connect 9 1 8 0;
#X connect 9 2 7 0;
#X connect 12 0 6 0;
#X connect 13 0 9 0;
#X restore 713 127 pd switcher;
#X obj 713 98 sel 0 1;
#X obj 713 75 tgl 15 0 empty empty empty 17 7 0 10 -262144 -1 -1 0
1;
#X obj 787 151 switch~;
#X obj 497 537 throw~ outR;
#X obj 483 199 pack 0 0 0;
#X obj 483 223 route 1 2 3 4;
#X obj 491 119 unpack 0 0;
#X obj 481 81 r notes;
#X obj 541 82 r zero_notes;
#X obj 484 143 - 24;
#X obj 483 175 poly 4 1;
#X obj 347 290 voice-brds;
#X obj 126 14 r knob1;
#X obj 195 14 r knob2;
#X obj 264 14 r knob3;
#X obj 334 14 r knob4;
#X obj 434 290 voice-brds;
#X obj 517 290 voice-brds;
#X obj 608 289 voice-brds;
#X obj 498 382 *~ 0.9;
#X connect 1 0 8 0;
#X connect 2 0 6 0;
#X connect 3 0 1 0;
#X connect 4 0 3 1;
#X connect 4 1 7 0;
#X connect 5 0 4 0;
#X connect 5 1 4 1;
#X connect 6 0 5 0;
#X connect 9 0 10 0;
#X connect 10 0 16 0;
#X connect 10 1 21 0;
#X connect 10 2 22 0;
#X connect 10 3 23 0;
#X connect 11 0 14 0;
#X connect 11 1 15 1;
#X connect 12 0 11 0;
#X connect 13 0 11 0;
#X connect 14 0 15 0;
#X connect 15 0 9 0;
#X connect 15 1 9 1;
#X connect 15 2 9 2;
#X connect 16 0 24 0;
#X connect 21 0 24 0;
#X connect 22 0 24 0;
#X connect 23 0 24 0;
#X connect 24 0 3 0;
#X restore 493 230 pd brds 1;
#X obj 712 88 sel 2;
#X connect 0 0 8 0;
#X connect 0 1 3 0;
#X connect 0 2 12 0;
#X connect 0 3 1 0;
#X connect 3 0 2 0;
#X connect 4 0 0 0;
#X connect 5 0 12 0;
#X connect 9 0 21 1;
#X connect 10 0 21 1;
#X connect 11 0 20 0;
#X connect 15 0 22 0;
#X connect 18 0 16 0;
#X connect 18 1 17 0;
#X connect 19 0 18 0;
#X connect 20 0 9 0;
#X connect 20 1 10 0;
#X connect 22 0 13 0;
#X connect 22 1 14 0;
#X restore 26 -140 pd patchloader;
#X obj 37 65 r synth;
#X obj 37 94 tgl 15 0 empty empty empty 17 7 0 10 -262144 -1 -1 0 1
;
#X obj 37 157 sel 1;
#X msg 37 179 6;
#X msg 69 179 1;
#X obj 37 212 s button-stage;
#X obj 55 126 s synth-led;
#X obj 606 391 s b-t-p;
#X obj 284 69 r st-en-lv-button;
#X obj 323 92 r button-stage;
#X obj 323 113 sel 6;
#X msg 323 134 1;
#X msg 354 134 0;
#X obj 284 163 spigot;
#X msg 284 233 5;
#X obj 284 282 s button-stage;
#X obj 606 109 unpack f f;
#X obj 606 139 - 47;
#X obj 606 88 stripnote;
#X obj 606 65 notein;
#X obj 645 162 r button-stage;
#X obj 606 245 spigot;
#X msg 645 211 1;
#X msg 682 210 0;
#X obj 645 183 sel 5;
#X obj 652 282 sel 0;
#X msg 684 369 6;
#X obj 684 392 s button-stage;
#X obj 730 369 s st-en-lv-button;
#X msg 730 346 0;
#X obj 284 184 sel 1;
#X obj 606 330 t b f;
#X obj 606 349 f;
#X floatatom 606 372 5 0 0 0 - - -, f 5;
#X obj 684 315 del 1;
#X text 24 -10 -----------------------------------------------------------
;
#X text 19 40 Activating Synth Mode;
#X text 269 40 Activating Patch load mode:;
#X text 564 39 Loading new patch:;
#X obj 172 -139 r send-all-vals;
#X obj 246 -34 s exp;
#X obj 172 -33 s knob1-r;
#X obj 182 -60 s knob2-r;
#X obj 193 -84 s knob3-r;
#X obj 198 -106 s knob4-r;
#X connect 1 0 2 0;
#X connect 2 0 3 0;
#X connect 2 0 7 0;
#X connect 3 0 4 0;
#X connect 3 1 5 0;
#X connect 4 0 6 0;
#X connect 5 0 6 0;
#X connect 9 0 14 0;
#X connect 10 0 11 0;
#X connect 11 0 12 0;
#X connect 11 1 13 0;
#X connect 12 0 14 1;
#X connect 13 0 14 1;
#X connect 14 0 31 0;
#X connect 15 0 16 0;
#X connect 17 0 18 0;
#X connect 18 0 22 0;
#X connect 19 0 17 0;
#X connect 20 0 19 0;
#X connect 20 1 19 1;
#X connect 21 0 25 0;
#X connect 22 0 26 0;
#X connect 22 0 32 0;
#X connect 23 0 22 1;
#X connect 24 0 22 1;
#X connect 25 0 23 0;
#X connect 25 1 24 0;
#X connect 26 1 35 0;
#X connect 27 0 28 0;
#X connect 30 0 29 0;
#X connect 31 0 15 0;
#X connect 32 0 33 0;
#X connect 32 1 33 1;
#X connect 33 0 34 0;
#X connect 34 0 8 0;
#X connect 35 0 27 0;
#X connect 35 0 30 0;
#X connect 40 0 41 0;
#X connect 40 0 42 0;
#X connect 40 0 43 0;
#X connect 40 0 44 0;
#X connect 40 0 45 0;
#X restore 247 -86 pd synth;
#N canvas 0 94 1366 674 display 0;
#X obj 37 95 s display-status;
#X msg 37 74 1;
#N canvas 296 234 1006 518 highlight 0;
#X obj 223 56 r rotary-;
#X obj 314 56 r rotary+;
#X obj 314 162 f, f 4;
#X obj 350 162 + 1;
#X obj 223 162 f, f 4;
#X floatatom 223 198 5 0 0 0 - - -, f 5;
#X floatatom 314 199 5 0 0 0 - - -, f 5;
#X obj 259 162 - 1;
#X obj 223 262 +;
#X obj 237 234 t b f;
#X floatatom 223 283 5 0 0 0 - - -, f 5;
#X obj 223 302 mod 4;
#X floatatom 223 330 5 0 0 0 - - -, f 5;
#X obj 223 355 s highlight-r;
#X obj 471 -58 r rotary-sel;
#X msg 471 95 0;
#X obj 504 -27 r display-status;
#X msg 504 21 1;
#X msg 536 22 0;
#X obj 471 68 spigot;
#X obj 504 -2 sel 1;
#X obj 81 64 loadbang;
#X msg 81 87 0;
#X connect 0 0 4 0;
#X connect 1 0 2 0;
#X connect 2 0 6 0;
#X connect 2 0 3 0;
#X connect 3 0 2 1;
#X connect 4 0 5 0;
#X connect 4 0 7 0;
#X connect 5 0 8 0;
#X connect 6 0 9 0;
#X connect 7 0 4 1;
#X connect 8 0 10 0;
#X connect 9 0 8 0;
#X connect 9 1 8 1;
#X connect 10 0 11 0;
#X connect 11 0 12 0;
#X connect 12 0 13 0;
#X connect 14 0 19 0;
#X connect 15 0 12 0;
#X connect 15 0 4 1;
#X connect 15 0 2 1;
#X connect 16 0 20 0;
#X connect 17 0 19 1;
#X connect 18 0 19 1;
#X connect 19 0 15 0;
#X connect 20 0 17 0;
#X connect 20 1 18 0;
#X connect 21 0 22 0;
#X connect 22 0 4 0;
#X connect 22 0 2 0;
#X restore 37 141 pd highlight;
#N canvas 0 94 1366 674 main-menu 0;
#X obj 51 482 s display-l1;
#X obj 148 486 s display-l2;
#X obj 258 484 s display-l3;
#X obj 355 484 s display-l4;
#X obj 465 472 s display-l5;
#X msg 51 161 set MAIN_MENU;
#X obj 75 24 r display-status;
#X obj 123 68 sel 1;
#X obj 147 292 f;
#X msg 147 349 set \$1;
#X obj 147 321 makefilename TEMPO:_%d;
#X obj 147 250 r bpm;
#X msg 258 162 set ----;
#X msg 465 159 set ----;
#X msg 355 161 set ----;
#X obj 828 155 r rotary-sel;
#X obj 838 185 r highlight-r;
#X obj 828 334 f;
#X obj 828 370 spigot;
#X obj 880 267 r display-status;
#X obj 880 316 sel 1;
#X msg 880 339 1;
#X msg 922 339 0;
#X obj 828 393 + 2;
#X floatatom 828 436 5 0 0 0 - - -, f 5;
#X obj 828 508 s display-status;
#X obj 838 239 del 5;
#X obj 838 208 t b f;
#X obj 850 270 f;
#X connect 5 0 0 0;
#X connect 6 0 7 0;
#X connect 7 0 5 0;
#X connect 7 0 12 0;
#X connect 7 0 14 0;
#X connect 7 0 13 0;
#X connect 7 0 8 0;
#X connect 8 0 10 0;
#X connect 9 0 1 0;
#X connect 10 0 9 0;
#X connect 11 0 8 0;
#X connect 12 0 2 0;
#X connect 13 0 4 0;
#X connect 14 0 3 0;
#X connect 15 0 17 0;
#X connect 16 0 27 0;
#X connect 17 0 18 0;
#X connect 18 0 23 0;
#X connect 19 0 20 0;
#X connect 20 0 21 0;
#X connect 20 1 22 0;
#X connect 21 0 18 1;
#X connect 22 0 18 1;
#X connect 23 0 24 0;
#X connect 26 0 28 0;
#X connect 27 0 26 0;
#X connect 27 1 28 1;
#X connect 28 0 17 1;
#X restore 36 163 pd main-menu;
#N canvas 0 94 1366 674 sample-mode 0;
#X obj 51 412 s display-l1;
#X obj 167 448 s display-l2;
#X obj 394 421 s display-l3;
#X obj 51 18 r display-status;
#X obj 51 63 sel 2;
#X msg 51 391 set SAMPLE_MODE;
#X msg 167 425 set GATE_ON;
#X msg 394 398 set LOOP_ON;
#X obj 84 774 r display-status;
#X obj 84 799 sel 2;
#X msg 84 822 1;
#X msg 116 823 0;
#X obj 51 869 spigot;
#X obj 51 748 r rotary-sel;
#X obj 84 897 r highlight-r;
#X msg 84 942 1;
#X msg 116 943 0;
#X obj 51 989 spigot;
#X obj 84 919 sel 0;
#X obj 234 774 r display-status;
#X obj 234 799 sel 2;
#X msg 234 822 1;
#X msg 266 823 0;
#X obj 201 869 spigot;
#X obj 201 748 r rotary-sel;
#X obj 234 897 r highlight-r;
#X msg 234 942 1;
#X msg 266 943 0;
#X obj 201 989 spigot;
#X obj 234 919 sel 1;
#X obj 428 772 r display-status;
#X obj 428 797 sel 2;
#X msg 428 820 1;
#X msg 460 821 0;
#X obj 395 867 spigot;
#X obj 395 746 r rotary-sel;
#X obj 428 895 r highlight-r;
#X msg 428 940 1;
#X msg 460 941 0;
#X obj 395 987 spigot;
#X obj 631 769 r display-status;
#X obj 631 794 sel 2;
#X msg 631 817 1;
#X msg 658 815 0;
#X obj 598 864 spigot;
#X obj 598 743 r rotary-sel;
#X obj 631 892 r highlight-r;
#X msg 631 937 1;
#X msg 658 935 0;
#X obj 598 984 spigot;
#X obj 429 917 sel 2;
#X obj 631 914 sel 3;
#X obj 51 1047 bng 50 250 50 0 gate-button gate-button-r GATE 5 18
0 10 -262144 -262144 -66577;
#X obj 201 1046 bng 50 250 50 0 loop-button loop-button-r LOOP 5 18
0 10 -262144 -262144 -66577;
#X obj 395 1045 bng 50 250 50 0 lofi-button lofi-button-r LOFI 5 18
0 10 -262144 -262144 -66577;
#X obj 275 60 tgl 15 0 empty empty empty 17 7 0 10 -262144 -1 -1 0
1;
#X obj 499 58 tgl 15 0 empty empty empty 17 7 0 10 -262144 -1 -1 0
1;
#X obj 275 19 r gate-led;
#X obj 499 17 r loop-led;
#X obj 275 40 button-led gate;
#X obj 499 37 button-led loop;
#X obj 171 18 r display-status;
#X obj 171 63 sel 2;
#X obj 171 95 f;
#X msg 187 405 set GATE_OFF;
#X obj 171 334 sel 0 1;
#X obj 391 18 r display-status;
#X obj 391 63 sel 2;
#X obj 391 95 f;
#X obj 391 298 sel 0 1;
#X obj 275 80 t b f;
#X obj 499 80 t b f;
#X msg 405 379 set LOOP_OFF;
#X obj 204 177 r display-status;
#X obj 204 202 sel 2;
#X msg 204 225 1;
#X msg 232 225 0;
#X obj 171 272 spigot;
#X obj 424 157 r display-status;
#X obj 424 182 sel 2;
#X msg 424 205 1;
#X msg 452 205 0;
#X obj 391 252 spigot;
#X obj 959 58 tgl 15 0 empty empty empty 17 7 0 10 -262144 -1 -1 0
1;
#X obj 851 18 r display-status;
#X obj 851 63 sel 2;
#X obj 851 95 f;
#X obj 851 298 sel 0 1;
#X obj 959 80 t b f;
#X obj 884 157 r display-status;
#X obj 884 182 sel 2;
#X msg 884 205 1;
#X msg 912 205 0;
#X obj 851 252 spigot;
#X msg 865 379 set SYNC_OFF;
#X msg 854 398 set SYNC_ON;
#X obj 959 17 r sync-led;
#X obj 959 37 button-led sync;
#X obj 598 1042 bng 50 250 50 0 sync-button sync-button-r sync 5 18
0 10 -262144 -262144 -66577;
#X obj 854 421 s display-l5;
#X obj 739 58 tgl 15 0 empty empty empty 17 7 0 10 -262144 -1 -1 0
1;
#X obj 631 18 r display-status;
#X obj 631 63 sel 2;
#X obj 631 95 f;
#X obj 631 298 sel 0 1;
#X obj 739 80 t b f;
#X obj 664 157 r display-status;
#X obj 664 182 sel 2;
#X msg 664 205 1;
#X msg 692 205 0;
#X obj 631 252 spigot;
#X obj 739 37 button-led lofi;
#X obj 739 17 r lofi-led;
#X msg 645 379 set LOFI_OFF;
#X msg 634 398 set LOFI_ON;
#X obj 634 421 s display-l4;
#X connect 3 0 4 0;
#X connect 4 0 5 0;
#X connect 5 0 0 0;
#X connect 6 0 1 0;
#X connect 7 0 2 0;
#X connect 8 0 9 0;
#X connect 9 0 10 0;
#X connect 9 1 11 0;
#X connect 10 0 12 1;
#X connect 11 0 12 1;
#X connect 12 0 17 0;
#X connect 13 0 12 0;
#X connect 14 0 18 0;
#X connect 15 0 17 1;
#X connect 16 0 17 1;
#X connect 17 0 52 0;
#X connect 18 0 15 0;
#X connect 18 1 16 0;
#X connect 19 0 20 0;
#X connect 20 0 21 0;
#X connect 20 1 22 0;
#X connect 21 0 23 1;
#X connect 22 0 23 1;
#X connect 23 0 28 0;
#X connect 24 0 23 0;
#X connect 25 0 29 0;
#X connect 26 0 28 1;
#X connect 27 0 28 1;
#X connect 28 0 53 0;
#X connect 29 0 26 0;
#X connect 29 1 27 0;
#X connect 30 0 31 0;
#X connect 31 0 32 0;
#X connect 31 1 33 0;
#X connect 32 0 34 1;
#X connect 33 0 34 1;
#X connect 34 0 39 0;
#X connect 35 0 34 0;
#X connect 36 0 50 0;
#X connect 37 0 39 1;
#X connect 38 0 39 1;
#X connect 39 0 54 0;
#X connect 40 0 41 0;
#X connect 41 0 42 0;
#X connect 41 1 43 0;
#X connect 42 0 44 1;
#X connect 43 0 44 1;
#X connect 44 0 49 0;
#X connect 45 0 44 0;
#X connect 46 0 51 0;
#X connect 47 0 49 1;
#X connect 48 0 49 1;
#X connect 49 0 98 0;
#X connect 50 0 37 0;
#X connect 50 1 38 0;
#X connect 51 0 47 0;
#X connect 51 1 48 0;
#X connect 55 0 70 0;
#X connect 56 0 71 0;
#X connect 57 0 59 0;
#X connect 58 0 60 0;
#X connect 59 0 55 0;
#X connect 60 0 56 0;
#X connect 61 0 62 0;
#X connect 62 0 63 0;
#X connect 63 0 77 0;
#X connect 64 0 1 0;
#X connect 65 0 64 0;
#X connect 65 1 6 0;
#X connect 66 0 67 0;
#X connect 67 0 68 0;
#X connect 68 0 82 0;
#X connect 69 0 72 0;
#X connect 69 1 7 0;
#X connect 70 0 63 0;
#X connect 70 1 63 1;
#X connect 71 0 68 0;
#X connect 71 1 68 1;
#X connect 72 0 2 0;
#X connect 73 0 74 0;
#X connect 74 0 75 0;
#X connect 74 1 76 0;
#X connect 75 0 77 1;
#X connect 76 0 77 1;
#X connect 77 0 65 0;
#X connect 78 0 79 0;
#X connect 79 0 80 0;
#X connect 79 1 81 0;
#X connect 80 0 82 1;
#X connect 81 0 82 1;
#X connect 82 0 69 0;
#X connect 83 0 88 0;
#X connect 84 0 85 0;
#X connect 85 0 86 0;
#X connect 86 0 93 0;
#X connect 87 0 94 0;
#X connect 87 1 95 0;
#X connect 88 0 86 0;
#X connect 88 1 86 1;
#X connect 89 0 90 0;
#X connect 90 0 91 0;
#X connect 90 1 92 0;
#X connect 91 0 93 1;
#X connect 92 0 93 1;
#X connect 93 0 87 0;
#X connect 94 0 99 0;
#X connect 95 0 99 0;
#X connect 96 0 97 0;
#X connect 97 0 83 0;
#X connect 100 0 105 0;
#X connect 101 0 102 0;
#X connect 102 0 103 0;
#X connect 103 0 110 0;
#X connect 104 0 113 0;
#X connect 104 1 114 0;
#X connect 105 0 103 0;
#X connect 105 1 103 1;
#X connect 106 0 107 0;
#X connect 107 0 108 0;
#X connect 107 1 109 0;
#X connect 108 0 110 1;
#X connect 109 0 110 1;
#X connect 110 0 104 0;
#X connect 111 0 100 0;
#X connect 112 0 111 0;
#X connect 113 0 115 0;
#X connect 114 0 115 0;
#X restore 36 184 pd sample-mode;
#N canvas 0 94 1366 674 rec-mode 0;
#X obj 51 192 s display-l1;
#X obj 168 186 s display-l2;
#X obj 298 184 s display-l3;
#X obj 405 184 s display-l4;
#X obj 528 172 s display-l5;
#X obj 75 24 r display-status;
#X msg 51 121 set REC_MODE;
#X msg 168 118 set Choose_Pad...;
#X msg 298 122 set ---;
#X msg 405 121 set ---;
#X msg 528 119 set ---;
#X obj 123 68 sel 3;
#X connect 5 0 11 0;
#X connect 6 0 0 0;
#X connect 7 0 1 0;
#X connect 8 0 2 0;
#X connect 9 0 3 0;
#X connect 10 0 4 0;
#X connect 11 0 6 0;
#X connect 11 0 7 0;
#X connect 11 0 8 0;
#X connect 11 0 9 0;
#X connect 11 0 10 0;
#X restore 36 205 pd rec-mode;
#X obj 37 23 loadbang;
#X obj 37 46 del 1500;
#X obj 110 20 r menu-button;
#X obj 110 43 sel 1;
#X connect 1 0 0 0;
#X connect 6 0 7 0;
#X connect 7 0 1 0;
#X connect 8 0 9 0;
#X connect 9 0 1 0;
#X restore 247 -65 pd display;
#N canvas 0 94 1349 600 sequencer 0;
#X obj 360 204 metro;
#X obj 107 139 tgl 15 0 empty empty on/off 17 7 0 10 -262144 -1 -1
1 1;
#X obj 485 214 s seq-speed;
#X obj 402 38 loadbang;
#X obj 402 117 swap 60000;
#X obj 402 146 /;
#X text 470 117 BPM to Millesconeds;
#X obj 517 162 s bpm;
#X obj 425 93 f;
#X obj 360 243 s clock;
#X obj 109 55 ctlin 16, f 6;
#X obj 507 57 + 60;
#X msg 402 61 95;
#X obj 110 121 hsl 95 15 0 127 0 0 empty empty empty -2 -8 0 10 -262144
-1 -1 6200 1;
#X obj 390 178 / 4;
#X obj 163 140 bng 15 250 50 0 reset-seq empty reset 17 7 0 10 -262144
-1 -1;
#X connect 0 0 9 0;
#X connect 1 0 0 0;
#X connect 3 0 12 0;
#X connect 4 0 5 0;
#X connect 4 1 5 1;
#X connect 5 0 2 0;
#X connect 5 0 14 0;
#X connect 8 0 4 0;
#X connect 8 0 7 0;
#X connect 10 0 13 0;
#X connect 11 0 8 0;
#X connect 12 0 8 0;
#X connect 13 0 11 0;
#X connect 14 0 0 1;
#X coords 0 -1 1 1 120 60 1 100 100;
#X restore 30 6 pd sequencer;
#X obj 29 535 s notes2seq;
#X obj 849 328 load_sample 1.wav 1.txt;
#X obj 29 331 step_sequencer sq1 48;
#X obj 30 107 sampler-voice2 1;
#X obj 153 6 save-module;
#X obj 1010 328 load_sample 2.wav 2.txt;
#X obj 849 398 load_sample 3.wav 3.txt;
#X obj 1009 398 load_sample 4.wav 4.txt;
#X obj 849 464 load_sample 5.wav 5.txt;
#X obj 1009 464 load_sample 6.wav 6.txt;
#X obj 1169 328 load_sample 7.wav 7.txt;
#X obj 1169 398 load_sample 8.wav 8.txt;
#X obj 1169 464 load_sample 9.wav 9.txt;
#X obj 1330 328 load_sample 10.wav 10.txt;
#X obj 1329 398 load_sample 11.wav 11.txt;
#X obj 1329 464 load_sample 12.wav 12.txt;
#X text 25 78 ----------------------------------------------------------
\;;
#X obj 29 765 s notes2seq;
#X obj 29 561 step_sequencer sq2 49;
#X obj 849 530 load_sample 13.wav 13.txt;
#X obj 1010 530 load_sample 14.wav 14.txt;
#X obj 1169 530 load_sample 15.wav 15.txt;
#X obj 1330 530 load_sample 16.wav 16.txt;
#X obj 849 600 load_sample 17.wav 17.txt;
#X obj 1009 600 load_sample 18.wav 18.txt;
#X obj 1169 600 load_sample 19.wav 19.txt;
#X obj 1329 600 load_sample 20.wav 20.txt;
#X obj 849 666 load_sample 21.wav 21.txt;
#X obj 1009 666 load_sample 22.wav 22.txt;
#X obj 1169 666 load_sample 23.wav 23.txt;
#X obj 1329 666 load_sample 24.wav 24.txt;
#X obj 241 6 mixer;
#X obj 303 107 sampler-voice2 2;
#X obj 576 107 sampler-voice2 3;
#X obj 849 107 sampler-voice2 4;
#X connect 3 0 4 0;
#X connect 5 0 6 0;
#X connect 6 0 4 0;
#X connect 9 0 10 0;
#X connect 10 0 8 0;
#X connect 19 0 20 0;
#X connect 28 0 26 0;
#X connect 44 0 43 0;
