#N canvas 0 94 1366 674 10;
#X obj 441 533 hip~ 5;
#X text 574 571 Sample Master Volume;
#X text 594 943 Audio out to Audio I/O Subpatch;
#N canvas 683 125 450 300 lofi 0;
#X obj 45 30 inlet~;
#X obj 45 240 outlet~;
#X obj 45 146 c_xfade;
#X obj 65 97 crusty_dac;
#X obj 186 76 tgl 15 0 empty empty empty 17 7 0 10 -262144 -1 -1 0
1;
#X obj 186 30 inlet;
#X connect 0 0 3 0;
#X connect 0 0 2 0;
#X connect 2 0 1 0;
#X connect 3 0 2 1;
#X connect 4 0 2 2;
#X connect 5 0 4 0;
#X restore 440 409 pd lofi;
#X text 490 401 adds lofi-effect;
#X obj 516 909 throw~ samp_fx_out;
#N canvas 749 299 611 399 fx-routing 0;
#X obj 31 10 inlet~;
#X obj 31 260 outlet~;
#X obj 128 141 vline~;
#X obj 113 168 *~;
#X obj 68 141 vline~;
#X obj 53 168 *~;
#X obj 74 59 bng 15 250 50 0 empty empty empty 17 7 0 10 -262144 -1
-1;
#X obj 139 77 bng 15 250 50 0 empty empty empty 17 7 0 10 -262144 -1
-1;
#X msg 68 109 1 5;
#X msg 96 109 0 5;
#X msg 128 109 1 5;
#X msg 156 109 0 5;
#X obj 121 260 outlet~;
#X obj 79 10 loadbang;
#X obj 160 12 inlet;
#X obj 160 33 sel 0;
#X connect 0 0 5 0;
#X connect 0 0 3 0;
#X connect 2 0 3 1;
#X connect 3 0 12 0;
#X connect 4 0 5 1;
#X connect 5 0 1 0;
#X connect 6 0 8 0;
#X connect 6 0 9 0;
#X connect 7 0 10 0;
#X connect 7 0 11 0;
#X connect 8 0 4 0;
#X connect 9 0 2 0;
#X connect 10 0 2 0;
#X connect 11 0 4 0;
#X connect 13 0 6 0;
#X connect 14 0 15 0;
#X connect 15 0 6 0;
#X connect 15 1 7 0;
#X restore 463 885 pd fx-routing;
#X text 554 845 route sample-out to fx or master;
#X text 560 879 Audio out to FX Subpatch;
#X obj 439 36 r \$1wav-name;
#X obj 440 688 *~;
#X obj 454 661 vline~;
#X msg 497 625 1 5;
#X msg 454 608 0 5;
#X obj 497 599 del 6;
#X obj 811 242 sel 0;
#X obj 553 774 r fx-status;
#X floatatom 515 778 5 0 0 0 - - -, f 5;
#X floatatom 553 797 5 0 0 0 - - -, f 5;
#X obj 515 843 ==;
#X obj 553 821 t b f;
#X obj 515 799 f;
#X obj 440 943 throw~ samp-sp_voice_out;
#X obj 439 341 tabread4~;
#X obj 469 310 line~;
#X obj 510 143 t b b;
#X obj 471 269 pack 0;
#X obj 536 269 pack 0 0;
#X obj 479 371 r \$1lofi;
#X obj 471 97 f;
#X floatatom 484 170 25 0 0 0 - - -, f 25;
#X floatatom 491 219 25 0 0 0 - - -, f 25;
#X obj 491 195 f;
#X obj 469 253 +;
#X obj 515 752 r \$1sendchange;
#X obj 934 124 s \$1trigger_sel100;
#X obj 457 571 r \$1trigger_sel100;
#X obj 486 66 r \$1sample-start;
#X obj 721 118 s \$1trigger-del6;
#X obj 510 93 r \$1trigger-del6;
#X obj 37 260 sel 1;
#X msg 37 283 100;
#X msg 70 283 0;
#X obj 109 225 hsl 80 15 0 127 0 1 empty \$1volume-r volume 85 7 0
10 -262144 -1 -1 7900 1;
#X obj 180 492 / 127;
#X obj 106 200 hradio 15 1 0 8 empty empty 1/4_to_sync 0 -8 0 10 -262144
-1 -1 3;
#X obj 112 713 s \$1lofi;
#X obj 120 689 s \$1pitch1;
#X obj 274 600 s \$1sync;
#X floatatom 228 128 5 0 0 0 TEMPO - -, f 5;
#X obj 550 143 r \$1sample-length2;
#X obj 265 456 s \$1seq-speed;
#X obj 106 159 cnv 15 190 25 empty empty empty 20 12 0 14 -228856 -66577
0;
#X obj 112 164 tgl 15 0 empty \$1lofi-r LOFI 17 7 0 10 -262144 -1 -1
0 1;
#X obj 155 164 tgl 15 0 empty \$1sync-r SYNC 17 7 0 10 -262144 -1 -1
1 1;
#X obj 106 119 cnv 15 86 32 empty empty empty 20 12 0 14 -261234 -66577
0;
#X obj 109 123 cnv 15 80 25 empty empty empty 20 12 0 14 -228856 -66577
0;
#X obj 112 128 tgl 15 0 empty empty play/stop 17 7 0 10 -262144 -1
-1 0 1;
#N canvas 478 134 610 392 calc-pitch 0;
#X obj 175 5 inlet;
#X obj 194 287 outlet;
#X obj 175 61 / 44.1;
#X obj 194 233 *;
#X floatatom 310 50 5 0 0 0 - - -, f 5;
#X obj 310 29 r \$1pitch1;
#X obj 238 6 r \$1sync;
#X obj 294 173 f;
#X msg 225 197 1;
#X obj 238 51 sel 1;
#X obj 194 198 f;
#X obj 194 263 max 150;
#X obj 175 84 t b f f;
#X obj 299 131 t b b f;
#X obj 209 151 t b b b;
#X obj 259 208 spigot;
#X obj 238 29 t f f;
#X obj 310 93 f;
#X text 249 262 to prevent overpitching - running too fast.;
#X connect 0 0 2 0;
#X connect 2 0 12 0;
#X connect 3 0 11 0;
#X connect 4 0 17 0;
#X connect 5 0 4 0;
#X connect 6 0 16 0;
#X connect 7 0 15 0;
#X connect 8 0 3 1;
#X connect 9 0 17 0;
#X connect 9 1 14 0;
#X connect 10 0 3 0;
#X connect 11 0 1 0;
#X connect 12 1 10 0;
#X connect 13 0 10 0;
#X connect 13 1 7 0;
#X connect 13 2 7 1;
#X connect 14 0 10 0;
#X connect 14 2 8 0;
#X connect 15 0 3 1;
#X connect 16 0 9 0;
#X connect 16 1 15 1;
#X connect 17 0 13 0;
#X restore 591 240 pd calc-pitch;
#X floatatom 605 278 25 0 0 0 - - -, f 25;
#N canvas 0 94 450 300 pitch 0;
#X obj 209 28 r seq-speed;
#X floatatom 209 59 5 0 0 0 - - -, f 5;
#X obj 209 163 *;
#X obj 209 138 f;
#X obj 244 140 t b f;
#X floatatom 209 290 5 0 0 0 - - -, f 5;
#X obj 244 117 + 1;
#X obj 209 311 s \$1pitch1;
#X obj 209 269 /;
#X obj 214 242 t b f;
#X obj 174 8 r \$1seq-speed;
#X obj 214 222 / 44.1;
#X obj 214 200 r \$1sample-length2;
#X obj 244 54 r \$1measure-sync;
#X connect 0 0 1 0;
#X connect 1 0 3 0;
#X connect 2 0 8 0;
#X connect 3 0 2 0;
#X connect 4 0 3 0;
#X connect 4 1 2 1;
#X connect 5 0 7 0;
#X connect 6 0 4 0;
#X connect 8 0 5 0;
#X connect 9 0 8 0;
#X connect 9 1 8 1;
#X connect 10 0 1 0;
#X connect 11 0 9 0;
#X connect 12 0 11 0;
#X connect 13 0 6 0;
#X restore 20 -261 pd pitch;
#X text 198 -266 Order of agruments \; 1 Note-number(pitch) \; 2 Velocity
(0=off) \; 3 Lofi-Status \; 4 Sample name \; 5 Sample start point \;
6 Sample length \; 7 Volume \; 8 Pitch \; 9 Sync \; 10 Total Sample
length \;;
#X obj 228 16 r seq-speed;
#N canvas 0 94 1014 656 sample-end 0;
#X obj 160 144 metro;
#X obj 150 121 tgl 15 0 empty empty empty 17 7 0 10 -262144 -1 -1 0
1;
#X obj 158 197 f;
#X obj 186 197 + 1;
#X msg 117 121 0;
#X msg 192 118 tempo 100 samp;
#X obj 158 247 * 100;
#X obj 262 271 r \$1end;
#X obj 158 517 >;
#X obj 173 471 - 100;
#X obj 192 92 loadbang;
#X obj 117 50 r \$1startplay;
#X msg 134 77 1;
#X obj 158 566 sel 1;
#X obj 158 587 s \$1sample-end;
#X obj 204 50 r \$1endplay;
#X msg 204 71 0;
#X text 321 50 In this subpatch the end of the sample is created to
prevent an abrubt end of the sample. to prevent clicking.;
#X obj -153 541 s pitched-end;
#X obj -153 541 s pitched-end;
#X obj -153 541 s pitched-end;
#X obj -153 541 s pitched-end;
#X obj -153 541 s pitched-end;
#X obj -153 541 s pitched-end;
#X obj -153 541 s pitched-end;
#X obj -153 541 s pitched-end;
#X obj -153 541 s pitched-end;
#X obj -153 541 s pitched-end;
#X obj -153 541 s pitched-end;
#X obj 372 265 r \$1pitched-end;
#X obj 299 310 r \$1sync;
#X text 471 266 This is the changed end for the pitched samples.;
#X text 259 584 This messages to the mange-buttons-patch and signals
that the sample has ended.;
#X text 218 472 Stops 100 samples earlier to prevent clicking;
#X floatatom 200 503 35 0 0 0 - - -, f 35;
#X obj 227 211 r \$1startplay;
#X obj 247 412 spigot;
#X msg 299 356 1;
#X obj 299 333 sel 0;
#X msg 327 356 0;
#X obj 247 306 f;
#X obj 409 310 r \$1sync;
#X obj 337 211 r \$1startplay;
#X obj 357 412 spigot;
#X obj 357 306 f;
#X obj 227 283 bng 15 250 50 0 empty empty empty 17 7 0 10 -262144
-1 -1;
#X obj 337 283 bng 15 250 50 0 empty empty empty 17 7 0 10 -262144
-1 -1;
#X obj 864 390 *;
#X floatatom 864 425 15 0 0 0 - - -, f 15;
#X obj 874 351 t b f;
#X obj 860 116 / 44.1;
#X obj 923 114 r seq-speed;
#X obj 923 154 /;
#X floatatom 923 197 5 0 0 0 - - -, f 5;
#X obj 860 155 t f f;
#X obj 923 266 s \$1pitch1;
#X obj 874 326 r pitch1;
#X obj 864 465 s \$1pitched-end;
#X obj 864 445 max 11000;
#X obj 846 51 r \$1sample-length2;
#X connect 0 0 2 0;
#X connect 1 0 0 0;
#X connect 2 0 3 0;
#X connect 2 0 6 0;
#X connect 3 0 2 1;
#X connect 4 0 2 0;
#X connect 5 0 0 0;
#X connect 6 0 8 0;
#X connect 7 0 40 1;
#X connect 8 0 13 0;
#X connect 9 0 8 1;
#X connect 9 0 34 0;
#X connect 10 0 5 0;
#X connect 11 0 4 0;
#X connect 11 0 12 0;
#X connect 12 0 1 0;
#X connect 13 0 14 0;
#X connect 15 0 16 0;
#X connect 16 0 1 0;
#X connect 29 0 44 1;
#X connect 30 0 38 0;
#X connect 35 0 45 0;
#X connect 36 0 9 0;
#X connect 37 0 36 1;
#X connect 38 0 37 0;
#X connect 38 1 39 0;
#X connect 39 0 36 1;
#X connect 40 0 36 0;
#X connect 41 0 43 1;
#X connect 42 0 46 0;
#X connect 43 0 9 0;
#X connect 44 0 43 0;
#X connect 45 0 40 0;
#X connect 46 0 44 0;
#X connect 47 0 48 0;
#X connect 48 0 58 0;
#X connect 49 0 47 0;
#X connect 49 1 47 1;
#X connect 50 0 54 0;
#X connect 51 0 52 0;
#X connect 52 0 53 0;
#X connect 53 0 49 0;
#X connect 53 0 55 0;
#X connect 54 1 52 1;
#X connect 56 0 49 0;
#X connect 58 0 57 0;
#X connect 59 0 50 0;
#X connect 59 0 47 0;
#X restore 20 -241 pd sample-end;
#X obj 921 360 s \$1startplay;
#X obj 930 336 s \$1endplay;
#X obj 42 50 loadbang;
#X msg 42 73 3;
#X obj 761 -54 sel 1;
#X obj 729 -175 t b b;
#X obj 761 -129 f;
#X obj 761 -104 != 0;
#X obj 761 -76 tgl 15 0 empty empty empty 17 7 0 10 -262144 -1 -1 1
1;
#X obj 761 -154 del 1;
#X obj 729 -222 - 47;
#X obj 729 -273 r notes2;
#X obj 789 -273 r notes2seq;
#X obj 729 -200 sel \$1;
#X obj 321 500 loadbang;
#X msg 321 523 0;
#X obj 45 336 s notes2;
#N canvas 0 94 985 580 sample-start+length 0;
#X obj 20 106 tabread;
#X floatatom 20 133 14 0 0 0 - - -, f 14;
#X obj 52 73 set-sample-text;
#X obj 20 41 t b f;
#X msg 20 74 1;
#X obj 20 296 tabread;
#X floatatom 20 323 14 0 0 0 - - -, f 14;
#X obj 52 263 set-sample-text;
#X obj 20 231 t b f;
#X msg 20 264 2;
#X obj 20 157 s \$1sample-start;
#X obj 20 347 s \$1sample-length2;
#X text 108 14 This section reads the sample-start in samples \; from
an array which is in the sample-load-section \;;
#X text 109 204 This section reads the sample-length in samples \;
from an array which is in the sample-load-section \;;
#X obj 20 17 r \$1sel_sample;
#X obj 20 209 r \$1sel_sample;
#X connect 0 0 1 0;
#X connect 1 0 10 0;
#X connect 2 0 0 0;
#X connect 3 0 4 0;
#X connect 3 1 2 0;
#X connect 4 0 0 0;
#X connect 5 0 6 0;
#X connect 6 0 11 0;
#X connect 7 0 5 0;
#X connect 8 0 9 0;
#X connect 8 1 7 0;
#X connect 9 0 5 0;
#X connect 14 0 3 0;
#X connect 15 0 8 0;
#X restore 20 -221 pd sample-start+length;
#N canvas 613 152 450 300 select-sample 0;
#X obj 33 141 s \$1wav-name;
#X obj 33 60 change;
#X obj 33 107 set-sample;
#X obj 44 84 s \$1sendchange;
#X text 135 38 This section receives a number which \; which will be
transformed into a message \; for the tabread to load a specific sample
\;;
#X obj 33 35 r \$1sel_sample;
#X connect 1 0 2 0;
#X connect 1 0 3 0;
#X connect 2 0 0 0;
#X connect 5 0 1 0;
#X restore 20 -201 pd select-sample;
#X obj 309 364 s \$1sel_sample;
#X obj 200 164 tgl 15 0 empty empty GATE 17 7 0 10 -262144 -1 -1 0
1;
#X obj 249 164 tgl 15 0 empty empty LOOP 17 7 0 10 -262144 -1 -1 0
1;
#X floatatom 208 -66 5 -12 12 0 PITCH - -, f 5;
#X floatatom 299 129 5 -12 12 0 PITCH - -, f 5;
#X obj 109 245 hsl 80 15 1.27 127 1 0 empty \$1start+-r start+ 85 7
0 10 -262144 -1 -1 0 1;
#X obj 318 565 s \$1measure-sync;
#X obj 364 10 loadbang;
#X obj 26 134 loadbang;
#X msg 26 157 0;
#X obj 364 33 del 500;
#X obj 109 265 hsl 80 15 1.27 127 1 0 \$1hipass \$1hipass-r hi-pass
85 7 0 10 -262144 -1 -1 4600 1;
#X obj 181 568 *;
#X obj 180 544 t f f;
#X obj 180 599 sig~;
#X obj 180 625 lop~ 2;
#X obj 180 658 s~ \$1volume;
#X obj 454 773 r~ \$1volume;
#X obj 440 803 *~;
#X obj 510 465 mtof;
#X obj 513 439 * 1;
#X obj 729 -243 unpack f f f;
#X floatatom 814 -154 5 0 0 0 - - -, f 5;
#X obj 843 -24 t b b b b b b b;
#X obj 906 124 f;
#X obj 825 26 del 6;
#X obj 911 35 del 5;
#X obj 479 493 f;
#X obj 465 462 del 2;
#X obj 232 201 nbx 2 14 1 24 0 0 empty empty sample 0 -8 0 10 -262144
-1 -1 12 256;
#X obj 351 176 + 1;
#X msg 364 73 0;
#X obj 309 300 + 0;
#X obj 486 691 c_ead 3 4;
#X obj 471 718 *~;
#X floatatom 511 662 5 0 0 0 - - -, f 5;
#X floatatom 544 639 5 0 0 0 - - -, f 5;
#X obj 247 225 hsl 80 15 0 127 0 1 empty \$1attack-r attack 85 7 0
10 -262144 -1 -1 0 1;
#X obj 247 245 hsl 80 15 0 127 0 1 empty \$1decay-r decay 85 7 0 10
-262144 -1 -1 7500 1;
#X obj 287 266 tgl 15 0 empty empty env-on/off 17 7 0 10 -262144 -1
-1 0 1;
#X obj 439 749 c_xfade;
#X obj 358 642 pack 0 10;
#X obj 544 661 * 2;
#X obj 918 208 min 24;
#X floatatom 915 275 5 0 0 0 - - -, f 5;
#X connect 0 0 10 0;
#X connect 3 0 0 0;
#X connect 9 0 23 0;
#X connect 10 0 117 0;
#X connect 10 0 123 0;
#X connect 11 0 10 1;
#X connect 12 0 11 0;
#X connect 13 0 11 0;
#X connect 14 0 12 0;
#X connect 14 0 116 0;
#X connect 15 0 13 0;
#X connect 16 0 18 0;
#X connect 17 0 21 0;
#X connect 18 0 20 0;
#X connect 19 0 6 1;
#X connect 20 0 21 0;
#X connect 20 1 19 1;
#X connect 21 0 19 0;
#X connect 23 0 3 0;
#X connect 24 0 23 0;
#X connect 25 0 32 0;
#X connect 25 1 29 0;
#X connect 26 0 24 0;
#X connect 27 0 24 0;
#X connect 28 0 3 1;
#X connect 29 0 26 0;
#X connect 29 0 30 0;
#X connect 30 0 33 1;
#X connect 31 0 33 0;
#X connect 32 0 31 0;
#X connect 33 0 27 0;
#X connect 34 0 17 0;
#X connect 36 0 13 0;
#X connect 36 0 14 0;
#X connect 36 0 111 0;
#X connect 37 0 29 1;
#X connect 39 0 25 0;
#X connect 40 0 41 0;
#X connect 40 1 42 0;
#X connect 41 0 80 0;
#X connect 42 0 80 0;
#X connect 43 0 44 0;
#X connect 44 0 96 0;
#X connect 45 0 89 0;
#X connect 49 0 51 0;
#X connect 50 0 32 1;
#X connect 50 0 58 0;
#X connect 53 0 46 0;
#X connect 54 0 48 0;
#X connect 57 0 40 0;
#X connect 58 0 27 1;
#X connect 58 0 59 0;
#X connect 62 0 49 0;
#X connect 66 0 67 0;
#X connect 67 0 45 0;
#X connect 68 0 106 0;
#X connect 68 1 15 0;
#X connect 69 1 73 0;
#X connect 70 0 71 0;
#X connect 71 0 72 0;
#X connect 72 0 68 0;
#X connect 73 0 70 0;
#X connect 74 0 77 0;
#X connect 75 0 104 0;
#X connect 76 0 104 0;
#X connect 77 0 69 0;
#X connect 78 0 79 0;
#X connect 79 0 48 0;
#X connect 90 0 93 0;
#X connect 91 0 92 0;
#X connect 92 0 43 0;
#X connect 93 0 114 0;
#X connect 94 0 103 0;
#X connect 95 0 97 0;
#X connect 96 0 95 0;
#X connect 96 1 95 1;
#X connect 97 0 98 0;
#X connect 98 0 99 0;
#X connect 100 0 101 1;
#X connect 101 0 22 0;
#X connect 102 0 110 1;
#X connect 103 0 102 0;
#X connect 104 0 74 0;
#X connect 104 1 70 1;
#X connect 104 2 105 0;
#X connect 105 0 107 1;
#X connect 106 0 108 0;
#X connect 106 5 109 0;
#X connect 106 6 35 0;
#X connect 107 0 126 0;
#X connect 108 0 38 0;
#X connect 109 0 107 0;
#X connect 110 0 0 1;
#X connect 111 0 110 0;
#X connect 112 0 115 0;
#X connect 113 0 112 0;
#X connect 114 0 113 0;
#X connect 115 0 83 0;
#X connect 116 0 117 1;
#X connect 117 0 123 1;
#X connect 118 0 116 1;
#X connect 119 0 125 0;
#X connect 120 0 118 0;
#X connect 121 0 119 0;
#X connect 122 0 124 0;
#X connect 123 0 101 0;
#X connect 124 0 123 2;
#X connect 125 0 116 2;
#X connect 126 0 113 0;
#X connect 126 0 127 0;
#X coords 0 -1 1 1 270 190 1 100 100;
