#N canvas 0 94 1366 674 10;
#X floatatom 495 99 5 0 0 0 - - -, f 5;
#X floatatom 550 100 10 0 0 0 - - -, f 10;
#X floatatom 620 128 10 0 0 0 - - -, f 10;
#X floatatom 675 100 5 0 0 0 - - -, f 5;
#X obj 495 75 r \$1vol;
#X obj 550 75 r \$1start;
#X obj 620 75 r \$1end;
#N canvas 153 163 1213 574 save-value-textfile 0;
#X obj 190 67 bng 15 250 50 0 empty empty empty 17 7 0 10 -262144 -1
-1;
#X msg 178 352 set;
#X obj 197 437 list trim;
#X obj 190 475 textfile;
#X obj 190 87 t b b b;
#X obj 213 213 v \$1vol;
#X obj 275 213 v \$1start;
#X obj 346 213 v \$1end;
#X obj 47 228 list trim;
#X obj 190 42 inlet;
#X obj 47 200 list prepend write;
#X obj 47 170 list prepend ./media/\$2;
#X obj 402 213 v \$1gate;
#X obj 467 213 v \$1loop;
#X obj 395 107 t b b b b b b b;
#X obj 336 400 pack s 0 0 0 0 0 0 0;
#X obj 285 -15 r sample-reload;
#X obj 285 30 sel \$3;
#X obj 301 7 bng 15 250 50 0 empty empty empty 17 7 0 10 -262144 -1
-1;
#X msg 285 67 1;
#X text 388 -16 after recording a new sample this rewrites the txt-file
;
#X msg 318 67 0;
#X obj 376 37 r \$1sample-length;
#X obj 361 75 f;
#X obj 361 16 del 100;
#X obj 234 60 del 200;
#X obj 527 213 v \$1lofi;
#X obj 587 213 v \$1sync;
#X connect 0 0 4 0;
#X connect 1 0 15 0;
#X connect 2 0 3 0;
#X connect 4 0 11 0;
#X connect 4 1 1 0;
#X connect 4 2 14 0;
#X connect 5 0 15 1;
#X connect 6 0 15 2;
#X connect 7 0 15 3;
#X connect 8 0 3 0;
#X connect 9 0 0 0;
#X connect 10 0 8 0;
#X connect 11 0 10 0;
#X connect 12 0 15 4;
#X connect 13 0 15 5;
#X connect 14 0 5 0;
#X connect 14 1 6 0;
#X connect 14 2 7 0;
#X connect 14 3 12 0;
#X connect 14 4 13 0;
#X connect 14 5 26 0;
#X connect 14 6 27 0;
#X connect 15 0 2 0;
#X connect 16 0 17 0;
#X connect 16 0 18 0;
#X connect 17 0 19 0;
#X connect 17 0 21 0;
#X connect 17 0 24 0;
#X connect 17 0 25 0;
#X connect 19 0 5 0;
#X connect 21 0 6 0;
#X connect 22 0 23 1;
#X connect 23 0 7 0;
#X connect 24 0 23 0;
#X connect 25 0 0 0;
#X connect 26 0 15 6;
#X connect 27 0 15 7;
#X restore 496 25 pd save-value-textfile;
#N canvas 0 94 1366 674 read-value-textfile 0;
#X obj -4 63 textfile;
#X msg 26 6 rewind;
#X obj -11 -52 bng 15 250 50 0 empty empty empty 17 7 0 10 -262144
-1 -1;
#X obj -11 -30 t b b b;
#X obj -4 118 t b f;
#X obj 121 118 t b f;
#X obj 51 118 t b f;
#X obj 176 117 t b f;
#X obj -4 149 v \$1vol;
#X obj 51 149 v \$1start;
#X obj 121 149 v \$1end;
#X obj 152 46 list trim;
#X obj 152 3 list;
#X obj 152 -19 symbol \$2;
#X obj 152 24 list prepend read;
#X obj -11 -102 loadbang;
#X obj -11 -75 del 500;
#X obj -4 174 s \$1vol;
#X obj 51 174 s \$1start;
#X obj 121 174 s \$1end;
#X obj 239 117 t b f;
#X obj 176 148 v \$1gate;
#X obj 176 173 s \$1gate;
#X obj 239 148 v \$1loop;
#X obj 239 173 s \$1loop;
#X obj 159 75 unpack 0 0 0 0 0 0 0, f 22;
#X obj 428 -130 r sample-reload;
#X obj 428 -85 sel \$3;
#X obj 444 -108 bng 15 250 50 0 empty empty empty 17 7 0 10 -262144
-1 -1;
#X text 537 -129 reload txt file;
#X obj 377 -55 del 300;
#X obj 299 117 t b f;
#X obj 299 148 v \$1lofi;
#X obj 299 173 s \$1lofi;
#X obj 359 117 t b f;
#X obj 359 148 v \$1sync;
#X obj 359 173 s \$1sync;
#X connect 0 0 25 0;
#X connect 1 0 0 0;
#X connect 2 0 3 0;
#X connect 3 0 0 0;
#X connect 3 1 1 0;
#X connect 3 2 13 0;
#X connect 4 0 8 0;
#X connect 4 1 8 0;
#X connect 5 0 10 0;
#X connect 5 1 10 0;
#X connect 6 0 9 0;
#X connect 6 1 9 0;
#X connect 7 0 21 0;
#X connect 7 1 21 0;
#X connect 8 0 17 0;
#X connect 9 0 18 0;
#X connect 10 0 19 0;
#X connect 11 0 0 0;
#X connect 12 0 14 0;
#X connect 13 0 12 0;
#X connect 14 0 11 0;
#X connect 15 0 16 0;
#X connect 16 0 2 0;
#X connect 20 0 23 0;
#X connect 20 1 23 0;
#X connect 21 0 22 0;
#X connect 23 0 24 0;
#X connect 25 0 4 0;
#X connect 25 1 6 0;
#X connect 25 2 5 0;
#X connect 25 3 7 0;
#X connect 25 4 20 0;
#X connect 25 5 31 0;
#X connect 25 6 34 0;
#X connect 26 0 27 0;
#X connect 26 0 28 0;
#X connect 27 0 30 0;
#X connect 30 0 2 0;
#X connect 31 0 32 0;
#X connect 31 1 32 0;
#X connect 32 0 33 0;
#X connect 34 0 35 0;
#X connect 34 1 35 0;
#X connect 35 0 36 0;
#X restore 496 47 pd read-value-textfile;
#N canvas 0 94 1351 674 start-end-marker 0;
#X msg 296 239 bang;
#X msg 241 168 bang;
#X obj 239 270 timer;
#X msg 289 190 tempo 1 samp;
#X msg 506 238 bang;
#X msg 449 167 bang;
#X obj 449 260 timer;
#X msg 495 173 tempo 1 samp;
#X obj 289 168 loadbang;
#X obj 495 151 loadbang;
#X obj 241 124 r \$1startplay;
#X obj 239 546 s \$1start;
#X obj 449 425 s \$1end;
#X obj 254 432 r \$1start;
#X obj 239 498 +;
#X obj 761 484 outlet;
#X obj 796 122 r \$1end;
#X obj 718 171 != 0;
#X obj 796 167 !=;
#X obj 853 122 r \$1sample-length;
#X obj 718 193 sel 1;
#X obj 796 189 sel 1;
#X obj 718 256 tgl 15 0 empty empty empty 17 7 0 10 -262144 -1 -1 1
1;
#X obj 796 270 tgl 15 0 empty empty empty 17 7 0 10 -262144 -1 -1 1
1;
#X obj 718 124 r \$1start;
#X text 715 100 check mark status;
#X msg 718 218 1;
#X msg 796 217 1;
#X msg 749 217 0;
#X msg 829 216 0;
#X obj 761 293 ||;
#X obj 761 358 tgl 15 0 empty empty empty 17 7 0 10 -262144 -1 -1 1
1;
#X obj 900 171 r \$1blink-mark;
#X obj 900 271 metro 200;
#X obj -36 335 v \$1start;
#X obj 35 335 v \$1end;
#X msg -36 305 0, f 1;
#X obj 53 273 r \$1sample-length;
#X obj 35 309 f;
#X obj -36 220 bng 15 250 50 0 empty empty empty 17 7 0 10 -262144
-1 -1;
#X obj -35 356 s \$1start;
#X obj 35 355 s \$1end;
#X obj -8 243 s \$1reset-start;
#X text 11 219 reset markers;
#X obj 506 214 r \$1-set-marker2;
#X obj 296 214 r \$1-set-marker1;
#X obj -36 124 r \$1reset-marker;
#X obj 761 320 v \$1store3;
#X obj 848 262 sel 0;
#X obj 848 284 del 5;
#X obj 798 241 t b f;
#X obj -26 151 r \$1reset-marker2;
#X text 87 124 resets marker1+2;
#X text 99 150 resets marker2;
#X obj 449 124 r \$1-set-marker1;
#X obj 646 218 loadbang;
#X obj 646 240 del 1000;
#X connect 0 0 2 1;
#X connect 1 0 2 0;
#X connect 2 0 14 0;
#X connect 3 0 2 0;
#X connect 4 0 6 1;
#X connect 5 0 6 0;
#X connect 6 0 12 0;
#X connect 7 0 6 0;
#X connect 8 0 3 0;
#X connect 9 0 7 0;
#X connect 10 0 1 0;
#X connect 13 0 14 1;
#X connect 14 0 11 0;
#X connect 16 0 18 0;
#X connect 17 0 20 0;
#X connect 18 0 21 0;
#X connect 19 0 18 1;
#X connect 20 0 26 0;
#X connect 20 1 28 0;
#X connect 21 0 27 0;
#X connect 21 1 29 0;
#X connect 22 0 30 0;
#X connect 23 0 30 1;
#X connect 24 0 17 0;
#X connect 26 0 22 0;
#X connect 27 0 50 0;
#X connect 28 0 22 0;
#X connect 29 0 50 0;
#X connect 30 0 47 0;
#X connect 31 0 15 0;
#X connect 32 0 33 0;
#X connect 32 0 48 0;
#X connect 33 0 31 0;
#X connect 36 0 34 0;
#X connect 36 0 40 0;
#X connect 37 0 38 1;
#X connect 38 0 35 0;
#X connect 38 0 41 0;
#X connect 39 0 36 0;
#X connect 39 0 38 0;
#X connect 39 0 42 0;
#X connect 44 0 4 0;
#X connect 45 0 0 0;
#X connect 46 0 39 0;
#X connect 47 0 31 0;
#X connect 48 0 49 0;
#X connect 49 0 47 0;
#X connect 50 0 17 0;
#X connect 50 1 23 0;
#X connect 51 0 38 0;
#X connect 54 0 5 0;
#X connect 55 0 56 0;
#X connect 56 0 47 0;
#X restore 19 117 pd start-end-marker;
#N canvas 25 94 1299 635 play-modes 0;
#X obj 53 24 inlet;
#X obj 51 758 outlet;
#X obj 124 165 r \$1start;
#X obj -68 117 r \$1end;
#X obj 53 116 bng 15 250 50 0 empty empty empty 17 7 0 10 -262144 -1
-1;
#X obj 117 382 f;
#X obj -175 442 f;
#X text 77 116 trigger mode;
#X floatatom 124 199 0 0 0 0 - - -;
#X floatatom 234 172 0 0 0 0 - - -;
#X obj 153 219 t b f;
#X obj 124 249 f;
#X obj 124 276 +;
#X floatatom 184 382 25 0 0 0 - - -, f 25;
#X obj 234 57 r \$1start2;
#X obj 53 190 t b b b;
#X obj 234 91 * 15000;
#X obj 382 237 r \$1saves2e2;
#X obj 382 402 s \$1start;
#X obj 166 452 f;
#X obj 382 325 t b b b;
#X obj -26 312 t b f;
#X obj -68 311 f;
#X obj -68 338 +;
#X floatatom -192 411 25 0 0 0 - - -, f 25;
#X floatatom -68 139 15 0 0 0 - - -, f 15;
#X obj -26 167 r \$1start2;
#X obj -26 188 * 15000;
#X obj -26 209 * -1;
#X obj -212 518 f;
#X obj 509 402 s \$1end;
#X obj -197 157 r \$1end2;
#X obj -197 182 * 15000;
#X obj -197 282 t b f;
#X obj -197 311 f;
#X obj -197 338 +;
#X obj -192 385 min;
#X obj -178 207 r \$1saves2e2;
#X msg -178 229 0;
#X obj -8 237 r \$1saves2e2;
#X msg -8 259 0;
#X obj 242 117 r \$1saves2e2;
#X msg 242 139 0;
#X obj -281 382 r \$1saves2e2;
#X obj 166 417 r \$1saves2e2;
#X obj 382 259 del 50;
#X obj -162 244 r \$1sample-length;
#X obj 124 300 max 0;
#X obj -144 263 t b f;
#X obj -144 297 f;
#X obj -143 331 -;
#X obj 177 272 r \$1sample-length;
#X obj 124 322 min;
#X obj 165 529 v \$3start1+start2;
#X obj -212 638 v \$3end1+-(start2);
#X obj 382 380 v \$3start1+start2;
#X obj 509 380 v \$3end1+-(start2);
#X obj 177 294 - 3000;
#X obj -197 360 max 3000;
#X obj 763 396 *;
#X floatatom 763 431 15 0 0 0 - - -, f 15;
#X obj 773 357 t b f;
#X obj 724 85 / 44.1;
#X obj 823 92 r seq-speed;
#X obj 823 167 /;
#X floatatom 822 203 5 0 0 0 - - -, f 5;
#X obj 51 690 pack 0 0 0;
#X obj 822 272 s \$1pitch1;
#X obj 108 638 r \$1pitch1;
#X obj 763 471 s \$1pitched-end;
#X obj 763 451 max 11000;
#X obj 723 41 r \$1sample-length;
#X obj 823 115 * 4;
#X obj 723 105 t b f;
#X connect 0 0 4 0;
#X connect 2 0 8 0;
#X connect 3 0 25 0;
#X connect 4 0 15 0;
#X connect 5 0 66 0;
#X connect 6 0 66 1;
#X connect 6 0 62 0;
#X connect 6 0 59 0;
#X connect 8 0 11 0;
#X connect 9 0 10 0;
#X connect 10 0 11 0;
#X connect 10 1 12 1;
#X connect 11 0 12 0;
#X connect 12 0 47 0;
#X connect 13 0 5 1;
#X connect 13 0 19 1;
#X connect 13 0 48 0;
#X connect 14 0 16 0;
#X connect 15 0 66 0;
#X connect 15 1 6 0;
#X connect 15 2 5 0;
#X connect 16 0 9 0;
#X connect 17 0 45 0;
#X connect 19 0 53 0;
#X connect 20 0 55 0;
#X connect 20 0 56 0;
#X connect 21 0 22 0;
#X connect 21 1 23 1;
#X connect 22 0 23 0;
#X connect 23 0 34 0;
#X connect 24 0 6 1;
#X connect 24 0 29 1;
#X connect 25 0 22 0;
#X connect 26 0 27 0;
#X connect 27 0 28 0;
#X connect 28 0 21 0;
#X connect 29 0 54 0;
#X connect 31 0 32 0;
#X connect 32 0 33 0;
#X connect 33 0 34 0;
#X connect 33 1 35 1;
#X connect 34 0 35 0;
#X connect 35 0 58 0;
#X connect 36 0 24 0;
#X connect 37 0 38 0;
#X connect 38 0 33 0;
#X connect 39 0 40 0;
#X connect 40 0 21 0;
#X connect 41 0 42 0;
#X connect 42 0 9 0;
#X connect 43 0 29 0;
#X connect 44 0 19 0;
#X connect 45 0 20 0;
#X connect 46 0 49 0;
#X connect 47 0 52 0;
#X connect 48 0 49 0;
#X connect 48 1 50 1;
#X connect 49 0 50 0;
#X connect 50 0 36 1;
#X connect 51 0 57 0;
#X connect 52 0 13 0;
#X connect 55 0 18 0;
#X connect 56 0 30 0;
#X connect 57 0 52 1;
#X connect 58 0 36 0;
#X connect 59 0 60 0;
#X connect 60 0 70 0;
#X connect 61 0 59 0;
#X connect 61 1 59 1;
#X connect 62 0 73 0;
#X connect 63 0 72 0;
#X connect 64 0 65 0;
#X connect 65 0 61 0;
#X connect 65 0 67 0;
#X connect 66 0 1 0;
#X connect 68 0 66 2;
#X connect 70 0 69 0;
#X connect 72 0 64 0;
#X connect 73 0 64 0;
#X connect 73 1 64 1;
#X restore 90 217 pd play-modes;
#X text 559 0 save value to textfile;
#X obj 214 328 r \$1endplay;
#X obj 19 140 tgl 15 0 empty empty empty 17 7 0 10 -262144 -1 -1 1
1;
#X text 42 140 mark led;
#X obj 498 250 r \$1m-m-stage;
#X floatatom 498 276 5 0 0 0 - - -, f 5;
#X obj 90 170 r \$1startplay;
#X obj 600 279 s \$1m-m-stage;
#X msg 600 250 0;
#N canvas 0 94 1351 674 manage-buttons 0;
#X obj 211 86 s \$1m-m-stage;
#X obj 210 34 loadbang;
#X msg 210 56 0;
#N canvas 548 252 801 500 remove 0;
#X obj 79 287 spigot;
#X obj 118 204 r \$1m-m-stage;
#X obj 94 338 s \$1m-m-stage;
#X msg 118 248 1;
#X msg 150 248 0;
#X obj 79 40 r \$1mark-on;
#X text 81 18 remove markers;
#X obj 229 245 spigot;
#X obj 268 164 r \$1m-m-stage;
#X obj 250 338 s \$1m-m-stage;
#X msg 268 208 1;
#X msg 307 208 0;
#X obj 229 40 r \$1mark-off;
#X msg 94 314 10;
#X msg 250 314 0;
#X obj 118 226 sel 0;
#X obj 268 186 sel 10;
#X obj 240 360 s \$1reset-marker;
#X obj 250 267 t b b;
#X obj 250 289 del 3;
#X obj 229 402 s \$1blink-mark;
#X msg 229 380 0;
#X obj 27 331 bng 15 250 50 0 empty empty empty 17 7 0 10 -262144 -1
-1;
#X floatatom 24 273 5 0 0 0 - - -, f 5;
#X obj 31 165 bng 15 250 50 0 empty empty empty 17 7 0 10 -262144 -1
-1;
#X connect 0 0 13 0;
#X connect 0 0 22 0;
#X connect 1 0 15 0;
#X connect 1 0 23 0;
#X connect 3 0 0 1;
#X connect 4 0 0 1;
#X connect 5 0 0 0;
#X connect 5 0 24 0;
#X connect 7 0 17 0;
#X connect 7 0 18 0;
#X connect 7 0 21 0;
#X connect 8 0 16 0;
#X connect 10 0 7 1;
#X connect 11 0 7 1;
#X connect 12 0 7 0;
#X connect 13 0 2 0;
#X connect 14 0 9 0;
#X connect 15 0 3 0;
#X connect 15 1 4 0;
#X connect 16 0 10 0;
#X connect 16 1 11 0;
#X connect 18 0 19 0;
#X connect 19 0 14 0;
#X connect 21 0 20 0;
#X restore 23 39 pd remove markers;
#N canvas 0 94 1351 674 play 0;
#X text 41 21 play gate (no loop);
#X obj 41 287 spigot;
#X obj 80 204 r \$1m-m-stage;
#X obj 80 226 sel 0;
#X obj 41 87 spigot;
#X obj 80 60 r \$1gate-status;
#X obj 41 184 spigot;
#X obj 80 107 r \$1loop-status;
#X obj 41 362 s \$1startplay;
#X obj 56 338 s \$1m-m-stage;
#X obj 744 283 spigot;
#X obj 783 204 r \$1m-m-stage;
#X obj 744 87 spigot;
#X obj 783 60 r \$1gate-status;
#X obj 744 184 spigot;
#X obj 783 107 r \$1loop-status;
#X obj 759 335 s \$1m-m-stage;
#X text 742 21 stop gate (no loop);
#X obj 744 362 s \$1endplay;
#X msg 56 314 1;
#X msg 759 311 0;
#X obj 41 40 r \$1sp2m;
#X obj 98 83 tgl 15 0 empty empty empty 17 7 0 10 -262144 -1 -1 1 1
;
#X msg 80 248 1;
#X msg 112 248 0;
#X msg 783 248 1;
#X msg 815 248 0;
#X obj 783 226 sel 1;
#X obj 80 129 sel 1;
#X msg 80 151 0;
#X msg 110 151 1;
#X obj 783 129 sel 1;
#X msg 783 151 0;
#X msg 813 151 1;
#X obj 744 40 r \$1ep2m;
#X obj 214 287 spigot;
#X obj 253 204 r \$1m-m-stage;
#X obj 214 87 spigot;
#X obj 253 60 r \$1gate-status;
#X obj 214 184 spigot;
#X obj 253 107 r \$1loop-status;
#X obj 249 338 s \$1m-m-stage;
#X obj 271 83 tgl 15 0 empty empty empty 17 7 0 10 -262144 -1 -1 1
1;
#X msg 253 248 1;
#X msg 285 248 0;
#X obj 253 129 sel 1;
#X msg 253 151 0;
#X msg 283 151 1;
#X obj 214 40 r \$1mark-on;
#X obj 374 287 spigot;
#X obj 413 204 r \$1m-m-stage;
#X obj 374 87 spigot;
#X obj 413 60 r \$1gate-status;
#X obj 374 184 spigot;
#X obj 413 107 r \$1loop-status;
#X obj 431 83 tgl 15 0 empty empty empty 17 7 0 10 -262144 -1 -1 1
1;
#X msg 413 248 1;
#X msg 445 248 0;
#X obj 413 129 sel 1;
#X msg 413 151 0;
#X msg 443 151 1;
#X obj 374 40 r \$1mark-on;
#X obj 448 340 s \$1-set-marker2;
#X obj 234 361 s \$1-set-marker1;
#X obj 407 412 s \$1endplay;
#X msg 249 314 2;
#X obj 253 226 sel 1;
#X obj 413 226 sel 2;
#X text 212 19 set marker 1;
#X text 372 19 set marker 2;
#X obj 422 388 s \$1m-m-stage;
#X text 31 477 Set Marker 2 only - gate (no loop);
#X obj 371 757 spigot;
#X obj 410 674 r \$1m-m-stage;
#X obj 371 557 spigot;
#X obj 410 530 r \$1gate-status;
#X obj 371 654 spigot;
#X obj 410 577 r \$1loop-status;
#X obj 371 893 s \$1m-m-stage;
#X obj 428 553 tgl 15 0 empty empty empty 17 7 0 10 -262144 -1 -1 1
1;
#X msg 410 718 1;
#X msg 442 718 0;
#X obj 410 599 sel 1;
#X msg 410 621 0;
#X msg 440 621 1;
#X obj 214 404 s \$1blink-mark;
#X msg 214 382 1;
#X obj 375 434 s \$1blink-mark;
#X msg 375 412 0;
#X obj 371 510 r \$1mark-off;
#X obj 211 757 spigot;
#X obj 250 674 r \$1m-m-stage;
#X obj 211 557 spigot;
#X obj 250 530 r \$1gate-status;
#X obj 211 654 spigot;
#X obj 250 577 r \$1loop-status;
#X obj 211 808 s \$1m-m-stage;
#X obj 211 510 r \$1sp2m;
#X obj 268 553 tgl 15 0 empty empty empty 17 7 0 10 -262144 -1 -1 1
1;
#X msg 250 718 1;
#X msg 282 718 0;
#X obj 250 599 sel 1;
#X msg 250 621 0;
#X msg 280 621 1;
#X msg 211 784 6;
#X obj 410 696 sel 6;
#X msg 371 869 7;
#X obj 403 869 s \$1startplay;
#X obj 411 849 s \$1blink-mark;
#X msg 411 827 1;
#X obj 561 757 spigot;
#X obj 600 674 r \$1m-m-stage;
#X obj 561 557 spigot;
#X obj 600 530 r \$1gate-status;
#X obj 561 654 spigot;
#X obj 600 577 r \$1loop-status;
#X obj 594 912 s \$1m-m-stage;
#X obj 618 553 tgl 15 0 empty empty empty 17 7 0 10 -262144 -1 -1 1
1;
#X msg 600 718 1;
#X msg 632 718 0;
#X obj 600 599 sel 1;
#X msg 600 621 0;
#X msg 630 621 1;
#X obj 561 510 r \$1mark-on;
#X obj 600 696 sel 7;
#X obj 635 817 s \$1-set-marker2;
#X obj 598 866 s \$1endplay;
#X obj 561 934 s \$1blink-mark;
#X msg 561 912 0;
#X obj 561 780 t b b b b b;
#X obj 250 696 sel 10;
#X text 39 512 This step is step 1 \; of the remove mark- \; ers subpatch.
\;;
#X obj 431 806 s \$1reset-marker2;
#X obj 371 779 t b b b b;
#X obj 781 757 spigot;
#X obj 820 674 r \$1m-m-stage;
#X obj 781 557 spigot;
#X obj 820 530 r \$1gate-status;
#X obj 781 654 spigot;
#X obj 820 577 r \$1loop-status;
#X obj 838 553 tgl 15 0 empty empty empty 17 7 0 10 -262144 -1 -1 1
1;
#X msg 820 718 1;
#X msg 852 718 0;
#X obj 820 599 sel 1;
#X msg 820 621 0;
#X msg 850 621 1;
#X obj 781 510 r \$1mark-off;
#X msg 579 887 8;
#X obj 820 696 sel 8;
#X msg 781 779 0;
#X obj 781 806 s \$1m-m-stage;
#X obj 461 40 r \$1sample-end;
#X obj 374 308 t b b b b b;
#X obj 580 286 spigot;
#X obj 619 203 r \$1m-m-stage;
#X obj 580 86 spigot;
#X obj 619 59 r \$1gate-status;
#X obj 580 183 spigot;
#X obj 619 106 r \$1loop-status;
#X obj 637 82 tgl 15 0 empty empty empty 17 7 0 10 -262144 -1 -1 1
1;
#X msg 619 247 1;
#X msg 651 247 0;
#X obj 619 128 sel 1;
#X msg 619 150 0;
#X msg 649 150 1;
#X obj 580 39 r \$1mark-off;
#X msg 580 308 0;
#X obj 580 335 s \$1m-m-stage;
#X msg 422 364 3;
#X obj 619 225 sel 3;
#X obj 914 283 spigot;
#X obj 953 204 r \$1m-m-stage;
#X obj 914 87 spigot;
#X obj 953 60 r \$1gate-status;
#X obj 914 184 spigot;
#X obj 953 107 r \$1loop-status;
#X obj 929 335 s \$1m-m-stage;
#X obj 914 362 s \$1endplay;
#X msg 929 311 0;
#X msg 953 248 1;
#X msg 985 248 0;
#X obj 953 226 sel 1;
#X obj 953 129 sel 1;
#X msg 953 151 0;
#X msg 983 151 1;
#X obj 914 39 r \$1sample-end;
#X text 911 17 samples after countdown;
#X connect 1 0 8 0;
#X connect 1 0 19 0;
#X connect 2 0 3 0;
#X connect 3 0 23 0;
#X connect 3 1 24 0;
#X connect 4 0 6 0;
#X connect 5 0 4 1;
#X connect 5 0 22 0;
#X connect 6 0 1 0;
#X connect 7 0 28 0;
#X connect 10 0 20 0;
#X connect 10 0 18 0;
#X connect 11 0 27 0;
#X connect 12 0 14 0;
#X connect 13 0 12 1;
#X connect 14 0 10 0;
#X connect 15 0 31 0;
#X connect 19 0 9 0;
#X connect 20 0 16 0;
#X connect 21 0 4 0;
#X connect 23 0 1 1;
#X connect 24 0 1 1;
#X connect 25 0 10 1;
#X connect 26 0 10 1;
#X connect 27 0 25 0;
#X connect 27 1 26 0;
#X connect 28 0 29 0;
#X connect 28 1 30 0;
#X connect 29 0 6 1;
#X connect 30 0 6 1;
#X connect 31 0 32 0;
#X connect 31 1 33 0;
#X connect 32 0 14 1;
#X connect 33 0 14 1;
#X connect 34 0 12 0;
#X connect 35 0 65 0;
#X connect 35 0 63 0;
#X connect 35 0 86 0;
#X connect 36 0 66 0;
#X connect 37 0 39 0;
#X connect 38 0 37 1;
#X connect 38 0 42 0;
#X connect 39 0 35 0;
#X connect 40 0 45 0;
#X connect 43 0 35 1;
#X connect 44 0 35 1;
#X connect 45 0 46 0;
#X connect 45 1 47 0;
#X connect 46 0 39 1;
#X connect 47 0 39 1;
#X connect 48 0 37 0;
#X connect 49 0 152 0;
#X connect 50 0 67 0;
#X connect 51 0 53 0;
#X connect 52 0 51 1;
#X connect 52 0 55 0;
#X connect 53 0 49 0;
#X connect 54 0 58 0;
#X connect 56 0 49 1;
#X connect 57 0 49 1;
#X connect 58 0 59 0;
#X connect 58 1 60 0;
#X connect 59 0 53 1;
#X connect 60 0 53 1;
#X connect 61 0 51 0;
#X connect 65 0 41 0;
#X connect 66 0 43 0;
#X connect 66 1 44 0;
#X connect 67 0 56 0;
#X connect 67 1 57 0;
#X connect 72 0 133 0;
#X connect 73 0 105 0;
#X connect 74 0 76 0;
#X connect 75 0 74 1;
#X connect 75 0 79 0;
#X connect 76 0 72 0;
#X connect 77 0 82 0;
#X connect 80 0 72 1;
#X connect 81 0 72 1;
#X connect 82 0 83 0;
#X connect 82 1 84 0;
#X connect 83 0 76 1;
#X connect 84 0 76 1;
#X connect 86 0 85 0;
#X connect 88 0 87 0;
#X connect 89 0 74 0;
#X connect 90 0 104 0;
#X connect 91 0 130 0;
#X connect 92 0 94 0;
#X connect 93 0 92 1;
#X connect 93 0 98 0;
#X connect 94 0 90 0;
#X connect 95 0 101 0;
#X connect 97 0 92 0;
#X connect 99 0 90 1;
#X connect 100 0 90 1;
#X connect 101 0 102 0;
#X connect 101 1 103 0;
#X connect 102 0 94 1;
#X connect 103 0 94 1;
#X connect 104 0 96 0;
#X connect 105 0 80 0;
#X connect 105 1 81 0;
#X connect 106 0 78 0;
#X connect 109 0 108 0;
#X connect 110 0 129 0;
#X connect 111 0 124 0;
#X connect 112 0 114 0;
#X connect 113 0 112 1;
#X connect 113 0 117 0;
#X connect 114 0 110 0;
#X connect 115 0 120 0;
#X connect 118 0 110 1;
#X connect 119 0 110 1;
#X connect 120 0 121 0;
#X connect 120 1 122 0;
#X connect 121 0 114 1;
#X connect 122 0 114 1;
#X connect 123 0 112 0;
#X connect 124 0 118 0;
#X connect 124 1 119 0;
#X connect 128 0 127 0;
#X connect 129 0 128 0;
#X connect 129 1 147 0;
#X connect 129 2 126 0;
#X connect 129 4 125 0;
#X connect 130 0 99 0;
#X connect 130 1 100 0;
#X connect 133 0 106 0;
#X connect 133 1 107 0;
#X connect 133 2 109 0;
#X connect 133 3 132 0;
#X connect 134 0 149 0;
#X connect 135 0 148 0;
#X connect 136 0 138 0;
#X connect 137 0 136 1;
#X connect 137 0 140 0;
#X connect 138 0 134 0;
#X connect 139 0 143 0;
#X connect 141 0 134 1;
#X connect 142 0 134 1;
#X connect 143 0 144 0;
#X connect 143 1 145 0;
#X connect 144 0 138 1;
#X connect 145 0 138 1;
#X connect 146 0 136 0;
#X connect 147 0 116 0;
#X connect 148 0 141 0;
#X connect 148 1 142 0;
#X connect 149 0 150 0;
#X connect 151 0 51 0;
#X connect 152 0 88 0;
#X connect 152 1 64 0;
#X connect 152 2 168 0;
#X connect 152 4 62 0;
#X connect 153 0 166 0;
#X connect 154 0 169 0;
#X connect 155 0 157 0;
#X connect 156 0 155 1;
#X connect 156 0 159 0;
#X connect 157 0 153 0;
#X connect 158 0 162 0;
#X connect 160 0 153 1;
#X connect 161 0 153 1;
#X connect 162 0 163 0;
#X connect 162 1 164 0;
#X connect 163 0 157 1;
#X connect 164 0 157 1;
#X connect 165 0 155 0;
#X connect 166 0 167 0;
#X connect 168 0 70 0;
#X connect 169 0 160 0;
#X connect 169 1 161 0;
#X connect 170 0 178 0;
#X connect 170 0 177 0;
#X connect 171 0 181 0;
#X connect 172 0 174 0;
#X connect 173 0 172 1;
#X connect 174 0 170 0;
#X connect 175 0 182 0;
#X connect 178 0 176 0;
#X connect 179 0 170 1;
#X connect 180 0 170 1;
#X connect 181 0 179 0;
#X connect 181 1 180 0;
#X connect 182 0 183 0;
#X connect 182 1 184 0;
#X connect 183 0 174 1;
#X connect 184 0 174 1;
#X connect 185 0 172 0;
#X restore 23 60 pd play gate (no loop);
#N canvas 269 138 1097 630 play 0;
#X obj 33 286 spigot;
#X obj 72 203 r \$1m-m-stage;
#X obj 72 225 sel 0;
#X obj 33 86 spigot;
#X obj 72 59 r \$1gate-status;
#X obj 33 183 spigot;
#X obj 72 106 r \$1loop-status;
#X obj 33 361 s \$1startplay;
#X obj 48 337 s \$1m-m-stage;
#X obj 923 282 spigot;
#X obj 962 203 r \$1m-m-stage;
#X obj 923 86 spigot;
#X obj 962 59 r \$1gate-status;
#X obj 923 183 spigot;
#X obj 962 106 r \$1loop-status;
#X obj 938 334 s \$1m-m-stage;
#X obj 923 361 s \$1endplay;
#X obj 33 39 r \$1sp2m;
#X obj 90 82 tgl 15 0 empty empty empty 17 7 0 10 -262144 -1 -1 1 1
;
#X msg 72 247 1;
#X msg 104 247 0;
#X msg 962 247 1;
#X msg 994 247 0;
#X obj 962 225 sel 1;
#X msg 72 150 0;
#X msg 102 150 1;
#X msg 962 150 0;
#X msg 992 150 1;
#X obj 923 39 r \$1ep2m;
#X obj 383 286 spigot;
#X obj 422 203 r \$1m-m-stage;
#X obj 383 86 spigot;
#X obj 422 59 r \$1gate-status;
#X obj 383 183 spigot;
#X obj 422 106 r \$1loop-status;
#X obj 418 337 s \$1m-m-stage;
#X obj 440 82 tgl 15 0 empty empty empty 17 7 0 10 -262144 -1 -1 1
1;
#X msg 422 247 1;
#X msg 454 247 0;
#X msg 422 150 0;
#X msg 452 150 1;
#X obj 383 39 r \$1mark-on;
#X obj 543 286 spigot;
#X obj 582 203 r \$1m-m-stage;
#X obj 543 86 spigot;
#X obj 582 59 r \$1gate-status;
#X obj 543 183 spigot;
#X obj 582 106 r \$1loop-status;
#X obj 600 82 tgl 15 0 empty empty empty 17 7 0 10 -262144 -1 -1 1
1;
#X msg 582 247 1;
#X msg 614 247 0;
#X msg 582 150 0;
#X msg 612 150 1;
#X obj 543 39 r \$1mark-on;
#X obj 617 339 s \$1-set-marker2;
#X obj 403 360 s \$1-set-marker1;
#X obj 576 411 s \$1endplay;
#X obj 422 225 sel 1;
#X obj 582 225 sel 2;
#X text 381 18 set marker 1;
#X text 541 18 set marker 2;
#X obj 591 387 s \$1m-m-stage;
#X obj 363 756 spigot;
#X obj 402 673 r \$1m-m-stage;
#X obj 363 556 spigot;
#X obj 402 529 r \$1gate-status;
#X obj 363 653 spigot;
#X obj 402 576 r \$1loop-status;
#X obj 363 892 s \$1m-m-stage;
#X obj 420 552 tgl 15 0 empty empty empty 17 7 0 10 -262144 -1 -1 1
1;
#X msg 402 717 1;
#X msg 434 717 0;
#X msg 402 620 0;
#X msg 432 620 1;
#X obj 383 403 s \$1blink-mark;
#X msg 383 381 1;
#X obj 544 433 s \$1blink-mark;
#X msg 544 411 0;
#X obj 363 509 r \$1mark-off;
#X obj 203 756 spigot;
#X obj 242 673 r \$1m-m-stage;
#X obj 203 556 spigot;
#X obj 242 529 r \$1gate-status;
#X obj 203 653 spigot;
#X obj 242 576 r \$1loop-status;
#X obj 203 807 s \$1m-m-stage;
#X obj 203 509 r \$1sp2m;
#X obj 260 552 tgl 15 0 empty empty empty 17 7 0 10 -262144 -1 -1 1
1;
#X msg 242 717 1;
#X msg 274 717 0;
#X msg 242 620 0;
#X msg 272 620 1;
#X obj 402 695 sel 6;
#X obj 395 868 s \$1startplay;
#X obj 403 848 s \$1blink-mark;
#X msg 403 826 1;
#X obj 553 756 spigot;
#X obj 592 673 r \$1m-m-stage;
#X obj 553 556 spigot;
#X obj 592 529 r \$1gate-status;
#X obj 553 653 spigot;
#X obj 592 576 r \$1loop-status;
#X obj 586 911 s \$1m-m-stage;
#X obj 610 552 tgl 15 0 empty empty empty 17 7 0 10 -262144 -1 -1 1
1;
#X msg 592 717 1;
#X msg 624 717 0;
#X msg 592 620 0;
#X msg 622 620 1;
#X obj 553 509 r \$1mark-on;
#X obj 592 695 sel 7;
#X obj 627 816 s \$1-set-marker2;
#X obj 590 865 s \$1endplay;
#X obj 553 933 s \$1blink-mark;
#X msg 553 911 0;
#X obj 553 779 t b b b b b;
#X obj 242 695 sel 10;
#X text 31 511 This step is step 1 \; of the remove mark- \; ers subpatch.
\;;
#X obj 423 805 s \$1reset-marker2;
#X obj 363 778 t b b b b;
#X obj 773 756 spigot;
#X obj 812 673 r \$1m-m-stage;
#X obj 773 556 spigot;
#X obj 812 529 r \$1gate-status;
#X obj 773 653 spigot;
#X obj 812 576 r \$1loop-status;
#X obj 830 552 tgl 15 0 empty empty empty 17 7 0 10 -262144 -1 -1 1
1;
#X msg 812 717 1;
#X msg 844 717 0;
#X msg 812 620 0;
#X msg 842 620 1;
#X obj 773 509 r \$1mark-off;
#X obj 812 695 sel 8;
#X obj 773 805 s \$1m-m-stage;
#X obj 630 39 r \$1sample-end;
#X obj 543 307 t b b b b b;
#X text 33 20 play gate (+ loop);
#X text 921 20 stop gate (+ loop);
#X text 23 476 Set Marker 2 only - gate (+ loop);
#X msg 938 310 0;
#X msg 773 778 0;
#X msg 48 313 1;
#X msg 418 313 2;
#X msg 203 783 6;
#X msg 363 868 7;
#X msg 571 886 8;
#X obj 72 128 sel 0;
#X obj 422 128 sel 0;
#X obj 582 128 sel 0;
#X obj 962 128 sel 0;
#X obj 242 598 sel 0;
#X obj 402 598 sel 0;
#X obj 592 598 sel 0;
#X obj 812 598 sel 0;
#X obj 210 39 r \$1sample-end;
#X obj 210 285 spigot;
#X obj 249 203 r \$1m-m-stage;
#X obj 210 86 spigot;
#X obj 249 59 r \$1gate-status;
#X obj 210 183 spigot;
#X obj 249 106 r \$1loop-status;
#X obj 267 82 tgl 15 0 empty empty empty 17 7 0 10 -262144 -1 -1 1
1;
#X msg 249 247 1;
#X msg 281 247 0;
#X msg 249 150 0;
#X msg 279 150 1;
#X obj 249 128 sel 0;
#X obj 210 361 s \$1startplay;
#X obj 249 225 sel 1;
#X obj 349 912 s \$1-set-marker1;
#X obj 757 286 spigot;
#X obj 796 203 r \$1m-m-stage;
#X obj 757 86 spigot;
#X obj 796 59 r \$1gate-status;
#X obj 757 183 spigot;
#X obj 796 106 r \$1loop-status;
#X obj 814 82 tgl 15 0 empty empty empty 17 7 0 10 -262144 -1 -1 1
1;
#X msg 796 247 1;
#X msg 828 247 0;
#X msg 796 150 0;
#X msg 826 150 1;
#X obj 757 39 r \$1mark-off;
#X msg 757 308 0;
#X obj 757 335 s \$1m-m-stage;
#X obj 796 225 sel 3;
#X msg 591 363 3;
#X obj 796 128 sel 0;
#X connect 0 0 7 0;
#X connect 0 0 140 0;
#X connect 1 0 2 0;
#X connect 2 0 19 0;
#X connect 2 1 20 0;
#X connect 3 0 5 0;
#X connect 4 0 3 1;
#X connect 4 0 18 0;
#X connect 5 0 0 0;
#X connect 6 0 145 0;
#X connect 9 0 138 0;
#X connect 9 0 16 0;
#X connect 10 0 23 0;
#X connect 11 0 13 0;
#X connect 12 0 11 1;
#X connect 13 0 9 0;
#X connect 14 0 148 0;
#X connect 17 0 3 0;
#X connect 19 0 0 1;
#X connect 20 0 0 1;
#X connect 21 0 9 1;
#X connect 22 0 9 1;
#X connect 23 0 21 0;
#X connect 23 1 22 0;
#X connect 24 0 5 1;
#X connect 25 0 5 1;
#X connect 26 0 13 1;
#X connect 27 0 13 1;
#X connect 28 0 11 0;
#X connect 29 0 141 0;
#X connect 29 0 55 0;
#X connect 29 0 75 0;
#X connect 30 0 57 0;
#X connect 31 0 33 0;
#X connect 32 0 31 1;
#X connect 32 0 36 0;
#X connect 33 0 29 0;
#X connect 34 0 146 0;
#X connect 37 0 29 1;
#X connect 38 0 29 1;
#X connect 39 0 33 1;
#X connect 40 0 33 1;
#X connect 41 0 31 0;
#X connect 42 0 134 0;
#X connect 43 0 58 0;
#X connect 44 0 46 0;
#X connect 45 0 44 1;
#X connect 45 0 48 0;
#X connect 46 0 42 0;
#X connect 47 0 147 0;
#X connect 49 0 42 1;
#X connect 50 0 42 1;
#X connect 51 0 46 1;
#X connect 52 0 46 1;
#X connect 53 0 44 0;
#X connect 57 0 37 0;
#X connect 57 1 38 0;
#X connect 58 0 49 0;
#X connect 58 1 50 0;
#X connect 62 0 118 0;
#X connect 63 0 92 0;
#X connect 64 0 66 0;
#X connect 65 0 64 1;
#X connect 65 0 69 0;
#X connect 66 0 62 0;
#X connect 67 0 150 0;
#X connect 70 0 62 1;
#X connect 71 0 62 1;
#X connect 72 0 66 1;
#X connect 73 0 66 1;
#X connect 75 0 74 0;
#X connect 77 0 76 0;
#X connect 78 0 64 0;
#X connect 79 0 142 0;
#X connect 80 0 115 0;
#X connect 81 0 83 0;
#X connect 82 0 81 1;
#X connect 82 0 87 0;
#X connect 83 0 79 0;
#X connect 84 0 149 0;
#X connect 86 0 81 0;
#X connect 88 0 79 1;
#X connect 89 0 79 1;
#X connect 90 0 83 1;
#X connect 91 0 83 1;
#X connect 92 0 70 0;
#X connect 92 1 71 0;
#X connect 95 0 94 0;
#X connect 96 0 114 0;
#X connect 97 0 109 0;
#X connect 98 0 100 0;
#X connect 99 0 98 1;
#X connect 99 0 103 0;
#X connect 100 0 96 0;
#X connect 101 0 151 0;
#X connect 104 0 96 1;
#X connect 105 0 96 1;
#X connect 106 0 100 1;
#X connect 107 0 100 1;
#X connect 108 0 98 0;
#X connect 109 0 104 0;
#X connect 109 1 105 0;
#X connect 113 0 112 0;
#X connect 114 0 113 0;
#X connect 114 1 144 0;
#X connect 114 2 111 0;
#X connect 114 4 110 0;
#X connect 115 0 88 0;
#X connect 115 1 89 0;
#X connect 118 0 143 0;
#X connect 118 0 168 0;
#X connect 118 1 93 0;
#X connect 118 2 95 0;
#X connect 118 3 117 0;
#X connect 119 0 139 0;
#X connect 120 0 131 0;
#X connect 121 0 123 0;
#X connect 122 0 121 1;
#X connect 122 0 125 0;
#X connect 123 0 119 0;
#X connect 124 0 152 0;
#X connect 126 0 119 1;
#X connect 127 0 119 1;
#X connect 128 0 123 1;
#X connect 129 0 123 1;
#X connect 130 0 121 0;
#X connect 131 0 126 0;
#X connect 131 1 127 0;
#X connect 133 0 44 0;
#X connect 134 0 77 0;
#X connect 134 1 56 0;
#X connect 134 2 184 0;
#X connect 134 4 54 0;
#X connect 138 0 15 0;
#X connect 139 0 132 0;
#X connect 140 0 8 0;
#X connect 141 0 35 0;
#X connect 142 0 85 0;
#X connect 143 0 68 0;
#X connect 144 0 102 0;
#X connect 145 0 24 0;
#X connect 145 1 25 0;
#X connect 146 0 39 0;
#X connect 146 1 40 0;
#X connect 147 0 51 0;
#X connect 147 1 52 0;
#X connect 148 0 26 0;
#X connect 148 1 27 0;
#X connect 149 0 90 0;
#X connect 149 1 91 0;
#X connect 150 0 72 0;
#X connect 150 1 73 0;
#X connect 151 0 106 0;
#X connect 151 1 107 0;
#X connect 152 0 128 0;
#X connect 152 1 129 0;
#X connect 153 0 156 0;
#X connect 154 0 166 0;
#X connect 155 0 167 0;
#X connect 156 0 158 0;
#X connect 157 0 156 1;
#X connect 157 0 160 0;
#X connect 158 0 154 0;
#X connect 159 0 165 0;
#X connect 161 0 154 1;
#X connect 162 0 154 1;
#X connect 163 0 158 1;
#X connect 164 0 158 1;
#X connect 165 0 163 0;
#X connect 165 1 164 0;
#X connect 167 0 161 0;
#X connect 167 1 162 0;
#X connect 169 0 181 0;
#X connect 170 0 183 0;
#X connect 171 0 173 0;
#X connect 172 0 171 1;
#X connect 172 0 175 0;
#X connect 173 0 169 0;
#X connect 174 0 185 0;
#X connect 176 0 169 1;
#X connect 177 0 169 1;
#X connect 178 0 173 1;
#X connect 179 0 173 1;
#X connect 180 0 171 0;
#X connect 181 0 182 0;
#X connect 183 0 176 0;
#X connect 183 1 177 0;
#X connect 184 0 61 0;
#X connect 185 0 178 0;
#X connect 185 1 179 0;
#X restore 23 84 pd play gate (+loop);
#N canvas 0 94 1351 674 play 0;
#X obj 37 372 spigot;
#X obj 97 280 r \$1m-m-stage;
#X obj 97 300 sel 0;
#X obj 37 175 spigot;
#X obj 76 58 r \$1gate-status;
#X obj 37 272 spigot;
#X obj 76 195 r \$1loop-status;
#X obj 37 450 s \$1startplay;
#X obj 52 426 s \$1m-m-stage;
#X obj 937 371 spigot;
#X obj 976 292 r \$1m-m-stage;
#X obj 937 175 spigot;
#X obj 976 58 r \$1gate-status;
#X obj 937 272 spigot;
#X obj 976 195 r \$1loop-status;
#X obj 1022 450 s \$1m-m-stage;
#X obj 937 450 s \$1endplay;
#X obj 37 38 r \$1sp2m;
#X msg 97 332 1;
#X msg 129 332 0;
#X msg 976 336 1;
#X msg 1008 336 0;
#X obj 387 375 spigot;
#X obj 426 292 r \$1m-m-stage;
#X obj 387 175 spigot;
#X obj 426 58 r \$1gate-status;
#X obj 387 272 spigot;
#X obj 426 195 r \$1loop-status;
#X obj 422 426 s \$1m-m-stage;
#X msg 426 336 1;
#X msg 458 336 0;
#X obj 387 38 r \$1mark-on;
#X obj 547 375 spigot;
#X obj 586 292 r \$1m-m-stage;
#X obj 547 175 spigot;
#X obj 586 58 r \$1gate-status;
#X obj 547 272 spigot;
#X obj 586 195 r \$1loop-status;
#X msg 586 336 1;
#X msg 618 336 0;
#X obj 547 38 r \$1mark-on;
#X obj 621 428 s \$1-set-marker2;
#X obj 407 449 s \$1-set-marker1;
#X obj 580 500 s \$1endplay;
#X obj 586 314 sel 2;
#X text 385 17 set marker 1;
#X text 545 17 set marker 2;
#X obj 595 476 s \$1m-m-stage;
#X obj 367 935 spigot;
#X obj 406 852 r \$1m-m-stage;
#X obj 367 735 spigot;
#X obj 406 638 r \$1gate-status;
#X obj 367 832 spigot;
#X obj 406 755 r \$1loop-status;
#X obj 367 1071 s \$1m-m-stage;
#X msg 406 896 1;
#X msg 438 896 0;
#X obj 387 492 s \$1blink-mark;
#X msg 387 470 1;
#X obj 548 522 s \$1blink-mark;
#X msg 548 500 0;
#X obj 367 618 r \$1mark-off;
#X obj 207 935 spigot;
#X obj 246 852 r \$1m-m-stage;
#X obj 207 735 spigot;
#X obj 246 638 r \$1gate-status;
#X obj 207 832 spigot;
#X obj 246 755 r \$1loop-status;
#X obj 207 986 s \$1m-m-stage;
#X obj 207 618 r \$1sp2m;
#X msg 246 896 1;
#X msg 278 896 0;
#X obj 406 874 sel 6;
#X obj 399 1047 s \$1startplay;
#X obj 407 1027 s \$1blink-mark;
#X msg 407 1005 1;
#X obj 557 935 spigot;
#X obj 596 852 r \$1m-m-stage;
#X obj 557 735 spigot;
#X obj 596 638 r \$1gate-status;
#X obj 557 832 spigot;
#X obj 596 755 r \$1loop-status;
#X obj 575 1085 s \$1m-m-stage;
#X msg 596 896 1;
#X msg 628 896 0;
#X obj 557 618 r \$1mark-on;
#X obj 596 874 sel 7;
#X obj 631 995 s \$1-set-marker2;
#X obj 594 1044 s \$1endplay;
#X obj 557 1002 s \$1blink-mark;
#X msg 557 980 0;
#X obj 557 958 t b b b b b;
#X obj 246 874 sel 10;
#X text 35 620 This step is step 1 \; of the remove mark- \; ers subpatch.
\;;
#X obj 436 1004 s \$1reset-marker2;
#X obj 367 957 t b b b b;
#X obj 777 935 spigot;
#X obj 816 852 r \$1m-m-stage;
#X obj 777 735 spigot;
#X obj 816 638 r \$1gate-status;
#X obj 777 832 spigot;
#X obj 816 755 r \$1loop-status;
#X msg 816 896 1;
#X msg 848 896 0;
#X obj 777 618 r \$1mark-off;
#X obj 816 874 sel 8;
#X obj 777 984 s \$1m-m-stage;
#X obj 634 38 r \$1sample-end;
#X obj 547 396 t b b b b b;
#X text 935 19 stop gate (+ loop);
#X msg 1022 426 0;
#X msg 777 957 0;
#X msg 422 402 2;
#X msg 207 962 6;
#X msg 367 1047 7;
#X msg 575 1065 8;
#X obj 214 38 r \$1sample-end;
#X obj 214 375 spigot;
#X obj 253 292 r \$1m-m-stage;
#X obj 214 175 spigot;
#X obj 253 58 r \$1gate-status;
#X obj 214 272 spigot;
#X obj 253 195 r \$1loop-status;
#X msg 253 336 1;
#X msg 285 336 0;
#X obj 214 449 s \$1startplay;
#X obj 354 1091 s \$1-set-marker1;
#X text 37 19 play trigger (+ loop);
#X text 27 585 Set Marker 2 only - trigger (+ loop);
#X obj 76 90 sel 0;
#X msg 76 112 1;
#X msg 106 112 0;
#X obj 253 90 sel 0;
#X msg 253 112 1;
#X msg 283 112 0;
#X obj 426 90 sel 0;
#X msg 426 112 1;
#X msg 456 112 0;
#X obj 586 90 sel 0;
#X msg 586 112 1;
#X msg 616 112 0;
#X obj 976 90 sel 0;
#X msg 976 112 1;
#X msg 1006 112 0;
#X obj 406 669 sel 0;
#X msg 406 691 1;
#X msg 436 691 0;
#X obj 246 669 sel 0;
#X msg 246 691 1;
#X msg 276 691 0;
#X obj 596 669 sel 0;
#X msg 596 691 1;
#X msg 626 691 0;
#X obj 816 669 sel 0;
#X msg 816 691 1;
#X msg 846 691 0;
#X obj 937 38 r \$1sp2m;
#X obj -2 417 bng 15 250 50 0 empty empty empty 17 7 0 10 -262144 -1
-1;
#X obj 253 314 sel 1;
#X obj 426 314 sel 1;
#X obj 976 314 sel 1;
#X msg 52 402 1;
#X obj 1020 397 del 2;
#X obj 767 386 spigot;
#X obj 806 303 r \$1m-m-stage;
#X obj 767 186 spigot;
#X obj 806 59 r \$1gate-status;
#X obj 767 283 spigot;
#X obj 806 206 r \$1loop-status;
#X msg 806 347 1;
#X msg 838 347 0;
#X obj 767 39 r \$1mark-off;
#X msg 767 408 0;
#X obj 767 435 s \$1m-m-stage;
#X obj 806 325 sel 3;
#X msg 595 452 3;
#X obj 806 90 sel 0;
#X msg 806 112 1;
#X msg 836 112 0;
#X obj 1024 82 r kill-button;
#X connect 0 0 7 0;
#X connect 0 0 161 0;
#X connect 0 0 157 0;
#X connect 1 0 2 0;
#X connect 2 0 18 0;
#X connect 2 1 19 0;
#X connect 3 0 5 0;
#X connect 4 0 129 0;
#X connect 5 0 0 0;
#X connect 6 0 5 1;
#X connect 9 0 16 0;
#X connect 9 0 162 0;
#X connect 10 0 160 0;
#X connect 11 0 13 0;
#X connect 12 0 141 0;
#X connect 13 0 9 0;
#X connect 14 0 13 1;
#X connect 17 0 3 0;
#X connect 18 0 0 1;
#X connect 19 0 0 1;
#X connect 20 0 9 1;
#X connect 21 0 9 1;
#X connect 22 0 112 0;
#X connect 22 0 42 0;
#X connect 22 0 58 0;
#X connect 23 0 159 0;
#X connect 24 0 26 0;
#X connect 25 0 135 0;
#X connect 26 0 22 0;
#X connect 27 0 26 1;
#X connect 29 0 22 1;
#X connect 30 0 22 1;
#X connect 31 0 24 0;
#X connect 32 0 108 0;
#X connect 33 0 44 0;
#X connect 34 0 36 0;
#X connect 35 0 138 0;
#X connect 36 0 32 0;
#X connect 37 0 36 1;
#X connect 38 0 32 1;
#X connect 39 0 32 1;
#X connect 40 0 34 0;
#X connect 44 0 38 0;
#X connect 44 1 39 0;
#X connect 48 0 95 0;
#X connect 49 0 72 0;
#X connect 50 0 52 0;
#X connect 51 0 144 0;
#X connect 52 0 48 0;
#X connect 53 0 52 1;
#X connect 55 0 48 1;
#X connect 56 0 48 1;
#X connect 58 0 57 0;
#X connect 60 0 59 0;
#X connect 61 0 50 0;
#X connect 62 0 113 0;
#X connect 63 0 92 0;
#X connect 64 0 66 0;
#X connect 65 0 147 0;
#X connect 66 0 62 0;
#X connect 67 0 66 1;
#X connect 69 0 64 0;
#X connect 70 0 62 1;
#X connect 71 0 62 1;
#X connect 72 0 55 0;
#X connect 72 1 56 0;
#X connect 75 0 74 0;
#X connect 76 0 91 0;
#X connect 77 0 86 0;
#X connect 78 0 80 0;
#X connect 79 0 150 0;
#X connect 80 0 76 0;
#X connect 81 0 80 1;
#X connect 83 0 76 1;
#X connect 84 0 76 1;
#X connect 85 0 78 0;
#X connect 86 0 83 0;
#X connect 86 1 84 0;
#X connect 90 0 89 0;
#X connect 91 0 90 0;
#X connect 91 1 115 0;
#X connect 91 2 88 0;
#X connect 91 4 87 0;
#X connect 92 0 70 0;
#X connect 92 1 71 0;
#X connect 95 0 114 0;
#X connect 95 0 126 0;
#X connect 95 1 73 0;
#X connect 95 2 75 0;
#X connect 95 3 94 0;
#X connect 96 0 111 0;
#X connect 97 0 105 0;
#X connect 98 0 100 0;
#X connect 99 0 153 0;
#X connect 100 0 96 0;
#X connect 101 0 100 1;
#X connect 102 0 96 1;
#X connect 103 0 96 1;
#X connect 104 0 98 0;
#X connect 105 0 102 0;
#X connect 105 1 103 0;
#X connect 107 0 34 0;
#X connect 108 0 60 0;
#X connect 108 1 43 0;
#X connect 108 2 175 0;
#X connect 108 4 41 0;
#X connect 110 0 15 0;
#X connect 111 0 106 0;
#X connect 112 0 28 0;
#X connect 113 0 68 0;
#X connect 114 0 54 0;
#X connect 115 0 82 0;
#X connect 116 0 119 0;
#X connect 117 0 125 0;
#X connect 118 0 158 0;
#X connect 119 0 121 0;
#X connect 120 0 132 0;
#X connect 121 0 117 0;
#X connect 122 0 121 1;
#X connect 123 0 117 1;
#X connect 124 0 117 1;
#X connect 129 0 130 0;
#X connect 129 1 131 0;
#X connect 130 0 3 1;
#X connect 131 0 3 1;
#X connect 132 0 133 0;
#X connect 132 1 134 0;
#X connect 133 0 119 1;
#X connect 134 0 119 1;
#X connect 135 0 136 0;
#X connect 135 1 137 0;
#X connect 136 0 24 1;
#X connect 137 0 24 1;
#X connect 138 0 139 0;
#X connect 138 1 140 0;
#X connect 139 0 34 1;
#X connect 140 0 34 1;
#X connect 141 0 142 0;
#X connect 141 1 143 0;
#X connect 142 0 11 1;
#X connect 143 0 11 1;
#X connect 144 0 145 0;
#X connect 144 1 146 0;
#X connect 145 0 50 1;
#X connect 146 0 50 1;
#X connect 147 0 148 0;
#X connect 147 1 149 0;
#X connect 148 0 64 1;
#X connect 149 0 64 1;
#X connect 150 0 151 0;
#X connect 150 1 152 0;
#X connect 151 0 78 1;
#X connect 152 0 78 1;
#X connect 153 0 154 0;
#X connect 153 1 155 0;
#X connect 154 0 98 1;
#X connect 155 0 98 1;
#X connect 156 0 11 0;
#X connect 158 0 123 0;
#X connect 158 1 124 0;
#X connect 159 0 29 0;
#X connect 159 1 30 0;
#X connect 160 0 20 0;
#X connect 160 1 21 0;
#X connect 161 0 8 0;
#X connect 162 0 110 0;
#X connect 163 0 172 0;
#X connect 164 0 174 0;
#X connect 165 0 167 0;
#X connect 166 0 176 0;
#X connect 167 0 163 0;
#X connect 168 0 167 1;
#X connect 169 0 163 1;
#X connect 170 0 163 1;
#X connect 171 0 165 0;
#X connect 172 0 173 0;
#X connect 174 0 169 0;
#X connect 174 1 170 0;
#X connect 175 0 47 0;
#X connect 176 0 177 0;
#X connect 176 1 178 0;
#X connect 177 0 165 1;
#X connect 178 0 165 1;
#X connect 179 0 11 0;
#X restore 23 105 pd play trigger (+loop);
#N canvas 0 92 1351 676 play 0;
#X obj 31 370 spigot;
#X obj 91 278 r \$1m-m-stage;
#X obj 91 298 sel 0;
#X obj 31 173 spigot;
#X obj 70 56 r \$1gate-status;
#X obj 31 270 spigot;
#X obj 70 193 r \$1loop-status;
#X obj 31 448 s \$1startplay;
#X obj 46 424 s \$1m-m-stage;
#X obj 1041 369 spigot;
#X obj 1080 290 r \$1m-m-stage;
#X obj 1041 173 spigot;
#X obj 1080 56 r \$1gate-status;
#X obj 1041 270 spigot;
#X obj 1080 193 r \$1loop-status;
#X obj 1126 448 s \$1m-m-stage;
#X obj 1041 448 s \$1endplay;
#X obj 31 36 r \$1sp2m;
#X msg 91 330 1;
#X msg 123 330 0;
#X msg 1080 334 1;
#X msg 1112 334 0;
#X obj 521 373 spigot;
#X obj 560 290 r \$1m-m-stage;
#X obj 521 173 spigot;
#X obj 560 56 r \$1gate-status;
#X obj 521 270 spigot;
#X obj 560 193 r \$1loop-status;
#X obj 556 424 s \$1m-m-stage;
#X msg 560 334 1;
#X msg 592 334 0;
#X obj 521 36 r \$1mark-on;
#X obj 681 373 spigot;
#X obj 720 290 r \$1m-m-stage;
#X obj 681 173 spigot;
#X obj 720 56 r \$1gate-status;
#X obj 681 270 spigot;
#X obj 720 193 r \$1loop-status;
#X msg 720 334 1;
#X msg 752 334 0;
#X obj 681 36 r \$1mark-on;
#X obj 755 426 s \$1-set-marker2;
#X obj 541 447 s \$1-set-marker1;
#X obj 714 498 s \$1endplay;
#X obj 720 312 sel 2;
#X text 519 15 set marker 1;
#X text 679 15 set marker 2;
#X obj 729 474 s \$1m-m-stage;
#X obj 361 933 spigot;
#X obj 400 850 r \$1m-m-stage;
#X obj 361 733 spigot;
#X obj 400 636 r \$1gate-status;
#X obj 361 830 spigot;
#X obj 400 753 r \$1loop-status;
#X obj 361 1069 s \$1m-m-stage;
#X msg 400 894 1;
#X msg 432 894 0;
#X obj 521 490 s \$1blink-mark;
#X msg 521 468 1;
#X obj 682 520 s \$1blink-mark;
#X msg 682 498 0;
#X obj 361 616 r \$1mark-off;
#X obj 201 933 spigot;
#X obj 240 850 r \$1m-m-stage;
#X obj 201 733 spigot;
#X obj 240 636 r \$1gate-status;
#X obj 201 830 spigot;
#X obj 240 753 r \$1loop-status;
#X obj 201 984 s \$1m-m-stage;
#X obj 201 616 r \$1sp2m;
#X msg 240 894 1;
#X msg 272 894 0;
#X obj 400 872 sel 6;
#X obj 393 1045 s \$1startplay;
#X obj 401 1025 s \$1blink-mark;
#X msg 401 1003 1;
#X obj 551 933 spigot;
#X obj 590 850 r \$1m-m-stage;
#X obj 551 733 spigot;
#X obj 590 636 r \$1gate-status;
#X obj 551 830 spigot;
#X obj 590 753 r \$1loop-status;
#X obj 569 1083 s \$1m-m-stage;
#X msg 590 894 1;
#X msg 622 894 0;
#X obj 551 616 r \$1mark-on;
#X obj 590 872 sel 7;
#X obj 625 993 s \$1-set-marker2;
#X obj 588 1042 s \$1endplay;
#X obj 551 1000 s \$1blink-mark;
#X msg 551 978 0;
#X obj 551 956 t b b b b b;
#X obj 240 872 sel 10;
#X text 29 618 This step is step 1 \; of the remove mark- \; ers subpatch.
\;;
#X obj 430 1002 s \$1reset-marker2;
#X obj 361 955 t b b b b;
#X obj 771 933 spigot;
#X obj 810 850 r \$1m-m-stage;
#X obj 771 733 spigot;
#X obj 810 636 r \$1gate-status;
#X obj 771 830 spigot;
#X obj 810 753 r \$1loop-status;
#X msg 810 894 1;
#X msg 842 894 0;
#X obj 771 616 r \$1mark-off;
#X obj 810 872 sel 8;
#X obj 771 982 s \$1m-m-stage;
#X obj 768 36 r \$1sample-end;
#X obj 681 394 t b b b b b;
#X text 1039 17 stop gate (+ loop);
#X msg 1126 424 0;
#X msg 771 955 0;
#X msg 556 400 2;
#X msg 201 960 6;
#X msg 361 1045 7;
#X msg 569 1063 8;
#X obj 348 36 r \$1sample-end;
#X obj 348 373 spigot;
#X obj 387 290 r \$1m-m-stage;
#X obj 348 173 spigot;
#X obj 387 56 r \$1gate-status;
#X obj 348 270 spigot;
#X obj 387 193 r \$1loop-status;
#X msg 387 334 1;
#X msg 419 334 0;
#X obj 348 1089 s \$1-set-marker1;
#X msg 70 110 1;
#X msg 100 110 0;
#X msg 387 110 1;
#X msg 417 110 0;
#X obj 560 88 sel 0;
#X msg 560 110 1;
#X msg 590 110 0;
#X obj 720 88 sel 0;
#X msg 720 110 1;
#X msg 750 110 0;
#X obj 1080 88 sel 0;
#X msg 1080 110 1;
#X msg 1110 110 0;
#X obj 400 667 sel 0;
#X msg 400 689 1;
#X msg 430 689 0;
#X obj 240 667 sel 0;
#X msg 240 689 1;
#X msg 270 689 0;
#X obj 590 667 sel 0;
#X msg 590 689 1;
#X msg 620 689 0;
#X obj 810 667 sel 0;
#X msg 810 689 1;
#X msg 840 689 0;
#X obj 1041 36 r \$1sp2m;
#X obj 387 312 sel 1;
#X obj 560 312 sel 1;
#X obj 1080 312 sel 1;
#X msg 46 400 1;
#X obj 1124 395 del 2;
#X text 31 17 play trigger (no loop);
#X text 21 583 Set Marker 2 only - trigger (no loop);
#X obj 348 446 s \$1endplay;
#X obj 387 88 sel 0;
#X obj 70 88 sel 0;
#X msg 70 239 1;
#X msg 100 239 0;
#X obj 70 217 sel 0;
#X msg 387 239 1;
#X msg 417 239 0;
#X obj 387 217 sel 0;
#X msg 560 239 1;
#X msg 590 239 0;
#X obj 560 217 sel 0;
#X msg 720 239 1;
#X msg 750 239 0;
#X obj 720 217 sel 0;
#X msg 240 799 1;
#X msg 270 799 0;
#X obj 240 777 sel 0;
#X msg 400 799 1;
#X msg 430 799 0;
#X obj 400 777 sel 0;
#X msg 590 799 1;
#X msg 620 799 0;
#X obj 590 777 sel 0;
#X msg 810 799 1;
#X msg 840 799 0;
#X obj 810 777 sel 0;
#X obj 369 424 s \$1m-m-stage;
#X msg 369 400 0;
#X obj 887 406 spigot;
#X obj 926 323 r \$1m-m-stage;
#X obj 887 206 spigot;
#X obj 926 59 r \$1gate-status;
#X obj 887 303 spigot;
#X obj 926 226 r \$1loop-status;
#X msg 926 367 1;
#X msg 958 367 0;
#X obj 887 39 r \$1mark-off;
#X msg 887 428 0;
#X obj 887 455 s \$1m-m-stage;
#X obj 926 345 sel 3;
#X msg 729 450 3;
#X obj 926 248 sel 0;
#X obj 926 88 sel 0;
#X msg 926 110 1;
#X msg 956 110 0;
#X msg 926 270 1;
#X msg 956 270 0;
#X obj 191 370 spigot;
#X obj 251 278 r \$1m-m-stage;
#X obj 191 173 spigot;
#X obj 230 56 r \$1gate-status;
#X obj 191 270 spigot;
#X obj 230 193 r \$1loop-status;
#X obj 191 448 s \$1startplay;
#X obj 206 424 s \$1m-m-stage;
#X obj 191 36 r \$1sp2m;
#X msg 251 330 1;
#X msg 283 330 0;
#X msg 230 110 1;
#X msg 260 110 0;
#X msg 206 400 1;
#X obj 230 88 sel 0;
#X msg 230 239 1;
#X msg 260 239 0;
#X obj 230 217 sel 0;
#X obj 251 298 sel 1;
#X obj 431 80 r kill-button;
#X connect 0 0 7 0;
#X connect 0 0 155 0;
#X connect 1 0 2 0;
#X connect 2 0 18 0;
#X connect 2 1 19 0;
#X connect 3 0 5 0;
#X connect 4 0 161 0;
#X connect 5 0 0 0;
#X connect 6 0 164 0;
#X connect 9 0 16 0;
#X connect 9 0 156 0;
#X connect 10 0 154 0;
#X connect 11 0 13 0;
#X connect 12 0 136 0;
#X connect 13 0 9 0;
#X connect 14 0 13 1;
#X connect 17 0 3 0;
#X connect 18 0 0 1;
#X connect 19 0 0 1;
#X connect 20 0 9 1;
#X connect 21 0 9 1;
#X connect 22 0 112 0;
#X connect 22 0 42 0;
#X connect 22 0 58 0;
#X connect 23 0 153 0;
#X connect 24 0 26 0;
#X connect 25 0 130 0;
#X connect 26 0 22 0;
#X connect 27 0 170 0;
#X connect 29 0 22 1;
#X connect 30 0 22 1;
#X connect 31 0 24 0;
#X connect 32 0 108 0;
#X connect 33 0 44 0;
#X connect 34 0 36 0;
#X connect 35 0 133 0;
#X connect 36 0 32 0;
#X connect 37 0 173 0;
#X connect 38 0 32 1;
#X connect 39 0 32 1;
#X connect 40 0 34 0;
#X connect 44 0 38 0;
#X connect 44 1 39 0;
#X connect 48 0 95 0;
#X connect 49 0 72 0;
#X connect 50 0 52 0;
#X connect 51 0 139 0;
#X connect 52 0 48 0;
#X connect 53 0 179 0;
#X connect 55 0 48 1;
#X connect 56 0 48 1;
#X connect 58 0 57 0;
#X connect 60 0 59 0;
#X connect 61 0 50 0;
#X connect 62 0 113 0;
#X connect 63 0 92 0;
#X connect 64 0 66 0;
#X connect 65 0 142 0;
#X connect 66 0 62 0;
#X connect 67 0 176 0;
#X connect 69 0 64 0;
#X connect 70 0 62 1;
#X connect 71 0 62 1;
#X connect 72 0 55 0;
#X connect 72 1 56 0;
#X connect 75 0 74 0;
#X connect 76 0 91 0;
#X connect 77 0 86 0;
#X connect 78 0 80 0;
#X connect 79 0 145 0;
#X connect 80 0 76 0;
#X connect 81 0 182 0;
#X connect 83 0 76 1;
#X connect 84 0 76 1;
#X connect 85 0 78 0;
#X connect 86 0 83 0;
#X connect 86 1 84 0;
#X connect 90 0 89 0;
#X connect 91 0 90 0;
#X connect 91 1 115 0;
#X connect 91 2 88 0;
#X connect 91 4 87 0;
#X connect 92 0 70 0;
#X connect 92 1 71 0;
#X connect 95 0 114 0;
#X connect 95 0 125 0;
#X connect 95 1 73 0;
#X connect 95 2 75 0;
#X connect 95 3 94 0;
#X connect 96 0 111 0;
#X connect 97 0 105 0;
#X connect 98 0 100 0;
#X connect 99 0 148 0;
#X connect 100 0 96 0;
#X connect 101 0 185 0;
#X connect 102 0 96 1;
#X connect 103 0 96 1;
#X connect 104 0 98 0;
#X connect 105 0 102 0;
#X connect 105 1 103 0;
#X connect 107 0 34 0;
#X connect 108 0 60 0;
#X connect 108 1 43 0;
#X connect 108 2 200 0;
#X connect 108 4 41 0;
#X connect 110 0 15 0;
#X connect 111 0 106 0;
#X connect 112 0 28 0;
#X connect 113 0 68 0;
#X connect 114 0 54 0;
#X connect 115 0 82 0;
#X connect 116 0 119 0;
#X connect 117 0 159 0;
#X connect 117 0 187 0;
#X connect 118 0 152 0;
#X connect 119 0 121 0;
#X connect 120 0 160 0;
#X connect 121 0 117 0;
#X connect 122 0 167 0;
#X connect 123 0 117 1;
#X connect 124 0 117 1;
#X connect 126 0 3 1;
#X connect 127 0 3 1;
#X connect 128 0 119 1;
#X connect 129 0 119 1;
#X connect 130 0 131 0;
#X connect 130 1 132 0;
#X connect 131 0 24 1;
#X connect 132 0 24 1;
#X connect 133 0 134 0;
#X connect 133 1 135 0;
#X connect 134 0 34 1;
#X connect 135 0 34 1;
#X connect 136 0 137 0;
#X connect 136 1 138 0;
#X connect 137 0 11 1;
#X connect 138 0 11 1;
#X connect 139 0 140 0;
#X connect 139 1 141 0;
#X connect 140 0 50 1;
#X connect 141 0 50 1;
#X connect 142 0 143 0;
#X connect 142 1 144 0;
#X connect 143 0 64 1;
#X connect 144 0 64 1;
#X connect 145 0 146 0;
#X connect 145 1 147 0;
#X connect 146 0 78 1;
#X connect 147 0 78 1;
#X connect 148 0 149 0;
#X connect 148 1 150 0;
#X connect 149 0 98 1;
#X connect 150 0 98 1;
#X connect 152 0 123 0;
#X connect 152 1 124 0;
#X connect 153 0 29 0;
#X connect 153 1 30 0;
#X connect 154 0 20 0;
#X connect 154 1 21 0;
#X connect 155 0 8 0;
#X connect 156 0 110 0;
#X connect 160 0 128 0;
#X connect 160 1 129 0;
#X connect 161 0 126 0;
#X connect 161 1 127 0;
#X connect 162 0 5 1;
#X connect 163 0 5 1;
#X connect 164 0 162 0;
#X connect 164 1 163 0;
#X connect 165 0 121 1;
#X connect 166 0 121 1;
#X connect 167 0 165 0;
#X connect 167 1 166 0;
#X connect 168 0 26 1;
#X connect 169 0 26 1;
#X connect 170 0 168 0;
#X connect 170 1 169 0;
#X connect 171 0 36 1;
#X connect 172 0 36 1;
#X connect 173 0 171 0;
#X connect 173 1 172 0;
#X connect 174 0 66 1;
#X connect 175 0 66 1;
#X connect 176 0 174 0;
#X connect 176 1 175 0;
#X connect 177 0 52 1;
#X connect 178 0 52 1;
#X connect 179 0 177 0;
#X connect 179 1 178 0;
#X connect 180 0 80 1;
#X connect 181 0 80 1;
#X connect 182 0 180 0;
#X connect 182 1 181 0;
#X connect 183 0 100 1;
#X connect 184 0 100 1;
#X connect 185 0 183 0;
#X connect 185 1 184 0;
#X connect 187 0 186 0;
#X connect 188 0 197 0;
#X connect 189 0 199 0;
#X connect 190 0 192 0;
#X connect 191 0 202 0;
#X connect 192 0 188 0;
#X connect 193 0 201 0;
#X connect 194 0 188 1;
#X connect 195 0 188 1;
#X connect 196 0 190 0;
#X connect 197 0 198 0;
#X connect 199 0 194 0;
#X connect 199 1 195 0;
#X connect 200 0 47 0;
#X connect 201 0 205 0;
#X connect 201 1 206 0;
#X connect 202 0 203 0;
#X connect 202 1 204 0;
#X connect 203 0 190 1;
#X connect 204 0 190 1;
#X connect 205 0 192 1;
#X connect 206 0 192 1;
#X connect 207 0 213 0;
#X connect 207 0 220 0;
#X connect 208 0 225 0;
#X connect 209 0 211 0;
#X connect 210 0 221 0;
#X connect 211 0 207 0;
#X connect 212 0 224 0;
#X connect 215 0 209 0;
#X connect 216 0 207 1;
#X connect 217 0 207 1;
#X connect 218 0 209 1;
#X connect 219 0 209 1;
#X connect 220 0 214 0;
#X connect 221 0 218 0;
#X connect 221 1 219 0;
#X connect 222 0 211 1;
#X connect 223 0 211 1;
#X connect 224 0 222 0;
#X connect 224 1 223 0;
#X connect 225 0 216 0;
#X connect 225 1 217 0;
#X connect 226 0 119 0;
#X restore 23 127 pd play trigger (no loop);
#X obj 316 59 tgl 15 0 empty empty empty 17 7 0 10 -262144 -1 -1 0
1;
#X obj 316 79 sel 1;
#X obj 414 106 s \$1mark-off;
#X obj 316 106 s \$1mark-on;
#X obj 316 33 r \$1mark-status;
#X connect 1 0 2 0;
#X connect 2 0 0 0;
#X connect 8 0 9 0;
#X connect 9 0 11 0;
#X connect 9 1 10 0;
#X connect 12 0 8 0;
#X restore 20 51 pd manage-buttons;
#X text 194 217 Oneshot/Gate/Loop;
#X text 197 176 receive from manage buttons;
#X text 153 46 manages button \; interactions;
#X text 187 245 receive from manage buttons;
#N canvas 414 213 943 555 array+loading 0;
#X obj 407 253 soundfiler;
#X floatatom 407 284 25 0 0 0 - - -, f 25;
#X floatatom 407 393 10 0 0 0 - - -, f 10;
#X obj 407 362 / 44.1;
#X text 463 362 sample rate / 1000;
#X obj 407 424 s \$1-duration;
#X obj 407 55 bng 15 250 50 0 empty empty empty 17 7 0 10 -262144 -1
-1;
#X obj 407 167 list prepend -resize;
#X obj 407 195 list prepend read;
#X obj 407 223 list trim;
#X obj 407 28 loadbang;
#X obj 407 103 list;
#X text 483 392 milliseconds;
#X obj 407 134 list prepend \$1;
#X obj 421 312 s \$1sample-length;
#X obj 607 18 r sample-reload;
#X obj 607 63 sel \$3;
#X obj 655 60 bng 15 250 50 0 empty empty empty 17 7 0 10 -262144 -1
-1;
#X obj 280 29 table \$1-2array;
#X obj 407 81 symbol \$1-2array;
#X connect 0 0 1 0;
#X connect 1 0 3 0;
#X connect 1 0 14 0;
#X connect 2 0 5 0;
#X connect 3 0 2 0;
#X connect 6 0 19 0;
#X connect 7 0 8 0;
#X connect 8 0 9 0;
#X connect 9 0 0 0;
#X connect 10 0 6 0;
#X connect 11 0 13 0;
#X connect 13 0 7 0;
#X connect 15 0 16 0;
#X connect 15 0 17 0;
#X connect 16 0 6 0;
#X connect 19 0 11 0;
#X restore 496 173 pd array+loading;
#X text 495 223 For development only:;
#N canvas 0 182 450 300 play-status 0;
#X obj 85 47 r \$1endplay;
#X msg 85 96 0;
#X obj 85 125 s \$1play-status;
#X obj 100 68 r \$1sample-end;
#X connect 0 0 1 0;
#X connect 1 0 2 0;
#X connect 3 0 1 0;
#X restore 20 73 pd play-status;
#X text 161 117 sets start and end marker \;;
#X obj 675 75 r \$1gate;
#X floatatom 738 100 5 0 0 0 - - -, f 5;
#X obj 738 75 r \$1loop;
#X text 18 94 ----------------------------------------------- \;;
#X text 18 24 ----------------------------------------------- \;;
#X text 90 153 ----------------------------------------------- \;;
#X text 117 665 Marker LED;
#X obj 496 1 r \$1save;
#N canvas 0 94 1351 674 input-manager 0;
#X obj 1630 -56 v \$1vol;
#X obj 20 -39 bng 15 250 50 0 empty empty empty 17 7 0 10 -262144 -1
-1;
#X text 1624 -487 volume;
#X obj 1620 -36 s \$1vol;
#X obj 66 -40 bng 15 250 50 0 empty empty empty 17 7 0 10 -262144 -1
-1;
#X obj 20 6 s \$1sp2m;
#X obj 66 -17 s \$1ep2m;
#X text 130 -16 endplay to mangage;
#X text 88 7 startplay to mangage;
#X text -9 -480 Sample Button;
#X obj 495 -164 bng 15 250 50 0 empty empty empty 17 7 0 10 -260818
-262144 -66577;
#X obj 526 -93 s \$1gate-status;
#X text 496 -482 gate button;
#X obj 700 -164 bng 15 250 50 0 empty empty empty 17 7 0 10 -262144
-262144 -66577;
#X text 699 -485 loop button;
#X text 288 -479 marker button;
#X obj 515 -73 v \$1gate;
#X obj 495 -117 tgl 15 0 empty empty empty 17 7 0 10 -262144 -1 -1
1 1;
#X obj 569 -143 v \$1gate;
#X obj 569 -192 loadbang;
#X obj 495 -53 s \$1gate;
#X obj 569 -170 del 700;
#X obj 700 -117 tgl 15 0 empty empty empty 17 7 0 10 -262144 -1 -1
0 1;
#X obj 779 -192 loadbang;
#X obj 779 -170 del 700;
#X obj 779 -143 v \$1loop;
#X obj 731 -93 s \$1loop-status;
#X obj 720 -73 v \$1loop;
#X obj 700 -53 s \$1loop;
#X obj 22 -107 sel 1;
#X obj 280 -126 sel 1;
#X text 1102 -488 start2;
#X text 1305 -488 end2;
#X obj 1291 -7 s \$1end2;
#X obj 1101 -6 s \$1start2;
#X obj 1101 -98 - 0.5;
#X obj 1291 -98 - 0.5;
#X text 1513 -178 save start2 \; + end2 to \; start and \; end.;
#X obj 1469 -169 sel 0;
#X obj 1469 -81 s \$1saves2e2;
#X obj 310 -435 r c-p;
#X msg 310 -393 1;
#X msg 342 -393 0;
#X obj 280 -363 spigot;
#X obj 525 -435 r c-p;
#X msg 525 -393 1;
#X msg 557 -393 0;
#X obj 495 -363 spigot;
#X obj 495 -460 r gate-button;
#X obj 730 -439 r c-p;
#X msg 730 -397 1;
#X msg 762 -397 0;
#X obj 700 -367 spigot;
#X obj 700 -464 r loop-button;
#X obj 1131 -442 r c-p;
#X msg 1131 -400 1;
#X msg 1163 -400 0;
#X obj 1101 -370 spigot;
#X obj 1150 -230 r st-en-lv-button;
#X obj 1101 -184 spigot;
#X obj 1321 -444 r c-p;
#X msg 1321 -402 1;
#X msg 1353 -402 0;
#X obj 1291 -372 spigot;
#X obj 1340 -229 r st-en-lv-button;
#X obj 1291 -186 spigot;
#X obj 1652 -441 r c-p;
#X msg 1652 -399 1;
#X msg 1684 -399 0;
#X obj 1622 -369 spigot;
#X obj 1696 -254 r st-en-lv-button;
#X obj 1622 -193 spigot;
#X obj 1622 -466 r ctlr3;
#X obj 1291 -469 r ctlr2;
#X obj 1101 -467 r ctlr1;
#X obj 1696 -224 tgl 15 0 empty empty empty 17 7 0 10 -262144 -262144
-66577 0 1;
#X obj 1150 -209 tgl 15 0 empty empty empty 17 7 0 10 -262144 -262144
-66577 0 1;
#X obj 1340 -208 tgl 15 0 empty empty empty 17 7 0 10 -262144 -262144
-66577 0 1;
#X obj 280 -460 r marker-button;
#X obj 310 -415 sel \$3;
#X obj 525 -415 sel \$3;
#X obj 730 -419 sel \$3;
#X obj 1131 -422 sel \$3;
#X obj 1321 -424 sel \$3;
#X obj 1652 -421 sel \$3;
#X obj 22 -235 spigot;
#X obj 61 -301 r button-stage;
#X obj 61 -279 sel 1;
#X obj 280 -235 spigot;
#X obj 319 -301 r button-stage;
#X obj 319 -279 sel 1;
#X obj 495 -235 spigot;
#X obj 534 -301 r button-stage;
#X obj 534 -279 sel 1;
#X obj 700 -235 spigot;
#X obj 739 -301 r button-stage;
#X obj 739 -279 sel 1;
#X obj 1101 -235 spigot;
#X obj 1140 -301 r button-stage;
#X obj 1140 -279 sel 1;
#X obj 1291 -236 spigot;
#X obj 1330 -302 r button-stage;
#X obj 1330 -280 sel 1;
#X obj 1622 -272 spigot;
#X obj 1661 -338 r button-stage;
#X obj 1661 -316 sel 1;
#X msg 61 -257 1;
#X msg 93 -257 0;
#X msg 319 -257 1;
#X msg 351 -257 0;
#X msg 534 -257 1;
#X msg 566 -257 0;
#X msg 739 -257 1;
#X msg 771 -257 0;
#X msg 1140 -257 1;
#X msg 1172 -257 0;
#X msg 1330 -258 1;
#X msg 1362 -258 0;
#X msg 1661 -294 1;
#X msg 1693 -294 0;
#X obj 945 -435 r c-p;
#X msg 945 -393 1;
#X msg 977 -393 0;
#X obj 915 -363 spigot;
#X obj 945 -415 sel \$3;
#X obj 915 -235 spigot;
#X obj 954 -301 r button-stage;
#X obj 954 -279 sel 1;
#X msg 954 -257 1;
#X msg 986 -257 0;
#X text 916 -482 lofi button;
#X obj 915 -460 r lofi-button;
#X obj 915 -54 s \$1lofi;
#X obj 959 -202 loadbang;
#X obj 959 -180 del 700;
#X obj 915 -114 tgl 15 0 empty empty empty 17 7 0 10 -262144 -1 -1
1 1;
#X obj 959 -152 v \$1lofi;
#X obj 933 -76 v \$1lofi;
#X obj 312 -73 s \$1mark-off;
#X obj 280 -40 s \$1mark-on;
#X obj 465 2 s gate-led;
#X obj 675 7 s loop-led;
#X obj 675 -16 pack f \$3;
#X obj 465 -26 pack f \$3;
#X obj -10 -358 t b b;
#X obj 22 -312 f;
#X obj 22 -287 != 0;
#X obj 22 -259 tgl 15 0 empty empty empty 17 7 0 10 -262144 -1 -1 0
1;
#X obj 22 -337 del 1;
#X obj -10 -426 unpack f f;
#X obj -10 -383 sel \$3;
#X obj -10 -405 - 47;
#X obj -10 -456 r notes2;
#X obj 1885 -435 r c-p;
#X msg 1885 -393 1;
#X msg 1917 -393 0;
#X obj 1855 -363 spigot;
#X obj 1885 -415 sel \$3;
#X obj 1855 -235 spigot;
#X obj 1894 -301 r button-stage;
#X obj 1894 -279 sel 1;
#X msg 1894 -257 1;
#X msg 1926 -257 0;
#X obj 1899 -202 loadbang;
#X obj 1899 -180 del 700;
#X obj 1855 -114 tgl 15 0 empty empty empty 17 7 0 10 -262144 -1 -1
1 1;
#X text 1856 -482 sync button;
#X obj 1873 -76 v \$1sync;
#X obj 1855 -54 s \$1sync;
#X obj 1855 -460 r sync-button;
#X obj 1817 -13 pack f \$3;
#X obj 1816 10 s sync-led;
#X obj 1899 -152 v \$1sync;
#X obj 50 -456 r notes2seq;
#X connect 1 0 5 0;
#X connect 4 0 6 0;
#X connect 10 0 17 0;
#X connect 13 0 22 0;
#X connect 17 0 11 0;
#X connect 17 0 16 0;
#X connect 17 0 20 0;
#X connect 17 0 143 0;
#X connect 18 0 17 0;
#X connect 19 0 21 0;
#X connect 21 0 18 0;
#X connect 22 0 26 0;
#X connect 22 0 27 0;
#X connect 22 0 28 0;
#X connect 22 0 142 0;
#X connect 23 0 24 0;
#X connect 24 0 25 0;
#X connect 25 0 22 0;
#X connect 29 0 1 0;
#X connect 29 1 4 0;
#X connect 30 0 139 0;
#X connect 30 1 138 0;
#X connect 35 0 34 0;
#X connect 36 0 33 0;
#X connect 38 0 39 0;
#X connect 40 0 79 0;
#X connect 41 0 43 1;
#X connect 42 0 43 1;
#X connect 43 0 88 0;
#X connect 44 0 80 0;
#X connect 45 0 47 1;
#X connect 46 0 47 1;
#X connect 47 0 91 0;
#X connect 48 0 47 0;
#X connect 49 0 81 0;
#X connect 50 0 52 1;
#X connect 51 0 52 1;
#X connect 52 0 94 0;
#X connect 53 0 52 0;
#X connect 54 0 82 0;
#X connect 55 0 57 1;
#X connect 56 0 57 1;
#X connect 57 0 97 0;
#X connect 58 0 76 0;
#X connect 59 0 35 0;
#X connect 60 0 83 0;
#X connect 61 0 63 1;
#X connect 62 0 63 1;
#X connect 63 0 100 0;
#X connect 64 0 77 0;
#X connect 65 0 36 0;
#X connect 66 0 84 0;
#X connect 67 0 69 1;
#X connect 68 0 69 1;
#X connect 69 0 103 0;
#X connect 70 0 75 0;
#X connect 71 0 0 0;
#X connect 71 0 3 0;
#X connect 72 0 69 0;
#X connect 73 0 63 0;
#X connect 74 0 57 0;
#X connect 75 0 71 1;
#X connect 76 0 59 1;
#X connect 77 0 65 1;
#X connect 77 0 38 0;
#X connect 78 0 43 0;
#X connect 79 0 41 0;
#X connect 79 1 42 0;
#X connect 80 0 45 0;
#X connect 80 1 46 0;
#X connect 81 0 50 0;
#X connect 81 1 51 0;
#X connect 82 0 55 0;
#X connect 82 1 56 0;
#X connect 83 0 61 0;
#X connect 83 1 62 0;
#X connect 84 0 67 0;
#X connect 84 1 68 0;
#X connect 85 0 29 0;
#X connect 86 0 87 0;
#X connect 87 0 106 0;
#X connect 87 1 107 0;
#X connect 88 0 30 0;
#X connect 89 0 90 0;
#X connect 90 0 108 0;
#X connect 90 1 109 0;
#X connect 91 0 10 0;
#X connect 92 0 93 0;
#X connect 93 0 110 0;
#X connect 93 1 111 0;
#X connect 94 0 13 0;
#X connect 95 0 96 0;
#X connect 96 0 112 0;
#X connect 96 1 113 0;
#X connect 97 0 59 0;
#X connect 98 0 99 0;
#X connect 99 0 114 0;
#X connect 99 1 115 0;
#X connect 100 0 65 0;
#X connect 101 0 102 0;
#X connect 102 0 116 0;
#X connect 102 1 117 0;
#X connect 103 0 71 0;
#X connect 104 0 105 0;
#X connect 105 0 118 0;
#X connect 105 1 119 0;
#X connect 106 0 85 1;
#X connect 107 0 85 1;
#X connect 108 0 88 1;
#X connect 109 0 88 1;
#X connect 110 0 91 1;
#X connect 111 0 91 1;
#X connect 112 0 94 1;
#X connect 113 0 94 1;
#X connect 114 0 97 1;
#X connect 115 0 97 1;
#X connect 116 0 100 1;
#X connect 117 0 100 1;
#X connect 118 0 103 1;
#X connect 119 0 103 1;
#X connect 120 0 124 0;
#X connect 121 0 123 1;
#X connect 122 0 123 1;
#X connect 123 0 125 0;
#X connect 124 0 121 0;
#X connect 124 1 122 0;
#X connect 125 0 135 0;
#X connect 126 0 127 0;
#X connect 127 0 128 0;
#X connect 127 1 129 0;
#X connect 128 0 125 1;
#X connect 129 0 125 1;
#X connect 131 0 123 0;
#X connect 133 0 134 0;
#X connect 134 0 136 0;
#X connect 135 0 137 0;
#X connect 135 0 132 0;
#X connect 136 0 135 0;
#X connect 142 0 141 0;
#X connect 143 0 140 0;
#X connect 144 1 148 0;
#X connect 145 0 146 0;
#X connect 146 0 147 0;
#X connect 147 0 85 0;
#X connect 148 0 145 0;
#X connect 149 0 151 0;
#X connect 149 1 145 1;
#X connect 150 0 144 0;
#X connect 151 0 150 0;
#X connect 152 0 149 0;
#X connect 153 0 157 0;
#X connect 154 0 156 1;
#X connect 155 0 156 1;
#X connect 156 0 158 0;
#X connect 157 0 154 0;
#X connect 157 1 155 0;
#X connect 158 0 165 0;
#X connect 159 0 160 0;
#X connect 160 0 161 0;
#X connect 160 1 162 0;
#X connect 161 0 158 1;
#X connect 162 0 158 1;
#X connect 163 0 164 0;
#X connect 164 0 172 0;
#X connect 165 0 167 0;
#X connect 165 0 168 0;
#X connect 165 0 170 0;
#X connect 169 0 156 0;
#X connect 170 0 171 0;
#X connect 172 0 165 0;
#X connect 173 0 149 0;
#X restore 20 3 pd input-manager;
#X text 87 639 -----------------------------------------------------------
\;;
#X obj 416 1 r save1;
#X obj 416 31 s \$1save;
#X obj 219 350 del 7;
#N canvas 352 94 1014 656 sample-end 0;
#X obj 160 144 metro;
#X obj 150 121 tgl 15 0 empty empty empty 17 7 0 10 -262144 -1 -1 0
1;
#X obj 158 197 f;
#X obj 186 197 + 1;
#X msg 117 121 0;
#X msg 192 118 tempo 100 samp;
#X obj 158 247 * 100;
#X obj 262 271 r \$1end;
#X obj 158 517 >;
#X obj 173 471 - 100;
#X obj 192 92 loadbang;
#X obj 117 50 r \$1startplay;
#X msg 134 77 1;
#X obj 158 566 sel 1;
#X obj 158 587 s \$1sample-end;
#X obj 204 50 r \$1endplay;
#X msg 204 71 0;
#X text 321 50 In this subpatch the end of the sample is created to
prevent an abrubt end of the sample. to prevent clicking.;
#X obj -153 541 s pitched-end;
#X obj -153 541 s pitched-end;
#X obj -153 541 s pitched-end;
#X obj -153 541 s pitched-end;
#X obj -153 541 s pitched-end;
#X obj -153 541 s pitched-end;
#X obj -153 541 s pitched-end;
#X obj -153 541 s pitched-end;
#X obj -153 541 s pitched-end;
#X obj -153 541 s pitched-end;
#X obj -153 541 s pitched-end;
#X obj 372 265 r \$1pitched-end;
#X obj 299 310 r \$1sync;
#X text 471 266 This is the changed end for the pitched samples.;
#X text 259 584 This messages to the mange-buttons-patch and signals
that the sample has ended.;
#X text 218 472 Stops 100 samples earlier to prevent clicking;
#X floatatom 200 503 35 0 0 0 - - -, f 35;
#X obj 227 211 r \$1startplay;
#X obj 247 412 spigot;
#X msg 299 356 1;
#X obj 299 333 sel 0;
#X msg 327 356 0;
#X obj 247 306 f;
#X obj 409 310 r \$1sync;
#X obj 337 211 r \$1startplay;
#X obj 357 412 spigot;
#X obj 357 306 f;
#X obj 227 283 bng 15 250 50 0 empty empty empty 17 7 0 10 -262144
-1 -1;
#X obj 337 283 bng 15 250 50 0 empty empty empty 17 7 0 10 -262144
-1 -1;
#X obj 337 234 del 2;
#X obj 227 234 del 2;
#X connect 0 0 2 0;
#X connect 1 0 0 0;
#X connect 2 0 3 0;
#X connect 2 0 6 0;
#X connect 3 0 2 1;
#X connect 4 0 2 0;
#X connect 5 0 0 0;
#X connect 6 0 8 0;
#X connect 7 0 40 1;
#X connect 7 0 40 0;
#X connect 8 0 13 0;
#X connect 9 0 8 1;
#X connect 9 0 34 0;
#X connect 10 0 5 0;
#X connect 11 0 4 0;
#X connect 11 0 12 0;
#X connect 12 0 1 0;
#X connect 13 0 14 0;
#X connect 15 0 16 0;
#X connect 16 0 1 0;
#X connect 29 0 44 1;
#X connect 29 0 44 0;
#X connect 30 0 38 0;
#X connect 35 0 48 0;
#X connect 36 0 9 0;
#X connect 37 0 36 1;
#X connect 38 0 37 0;
#X connect 38 1 39 0;
#X connect 39 0 36 1;
#X connect 40 0 36 0;
#X connect 41 0 43 1;
#X connect 42 0 47 0;
#X connect 43 0 9 0;
#X connect 44 0 43 0;
#X connect 45 0 40 0;
#X connect 46 0 44 0;
#X connect 47 0 46 0;
#X connect 48 0 45 0;
#X restore 496 193 pd sample-end;
#X floatatom 798 100 5 0 0 0 - - -, f 5;
#X obj 798 75 r \$1lofi;
#X obj 90 193 del 0;
#X msg 179 361 0;
#X obj 179 582 s note;
#X floatatom 241 396 5 0 0 0 - - -, f 5;
#X obj 241 375 r \$1lofi;
#X msg 79 353 100;
#X obj 31 353 del 5;
#X obj 123 331 del 2;
#X obj 83 273 del 3;
#X obj 20 666 s mark-led;
#X obj 20 574 pack f \$3;
#X obj 798 225 s lofi-led;
#X obj 798 204 pack f \$3;
#X msg 267 422 symbol \$1-2array;
#X obj 308 375 unpack 0 0 0;
#X floatatom 858 100 5 0 0 0 - - -, f 5;
#X obj 858 75 r \$1sync;
#X obj 858 138 s \$1sync;
#X obj 341 466 r \$1sync;
#X text 936 174 Order of agruments \; 1 Note-number(pitch) \; 2 Velocity
(0=off) \; 3 Lofi-Status \; 4 Sample name \; 5 Sample start point \;
6 Sample length \; 7 Volume \; 8 Pitch \; 9 Sync \;;
#X obj 421 412 r \$1sample-length;
#X obj 179 510 pack \$3 100 0 s 0 0 0 0 0 0;
#X connect 0 0 66 6;
#X connect 4 0 0 0;
#X connect 5 0 1 0;
#X connect 6 0 2 0;
#X connect 9 0 13 0;
#X connect 10 0 59 0;
#X connect 12 0 41 0;
#X connect 12 0 46 0;
#X connect 13 0 55 0;
#X connect 15 0 16 0;
#X connect 17 0 45 0;
#X connect 17 0 46 0;
#X connect 17 0 51 0;
#X connect 17 0 52 0;
#X connect 17 0 53 0;
#X connect 19 0 18 0;
#X connect 29 0 3 0;
#X connect 31 0 30 0;
#X connect 36 0 7 0;
#X connect 39 0 40 0;
#X connect 41 0 66 0;
#X connect 43 0 57 0;
#X connect 44 0 43 0;
#X connect 45 0 10 0;
#X connect 46 0 66 1;
#X connect 48 0 66 2;
#X connect 49 0 48 0;
#X connect 50 0 66 1;
#X connect 51 0 66 0;
#X connect 52 0 66 0;
#X connect 53 0 50 0;
#X connect 55 0 54 0;
#X connect 57 0 56 0;
#X connect 58 0 66 3;
#X connect 59 0 66 4;
#X connect 59 1 66 5;
#X connect 59 2 66 7;
#X connect 60 0 62 0;
#X connect 61 0 60 0;
#X connect 63 0 66 8;
#X connect 65 0 66 9;
#X connect 66 0 47 0;
#X coords 0 674 1 673 85 60 0;
