#N canvas 0 92 1351 676 10;
#X obj 403 69 recorder;
#X obj 56 199 r rec-button;
#X obj 121 424 s button-stage;
#X msg 121 403 2;
#X obj 56 374 spigot;
#X obj 95 218 r button-stage;
#X obj 95 239 sel 4;
#X msg 95 261 0;
#X msg 128 261 1;
#X text 47 177 Activating Recording Mode;
#X obj 564 83 tgl 15 0 empty empty empty 17 7 0 10 -262144 -1 -1 0
1;
#X obj 573 56 metro 200;
#X obj 88 447 s \$1rec-stage;
#X msg 88 424 1;
#X obj 573 36 r \$1blink-rec;
#X msg 56 447 1;
#X obj 255 24 r \$1rec-stage;
#X floatatom 255 46 5 0 0 0 - - -, f 5;
#X obj 56 285 spigot;
#X obj 95 307 r \$1rec-stage;
#X obj 95 329 sel 0;
#X msg 95 351 1;
#X msg 127 351 0;
#X obj 1156 201 r rec-button;
#X obj 1156 379 spigot;
#X obj 1195 220 r button-stage;
#X obj 1195 241 sel 4;
#X msg 1195 263 0;
#X msg 1228 263 1;
#X obj 1413 446 s \$1rec-stage;
#X obj 1381 468 s \$1blink-rec;
#X obj 1156 287 spigot;
#X obj 1195 309 r \$1rec-stage;
#X msg 1195 353 1;
#X msg 1227 353 0;
#X obj 56 469 s \$1rec-led;
#X obj 564 14 r \$1rec-led;
#X obj 946 196 r rec-button;
#X obj 946 371 spigot;
#X obj 985 215 r button-stage;
#X obj 985 236 sel 4;
#X msg 985 258 0;
#X msg 1018 258 1;
#X obj 1031 490 s \$1rec-stage;
#X obj 946 282 spigot;
#X obj 985 304 r \$1rec-stage;
#X msg 985 348 1;
#X msg 1017 348 0;
#X floatatom 462 46 5 0 0 0 - - -, f 5;
#X obj 1004 523 s \$1blink-rec;
#X msg 1381 446 0;
#X text 274 176 choose button to record to;
#X obj 462 26 r \$1pad2rec;
#X obj 277 196 r c-p;
#X obj 277 284 spigot;
#X obj 316 217 r \$1rec-stage;
#X msg 316 261 1;
#X msg 347 261 0;
#X obj 316 239 sel 1;
#X obj 316 307 r \$1rec-stage;
#X obj 316 329 sel 1;
#X msg 316 353 0;
#X obj 277 390 f;
#X obj 294 430 != 0;
#X obj 294 451 sel 1;
#X msg 294 585 1;
#X obj 294 606 s \$1blink-rec;
#X msg 1004 501 0;
#X msg 984 544 1;
#X obj 984 566 s \$1rec-led;
#X obj 330 585 s \$1rec-stage;
#X msg 330 562 2;
#X obj 985 326 sel 2;
#X msg 1032 467 3;
#X obj 946 396 t b b b b b;
#X msg 946 418 1;
#X obj 946 587 s \$1rec;
#X obj 403 26 r \$1rec;
#X text 944 174 Start recording;
#X obj 1195 331 sel 3;
#X msg 1413 423 0;
#X obj 1326 513 s \$1rec-led;
#X msg 1326 491 0;
#X obj 1311 558 s \$1rec;
#X msg 1311 536 0;
#X obj 1266 582 s button-stage;
#X msg 1266 561 1;
#X obj 285 626 s \$1pad2rec;
#X obj 159 67 s \$1rec-stage;
#X obj 159 27 loadbang;
#X msg 159 48 0;
#X text 46 130 -----------------------------------------------------------
\;;
#X text 33 26 Start:;
#X obj 1032 437 del 100;
#X obj 1326 470 del 100;
#X obj 1413 402 del 100;
#X obj 1156 518 del 200;
#X obj 1156 582 s sample-reload;
#X obj 741 17 r sample-reload;
#X floatatom 741 53 5 0 0 0 - - -, f 5;
#X obj 244 603 f;
#X obj 213 557 del 200;
#X obj 244 645 v \$1pad2rec2;
#X obj 1156 548 v \$1pad2rec2;
#X text 1154 168 stop recording. reload recorded sample. returning
to play \; stage.;
#X obj 564 105 s led-rec;
#X obj 488 206 r cancel-button;
#X obj 488 390 spigot;
#X obj 527 234 r button-stage;
#X obj 527 255 sel 4;
#X msg 527 277 0;
#X msg 560 277 1;
#X obj 488 301 spigot;
#X obj 527 323 r \$1rec-stage;
#X msg 527 367 1;
#X msg 559 367 0;
#X obj 527 345 sel 2;
#X obj 633 451 s \$1blink-rec;
#X msg 633 429 0;
#X obj 577 495 s \$1rec-stage;
#X msg 577 472 0;
#X obj 577 451 del 100;
#X obj 546 516 s button-stage;
#X msg 546 495 1;
#X obj 487 567 s \$1rec-led;
#X msg 487 545 0;
#X obj 487 516 del 100;
#X text 485 174 cancel recording \; return to play stage \;;
#X text 745 174 adjust input level \;;
#X obj 746 198 r ctlr3;
#X obj 746 374 spigot;
#X obj 785 218 r button-stage;
#X obj 785 239 sel 4;
#X msg 785 261 0;
#X msg 818 261 1;
#X obj 746 285 spigot;
#X obj 785 307 r \$1rec-stage;
#X msg 785 351 1;
#X msg 817 351 0;
#X obj 785 329 sel 2;
#X obj 746 489 s input-gain;
#X obj 746 437 change;
#X floatatom 233 252 5 0 0 0 - - -, f 5;
#X obj 366 556 s button-stage;
#X msg 366 535 1;
#X obj 366 513 del 50;
#X connect 1 0 18 0;
#X connect 3 0 2 0;
#X connect 4 0 3 0;
#X connect 4 0 13 0;
#X connect 4 0 15 0;
#X connect 5 0 6 0;
#X connect 6 0 7 0;
#X connect 6 1 8 0;
#X connect 7 0 18 1;
#X connect 8 0 18 1;
#X connect 10 0 105 0;
#X connect 11 0 10 0;
#X connect 13 0 12 0;
#X connect 14 0 11 0;
#X connect 15 0 35 0;
#X connect 16 0 17 0;
#X connect 18 0 4 0;
#X connect 19 0 20 0;
#X connect 20 0 21 0;
#X connect 20 1 22 0;
#X connect 21 0 4 1;
#X connect 22 0 4 1;
#X connect 23 0 31 0;
#X connect 24 0 50 0;
#X connect 24 0 84 0;
#X connect 24 0 86 0;
#X connect 24 0 94 0;
#X connect 24 0 95 0;
#X connect 24 0 96 0;
#X connect 25 0 26 0;
#X connect 26 0 27 0;
#X connect 26 1 28 0;
#X connect 27 0 31 1;
#X connect 28 0 31 1;
#X connect 31 0 24 0;
#X connect 32 0 79 0;
#X connect 33 0 24 1;
#X connect 34 0 24 1;
#X connect 36 0 10 0;
#X connect 37 0 44 0;
#X connect 38 0 74 0;
#X connect 39 0 40 0;
#X connect 40 0 41 0;
#X connect 40 1 42 0;
#X connect 41 0 44 1;
#X connect 42 0 44 1;
#X connect 44 0 38 0;
#X connect 45 0 72 0;
#X connect 46 0 38 1;
#X connect 47 0 38 1;
#X connect 48 0 0 1;
#X connect 50 0 30 0;
#X connect 52 0 48 0;
#X connect 53 0 54 0;
#X connect 53 0 142 0;
#X connect 54 0 62 0;
#X connect 54 0 101 0;
#X connect 55 0 58 0;
#X connect 56 0 54 1;
#X connect 57 0 54 1;
#X connect 58 0 56 0;
#X connect 58 1 57 0;
#X connect 59 0 60 0;
#X connect 60 1 61 0;
#X connect 61 0 62 0;
#X connect 62 0 63 0;
#X connect 62 0 87 0;
#X connect 62 0 100 1;
#X connect 63 0 64 0;
#X connect 64 0 65 0;
#X connect 64 0 71 0;
#X connect 64 0 145 0;
#X connect 65 0 66 0;
#X connect 67 0 49 0;
#X connect 68 0 69 0;
#X connect 71 0 70 0;
#X connect 72 0 46 0;
#X connect 72 1 47 0;
#X connect 73 0 43 0;
#X connect 74 0 75 0;
#X connect 74 2 68 0;
#X connect 74 3 67 0;
#X connect 74 4 93 0;
#X connect 75 0 76 0;
#X connect 77 0 0 0;
#X connect 79 0 33 0;
#X connect 79 1 34 0;
#X connect 80 0 29 0;
#X connect 82 0 81 0;
#X connect 84 0 83 0;
#X connect 86 0 85 0;
#X connect 89 0 90 0;
#X connect 90 0 88 0;
#X connect 93 0 73 0;
#X connect 94 0 82 0;
#X connect 95 0 80 0;
#X connect 96 0 103 0;
#X connect 98 0 99 0;
#X connect 100 0 102 0;
#X connect 101 0 100 0;
#X connect 103 0 97 0;
#X connect 106 0 112 0;
#X connect 107 0 118 0;
#X connect 107 0 121 0;
#X connect 107 0 123 0;
#X connect 107 0 126 0;
#X connect 108 0 109 0;
#X connect 109 0 110 0;
#X connect 109 1 111 0;
#X connect 110 0 112 1;
#X connect 111 0 112 1;
#X connect 112 0 107 0;
#X connect 113 0 116 0;
#X connect 114 0 107 1;
#X connect 115 0 107 1;
#X connect 116 0 114 0;
#X connect 116 1 115 0;
#X connect 118 0 117 0;
#X connect 120 0 119 0;
#X connect 121 0 120 0;
#X connect 123 0 122 0;
#X connect 125 0 124 0;
#X connect 126 0 125 0;
#X connect 129 0 135 0;
#X connect 130 0 141 0;
#X connect 131 0 132 0;
#X connect 132 0 133 0;
#X connect 132 1 134 0;
#X connect 133 0 135 1;
#X connect 134 0 135 1;
#X connect 135 0 130 0;
#X connect 136 0 139 0;
#X connect 137 0 130 1;
#X connect 138 0 130 1;
#X connect 139 0 137 0;
#X connect 139 1 138 0;
#X connect 141 0 140 0;
#X connect 144 0 143 0;
#X connect 145 0 144 0;
